<?xml version="1.0" encoding="UTF-8" standalone="no"?>
<!-- Created with Inkscape (http://www.inkscape.org/) -->

<svg
   version="1.1"
   id="svg16011"
   xml:space="preserve"
   width="682.66669"
   height="682.66669"
   viewBox="0 0 682.66669 682.66669"
   xmlns="http://www.w3.org/2000/svg"
   xmlns:svg="http://www.w3.org/2000/svg"><defs
     id="defs16015"><clipPath
       clipPathUnits="userSpaceOnUse"
       id="clipPath16025"><path
         d="M 0,512 H 512 V 0 H 0 Z"
         id="path16023" /></clipPath></defs><g
     id="g16017"
     transform="matrix(1.3333333,0,0,-1.3333333,0,682.66667)"><g
       id="g16019"><g
         id="g16021"
         clip-path="url(#clipPath16025)"><g
           id="g16027"
           transform="translate(397.6113,114.4316)"><path
             d="m 0,0 c -78.244,-78.236 -205.103,-78.236 -283.347,0 -78.243,78.236 -78.243,205.083 0,283.319 78.244,78.237 205.103,78.237 283.347,0 C 78.244,205.083 78.244,78.236 0,0"
             style="fill:#fecbaa;fill-opacity:1;fill-rule:nonzero;stroke:none"
             id="path16029" /></g><g
           id="g16031"
           transform="translate(397.6113,397.751)"><path
             d="m 0,0 c -12.84,12.838 -26.993,23.555 -42.021,32.18 49.649,-77.531 40.598,-181.774 -27.181,-249.546 -65.404,-65.399 -164.773,-76.115 -241.326,-32.179 7.666,-11.971 16.716,-23.31 27.182,-33.774 78.243,-78.237 205.102,-78.237 283.346,0 C 78.244,-205.083 78.244,-78.236 0,0"
             style="fill:#ffae85;fill-opacity:1;fill-rule:nonzero;stroke:none"
             id="path16033" /></g><g
           id="g16035"
           transform="translate(487.5469,391.1582)"><path
             d="m 0,0 -50.119,-50.115 c -2.689,5.788 -5.689,11.445 -8.959,17.003 -7.524,12.688 -16.563,24.726 -27.136,35.85 -1.214,1.294 -2.458,2.578 -3.732,3.853 -0.502,0.511 -1.013,1.022 -1.535,1.514 -1.796,1.755 -3.622,3.481 -5.467,5.156 -10.855,9.881 -22.542,18.346 -34.812,25.419 -5.326,3.049 -10.754,5.847 -16.271,8.366 l 50.491,50.485 z"
             style="fill:#4f7693;fill-opacity:1;fill-rule:nonzero;stroke:none"
             id="path16037" /></g><g
           id="g16039"
           transform="translate(482.8408,351.1543)"><path
             d="m 0,0 -35.557,-35.553 c -2.681,8.642 -5.97,17.154 -9.858,25.447 -2.691,5.781 -5.683,11.442 -8.962,16.994 l 18.989,18.987 c 8.176,8.175 8.176,21.428 0,29.603 l -42.633,42.629 c -8.176,8.175 -21.431,8.175 -29.606,0 l -51.829,-51.824 c -8.459,-8.458 -22.174,-8.458 -30.633,0 -8.459,8.458 -8.459,22.171 0,30.63 l 56.585,56.579 c 25.209,25.207 65.331,26.413 91.977,3.598 1.325,-1.147 2.621,-2.343 3.877,-3.599 L 0,95.846 C 1.385,94.46 2.711,93.015 3.947,91.539 26.405,64.917 25.08,25.078 0,0"
             style="fill:#ff84a7;fill-opacity:1;fill-rule:nonzero;stroke:none"
             id="path16041" /></g><g
           id="g16043"
           transform="translate(292.752,403.1807)"><path
             d="m 0,0 56.585,56.579 c 25.209,25.207 65.331,26.413 91.977,3.598 1.325,-1.147 2.621,-2.343 3.876,-3.598 l 37.651,-37.646 c 1.386,-1.386 2.711,-2.83 3.947,-4.307 7.755,-9.192 12.671,-19.962 14.755,-31.154 3.605,19.414 -1.305,40.096 -14.755,56.041 -1.236,1.475 -2.561,2.921 -3.947,4.306 l -37.651,37.646 c -1.255,1.256 -2.551,2.452 -3.876,3.598 -26.646,22.816 -66.768,21.61 -91.977,-3.597 L 0,24.887 C -7.561,17.327 -8.343,5.58 -2.389,-2.872 -1.681,-1.867 -0.898,-0.899 0,0"
             style="fill:#ef6085;fill-opacity:1;fill-rule:nonzero;stroke:none"
             id="path16045" /></g><g
           id="g16047"
           transform="translate(449.4551,379.3877)"><path
             d="m 0,0 c -0.607,-0.819 -1.259,-1.615 -2.001,-2.358 l -18.99,-18.988 c 3.142,-5.319 6.012,-10.743 8.615,-16.273 l 10.375,10.374 C 5.431,-19.812 6.082,-8.195 0,0"
             style="fill:#ef6085;fill-opacity:1;fill-rule:nonzero;stroke:none"
             id="path16049" /></g><g
           id="g16051"
           transform="translate(410.4912,403.0547)"><path
             d="m 0,0 -9.089,-9.098 c -0.019,-0.02 -0.05,-0.04 -0.069,-0.06 -1.214,1.294 -2.458,2.578 -3.733,3.852 -0.502,0.511 -1.012,1.023 -1.535,1.515 -1.796,1.755 -3.621,3.48 -5.467,5.155 0.05,0.061 0.1,0.121 0.161,0.181 l 9.098,9.088 c 2.94,2.939 7.696,2.939 10.634,0 C 2.94,7.694 2.94,2.93 0,0"
             style="fill:#2f5066;fill-opacity:1;fill-rule:nonzero;stroke:none"
             id="path16053" /></g><g
           id="g16055"
           transform="translate(433.2852,420.7959)"><path
             d="m 0,0 -13.909,13.907 c -8.73,8.73 -8.73,22.884 0,31.614 l 27.287,27.284 c 8.728,8.727 22.881,8.727 31.609,0 L 58.896,58.896 c 8.73,-8.728 8.73,-22.882 0,-31.612 L 31.609,0 C 22.881,-8.729 8.729,-8.729 0,0"
             style="fill:#fecbaa;fill-opacity:1;fill-rule:nonzero;stroke:none"
             id="path16057" /></g><g
           id="g16059"
           transform="translate(448.4844,435.9941)"><path
             d="m 0,0 -13.909,13.907 c -8.73,8.73 -8.73,22.883 0,31.613 l 12.088,12.086 c 8.728,8.728 22.881,8.728 31.609,0 L 43.697,43.698 c 8.73,-8.728 8.73,-22.883 0,-31.612 L 31.609,0 C 22.881,-8.729 8.729,-8.729 0,0"
             style="fill:#c97f4c;fill-opacity:1;fill-rule:nonzero;stroke:none"
             id="path16061" /></g><g
           id="g16063"
           transform="translate(172.5234,73.7861)"><path
             d="m 0,0 -50.491,-50.476 -97.53,97.522 50.119,50.125 c 2.688,-5.788 5.677,-11.445 8.958,-17.003 7.524,-12.689 16.553,-24.727 27.127,-35.851 1.213,-1.294 2.458,-2.578 3.732,-3.852 0.511,-0.511 1.023,-1.023 1.534,-1.514 1.796,-1.756 3.622,-3.481 5.468,-5.156 C -40.229,23.914 -28.531,15.448 -16.262,8.376 -10.945,5.327 -5.508,2.528 0,0"
             style="fill:#4f7693;fill-opacity:1;fill-rule:nonzero;stroke:none"
             id="path16065" /></g><g
           id="g16067"
           transform="translate(29.2021,160.8447)"><path
             d="m 0,0 35.557,35.554 c 2.681,-8.643 5.97,-17.155 9.858,-25.447 2.691,-5.781 5.683,-11.442 8.961,-16.994 L 35.387,-25.875 c -8.175,-8.174 -8.175,-21.428 0,-29.602 l 42.634,-42.63 c 8.175,-8.175 21.43,-8.175 29.606,0 l 51.829,51.825 c 8.459,8.458 22.174,8.458 30.632,0 8.459,-8.458 8.459,-22.172 0,-30.63 l -56.584,-56.579 c -25.209,-25.207 -65.331,-26.413 -91.977,-3.598 -1.326,1.147 -2.622,2.343 -3.877,3.598 L 0,-95.845 c -1.386,1.386 -2.711,2.83 -3.947,4.306 C -26.406,-64.916 -25.08,-25.077 0,0"
             style="fill:#ff84a7;fill-opacity:1;fill-rule:nonzero;stroke:none"
             id="path16069" /></g><g
           id="g16071"
           transform="translate(60.3994,111.4102)"><path
             d="m 0,0 -1.886,-1.887 c -8.175,-8.174 -8.175,-21.427 0,-29.602 l 42.634,-42.63 c 8.176,-8.175 21.431,-8.175 29.606,0 l 51.83,51.825 c 8.459,8.458 22.172,8.458 30.631,0 1.991,-1.99 3.495,-4.277 4.547,-6.711 l 1.529,1.527 c 8.46,8.458 8.46,22.172 0,30.63 -8.458,8.458 -22.173,8.458 -30.632,0 L 76.43,-48.673 c -8.176,-8.175 -21.431,-8.175 -29.606,0 L 4.189,-6.042 C 2.389,-4.241 1.008,-2.186 0,0"
             style="fill:#ef6085;fill-opacity:1;fill-rule:nonzero;stroke:none"
             id="path16073" /></g><g
           id="g16075"
           transform="translate(23.127,135.3984)"><path
             d="m 0,0 15.697,15.696 c 9.031,9.03 24.197,6.23 29.601,-5.341 0.039,-0.082 0.078,-0.165 0.116,-0.248 0.693,-1.489 1.408,-2.969 2.141,-4.443 L 60.451,18.56 C 57.173,24.111 54.182,29.772 51.49,35.554 47.603,43.846 44.313,52.358 41.632,61 L 6.075,25.446 C -6.47,12.903 -13.07,-3.333 -13.726,-19.762 -10.456,-12.604 -5.893,-5.892 0,0"
             style="fill:#ef6085;fill-opacity:1;fill-rule:nonzero;stroke:none"
             id="path16077" /></g><g
           id="g16079"
           transform="translate(121.4404,107.5811)"><path
             d="m 0,0 c -0.05,-0.061 -0.101,-0.121 -0.16,-0.181 l -9.09,-9.088 c -1.474,-1.474 -3.4,-2.207 -5.327,-2.207 -1.915,0 -3.842,0.733 -5.317,2.207 -2.939,2.939 -2.939,7.694 0,10.633 l 9.089,9.098 c 0.021,0.02 0.05,0.04 0.071,0.06 C -9.521,9.229 -8.276,7.944 -7.002,6.67 -6.491,6.159 -5.979,5.647 -5.468,5.156 -3.672,3.4 -1.846,1.675 0,0"
             style="fill:#2f5066;fill-opacity:1;fill-rule:nonzero;stroke:none"
             id="path16081" /></g><g
           id="g16083"
           transform="translate(78.7578,91.2041)"><path
             d="m 0,0 13.908,-13.908 c 8.731,-8.73 8.731,-22.883 0,-31.613 l -27.286,-27.284 c -8.729,-8.728 -22.881,-8.728 -31.61,0 l -13.908,13.908 c -8.731,8.729 -8.731,22.883 0,31.613 L -31.61,0 C -22.881,8.728 -8.729,8.728 0,0"
             style="fill:#fecbaa;fill-opacity:1;fill-rule:nonzero;stroke:none"
             id="path16085" /></g><g
           id="g16087"
           transform="translate(63.7412,76.1885)"><path
             d="m 0,0 13.909,-13.907 c 8.73,-8.73 8.73,-22.883 0,-31.613 L 1.639,-57.789 c -8.73,-8.729 -22.881,-8.729 -31.611,0 l -13.908,13.907 c -8.73,8.73 -8.73,22.884 0,31.613 L -31.609,0 C -22.881,8.729 -8.729,8.729 0,0"
             style="fill:#c97f4c;fill-opacity:1;fill-rule:nonzero;stroke:none"
             id="path16089" /></g><g
           id="g16091"
           transform="translate(488.7109,122.0459)"><path
             d="m 0,0 -97.531,-97.532 -50.119,50.115 c 5.778,2.698 11.436,5.688 16.994,8.968 12.7,7.513 24.739,16.551 35.864,27.124 1.294,1.214 2.578,2.468 3.842,3.731 0.512,0.512 1.023,1.013 1.525,1.534 1.756,1.796 3.481,3.622 5.147,5.468 9.881,10.854 18.348,22.539 25.421,34.808 3.049,5.326 5.848,10.753 8.376,16.27 z"
             style="fill:#4f7693;fill-opacity:1;fill-rule:nonzero;stroke:none"
             id="path16093" /></g><g
           id="g16095"
           transform="translate(351.165,29.2217)"><path
             d="m 0,0 -35.557,35.554 c 8.643,2.68 17.156,5.969 25.45,9.857 5.781,2.691 11.443,5.682 16.995,8.96 L 25.877,35.384 c 8.176,-8.175 21.431,-8.175 29.605,0 l 42.635,42.63 c 8.175,8.174 8.175,21.428 0,29.603 l -51.83,51.824 c -8.459,8.458 -8.459,22.171 0,30.629 8.459,8.458 22.174,8.458 30.633,0 l 56.584,-56.579 c 25.209,-25.207 26.416,-65.325 3.599,-91.968 -1.147,-1.325 -2.343,-2.621 -3.599,-3.877 L 95.854,0 C 94.468,-1.386 93.023,-2.711 91.548,-3.947 64.923,-26.403 25.08,-25.077 0,0"
             style="fill:#83d9ff;fill-opacity:1;fill-rule:nonzero;stroke:none"
             id="path16097" /></g><g
           id="g16099"
           transform="translate(397.4521,193.2656)"><path
             d="m 0,0 v 0 c 8.459,8.458 22.174,8.458 30.633,0 l 56.584,-56.579 c 9.918,-9.917 16.104,-22.145 18.59,-34.949 4.178,21.393 -2.019,44.406 -18.59,60.975 L 30.633,26.026 C 22.174,34.484 8.459,34.484 0,26.026 -7.731,18.295 -8.373,6.185 -1.97,-2.301 -1.368,-1.504 -0.727,-0.727 0,0"
             style="fill:#5fc9ed;fill-opacity:1;fill-rule:nonzero;stroke:none"
             id="path16101" /></g><g
           id="g16103"
           transform="translate(335.3691,46.0645)"><path
             d="m 0,0 c 14.08,6.477 30.714,3.473 41.673,-7.485 8.176,-8.175 21.431,-8.175 29.605,0 l 42.635,42.63 c 7.605,7.603 8.125,19.597 1.582,27.814 -0.49,-0.616 -1.012,-1.217 -1.582,-1.788 L 71.278,18.541 c -8.174,-8.175 -21.429,-8.175 -29.605,0 L 22.684,37.528 C 17.132,34.25 11.47,31.259 5.688,28.568 -2.605,24.681 -11.118,21.392 -19.761,18.711 L -0.724,-0.325 C -0.559,-0.255 -0.313,-0.145 0,0"
             style="fill:#5fc9ed;fill-opacity:1;fill-rule:nonzero;stroke:none"
             id="path16105" /></g><g
           id="g16107"
           transform="translate(413.7119,101.5625)"><path
             d="m 0,0 c -1.475,-1.465 -3.4,-2.207 -5.327,-2.207 -1.926,0 -3.853,0.742 -5.317,2.207 l -9.088,9.088 c -0.021,0.02 -0.041,0.05 -0.061,0.07 1.294,1.214 2.578,2.468 3.842,3.732 0.513,0.511 1.023,1.012 1.525,1.534 1.756,1.796 3.481,3.622 5.147,5.468 0.059,-0.051 0.12,-0.101 0.18,-0.162 L 0,10.643 C 2.93,7.703 2.93,2.938 0,0"
             style="fill:#2f5066;fill-opacity:1;fill-rule:nonzero;stroke:none"
             id="path16109" /></g><g
           id="g16111"
           transform="translate(420.8164,78.7754)"><path
             d="m 0,0 13.908,13.907 c 8.73,8.729 22.881,8.729 31.61,0 l 27.287,-27.284 c 8.73,-8.728 8.73,-22.883 0,-31.612 L 58.896,-58.896 c -8.729,-8.729 -22.88,-8.729 -31.61,0 L 0,-31.612 C -8.73,-22.883 -8.73,-8.729 0,0"
             style="fill:#fecbaa;fill-opacity:1;fill-rule:nonzero;stroke:none"
             id="path16113" /></g><g
           id="g16115"
           transform="translate(436.0098,63.583)"><path
             d="m 0,0 13.909,13.907 c 8.729,8.729 22.881,8.729 31.61,0 L 57.611,1.815 c 8.731,-8.728 8.731,-22.882 0,-31.612 L 43.702,-43.704 c -8.728,-8.729 -22.88,-8.729 -31.609,0 L 0,-31.613 C -8.729,-22.884 -8.729,-8.729 0,0"
             style="fill:#c97f4c;fill-opacity:1;fill-rule:nonzero;stroke:none"
             id="path16117" /></g><g
           id="g16119"
           transform="translate(170.9482,437.4111)"><path
             d="m 0,0 c -5.788,-2.698 -11.446,-5.687 -16.994,-8.968 -12.7,-7.513 -24.739,-16.551 -35.864,-27.124 -1.305,-1.213 -2.579,-2.457 -3.853,-3.731 -0.512,-0.512 -1.013,-1.013 -1.515,-1.534 -1.755,-1.806 -3.481,-3.632 -5.146,-5.478 -9.892,-10.853 -18.358,-22.54 -25.431,-34.798 -3.05,-5.326 -5.848,-10.753 -8.367,-16.269 l -50.49,50.485 97.54,97.532 z"
             style="fill:#4f7693;fill-opacity:1;fill-rule:nonzero;stroke:none"
             id="path16121" /></g><g
           id="g16123"
           transform="translate(160.8379,482.8174)"><path
             d="m 0,0 35.557,-35.553 c -8.643,-2.681 -17.156,-5.97 -25.45,-9.857 -5.781,-2.692 -11.443,-5.682 -16.995,-8.961 l -18.99,18.988 c -8.175,8.174 -21.43,8.174 -29.604,0 l -42.635,-42.631 c -8.175,-8.174 -8.175,-21.427 0,-29.602 l 51.83,-51.825 c 8.458,-8.458 8.458,-22.171 0,-30.629 -8.459,-8.458 -22.174,-8.458 -30.633,0 l -56.584,56.579 c -25.21,25.207 -26.416,65.325 -3.599,91.968 1.147,1.326 2.343,2.622 3.599,3.877 L -95.854,0 c 1.385,1.386 2.831,2.711 4.306,3.947 C -64.923,26.403 -25.08,25.078 0,0"
             style="fill:#83d9ff;fill-opacity:1;fill-rule:nonzero;stroke:none"
             id="path16125" /></g><g
           id="g16127"
           transform="translate(62.7207,375.2012)"><path
             d="M 0,0 C -0.855,0.856 -1.602,1.778 -2.279,2.734 -8.064,-5.437 -7.318,-16.815 0,-24.134 l 51.83,-51.824 c 1.012,-1.013 1.896,-2.104 2.665,-3.248 5.664,8.421 4.781,19.935 -2.665,27.381 z"
             style="fill:#5fc9ed;fill-opacity:1;fill-rule:nonzero;stroke:none"
             id="path16129" /></g><g
           id="g16131"
           transform="translate(23.7354,417.1611)"><path
             d="m 0,0 c 1.146,1.325 2.343,2.621 3.599,3.877 l 37.649,37.646 c 1.386,1.385 2.831,2.711 4.307,3.947 26.625,22.457 66.467,21.131 91.548,-3.947 L 154.958,23.67 c 5.819,2.43 11.728,4.581 17.701,6.434 L 137.103,65.657 C 112.022,90.734 72.18,92.06 45.555,69.604 44.079,68.367 42.634,67.042 41.248,65.656 L 3.599,28.01 C 2.343,26.755 1.146,25.459 0,24.133 -13.633,8.215 -18.683,-12.513 -15.168,-31.998 -13.099,-20.486 -8.053,-9.403 0,0"
             style="fill:#5fc9ed;fill-opacity:1;fill-rule:nonzero;stroke:none"
             id="path16133" /></g><g
           id="g16135"
           transform="translate(118.0898,401.3193)"><path
             d="m 0,0 c -1.305,-1.213 -2.578,-2.457 -3.853,-3.731 -0.511,-0.512 -1.012,-1.013 -1.514,-1.535 -1.756,-1.805 -3.482,-3.631 -5.147,-5.477 -0.07,0.05 -0.131,0.11 -0.19,0.171 l -9.089,9.088 c -2.939,2.939 -2.939,7.704 0,10.642 2.939,2.94 7.704,2.94 10.644,0 L -0.061,0.07 C -0.04,0.051 -0.021,0.021 0,0"
             style="fill:#2f5066;fill-opacity:1;fill-rule:nonzero;stroke:none"
             id="path16137" /></g><g
           id="g16139"
           transform="translate(91.1865,433.2637)"><path
             d="m 0,0 -13.908,-13.907 c -8.73,-8.729 -22.881,-8.729 -31.611,0 l -27.286,27.284 c -8.73,8.729 -8.73,22.884 0,31.612 l 13.909,13.908 c 8.729,8.728 22.88,8.728 31.61,0 L 0,31.613 C 8.73,22.884 8.73,8.729 0,0"
             style="fill:#fecbaa;fill-opacity:1;fill-rule:nonzero;stroke:none"
             id="path16141" /></g><g
           id="g16143"
           transform="translate(73.7119,450.7373)"><path
             d="m 0,0 -13.909,-13.907 c -8.729,-8.729 -22.881,-8.729 -31.61,0 l -9.811,9.81 c -8.731,8.73 -8.731,22.884 0,31.613 l 13.908,13.908 c 8.73,8.727 22.881,8.727 31.61,0 L 0,31.613 C 8.729,22.884 8.729,8.729 0,0"
             style="fill:#c97f4c;fill-opacity:1;fill-rule:nonzero;stroke:none"
             id="path16145" /></g><g
           id="g16147"
           transform="translate(208.498,169.1611)"><path
             d="m 0,0 -36.808,-32.631 c -2.718,-2.407 -6.881,-2.156 -9.289,0.562 l -14.547,16.411 -9.981,11.255 -15.329,17.293 c -2.407,2.718 -2.156,6.871 0.561,9.279 L -48.575,54.8 c 2.719,2.407 6.872,2.156 9.279,-0.562 L -24.268,37.296 -14.285,26.03 0.562,9.289 C 2.969,6.57 2.719,2.407 0,0"
             style="fill:#ffffff;fill-opacity:1;fill-rule:nonzero;stroke:none"
             id="path16149" /></g><g
           id="g16151"
           transform="translate(391.748,318.0479)"><path
             d="m 0,0 -52.805,-46.804 c -3.192,-2.83 -8.074,-2.536 -10.904,0.657 l -38.329,43.236 c -2.831,3.192 -2.537,8.075 0.656,10.905 l 52.805,46.804 c 3.192,2.829 8.074,2.535 10.904,-0.656 L 0.656,10.905 C 3.487,7.713 3.193,2.83 0,0"
             style="fill:#ffffff;fill-opacity:1;fill-rule:nonzero;stroke:none"
             id="path16153" /></g><g
           id="g16155"
           transform="translate(194.2129,195.1914)"><path
             d="m 0,0 -46.318,-41.658 c -0.01,-0.01 -0.031,-0.021 -0.04,-0.03 l -9.982,11.254 46.308,41.66 c 0.019,0.009 0.029,0.029 0.05,0.04 z"
             style="fill:#dae2e8;fill-opacity:1;fill-rule:nonzero;stroke:none"
             id="path16157" /></g><g
           id="g16159"
           transform="translate(199.2588,63.9053)"><path
             d="m 0,0 c 68.057,-20.012 144.661,-3.169 198.352,50.526 12.811,12.821 23.535,26.934 32.152,41.93"
             style="fill:none;stroke:#000000;stroke-width:15;stroke-linecap:round;stroke-linejoin:round;stroke-miterlimit:10;stroke-dasharray:none;stroke-opacity:1"
             id="path16161" /></g><g
           id="g16163"
           transform="translate(82.1152,355.8086)"><path
             d="m 0,0 c 8.246,14.364 18.429,27.927 30.537,40.305 0.532,0.551 1.073,1.093 1.615,1.635 12.149,12.148 25.461,22.41 39.596,30.786 13.504,8.003 27.749,14.284 42.405,18.847 37.902,11.787 78.601,12.058 116.622,0.823"
             style="fill:none;stroke:#000000;stroke-width:15;stroke-linecap:round;stroke-linejoin:round;stroke-miterlimit:10;stroke-dasharray:none;stroke-opacity:1"
             id="path16165" /></g><g
           id="g16167"
           transform="translate(455.0625,278.2988)"><path
             d="M 0,0 C 2.935,-26.43 0.613,-53.334 -6.961,-79.015"
             style="fill:none;stroke:#000000;stroke-width:15;stroke-linecap:round;stroke-linejoin:round;stroke-miterlimit:10;stroke-dasharray:none;stroke-opacity:1"
             id="path16169" /></g><g
           id="g16171"
           transform="translate(355.7871,429.8379)"><path
             d="m 0,0 c 14.958,-8.606 29.043,-19.3 41.823,-32.089 12.771,-12.78 23.465,-26.853 32.073,-41.79 0.501,-0.872 0.993,-1.745 1.474,-2.628 0.442,-0.782 0.873,-1.575 1.295,-2.367 0.522,-0.973 1.043,-1.946 1.545,-2.929 0.461,-0.893 0.912,-1.776 1.353,-2.678 0.362,-0.712 0.713,-1.435 1.054,-2.147 0.352,-0.723 0.683,-1.444 1.024,-2.167 0.601,-1.294 1.204,-2.598 1.775,-3.902 0.301,-0.652 0.582,-1.304 0.853,-1.956 1.133,-2.618 2.197,-5.266 3.21,-7.924 0.261,-0.662 0.501,-1.334 0.743,-1.996 0.792,-2.137 1.534,-4.274 2.237,-6.431 0.36,-1.073 0.702,-2.146 1.033,-3.229"
             style="fill:none;stroke:#000000;stroke-width:15;stroke-linecap:round;stroke-linejoin:round;stroke-miterlimit:10;stroke-dasharray:none;stroke-opacity:1"
             id="path16173" /></g><g
           id="g16175"
           transform="translate(56.4023,274.2529)"><path
             d="m 0,0 c -2.367,-26.149 0.389,-52.676 8.268,-77.947 4.564,-14.656 10.864,-28.9 18.87,-42.392 8.366,-14.083 18.608,-27.364 30.727,-39.482 12.841,-12.85 27.006,-23.583 42.044,-32.209"
             style="fill:none;stroke:#000000;stroke-width:15;stroke-linecap:round;stroke-linejoin:round;stroke-miterlimit:10;stroke-dasharray:none;stroke-opacity:1"
             id="path16177" /></g><g
           id="g16179"
           transform="translate(447.2793,315.6045)"><path
             d="m 0,0 35.563,35.55 c 25.08,25.078 26.404,64.911 3.943,91.533"
             style="fill:none;stroke:#000000;stroke-width:15;stroke-linecap:round;stroke-linejoin:round;stroke-miterlimit:10;stroke-dasharray:none;stroke-opacity:1"
             id="path16181" /></g><g
           id="g16183"
           transform="translate(441.3096,488.249)"><path
             d="m 0,0 c -26.645,22.811 -66.763,21.606 -91.973,-3.602 l -36.446,-36.442 -20.134,-20.143 c -4.234,-4.233 -6.35,-9.77 -6.35,-15.307 0,-5.547 2.116,-11.094 6.35,-15.318 8.457,-8.456 22.17,-8.456 30.627,0 l 32.404,32.401 19.421,19.42 c 8.177,8.176 21.439,8.176 29.615,0 l 14.345,-14.345 c 0.061,-0.069 0.131,-0.14 0.202,-0.21 L -8.025,-67.449 6.14,-81.613 c 8.176,-8.175 8.176,-21.436 0,-29.602 l -18.981,-18.988"
             style="fill:none;stroke:#000000;stroke-width:15;stroke-linecap:round;stroke-linejoin:round;stroke-miterlimit:10;stroke-dasharray:none;stroke-opacity:1"
             id="path16185" /></g><g
           id="g16187"
           transform="translate(405.1738,408.3721)"><path
             d="M 0,0 -9.093,-9.092"
             style="fill:none;stroke:#000000;stroke-width:15;stroke-linecap:round;stroke-linejoin:round;stroke-miterlimit:10;stroke-dasharray:none;stroke-opacity:1"
             id="path16189" /></g><g
           id="g16191"
           transform="translate(433.2852,420.7959)"><path
             d="m 0,0 -13.909,13.907 c -8.73,8.73 -8.73,22.884 0,31.614 l 27.287,27.284 c 8.728,8.727 22.881,8.727 31.609,0 L 58.896,58.896 c 8.73,-8.728 8.73,-22.882 0,-31.612 L 31.609,0 C 22.881,-8.729 8.729,-8.729 0,0 Z"
             style="fill:none;stroke:#000000;stroke-width:15;stroke-linecap:round;stroke-linejoin:round;stroke-miterlimit:10;stroke-dasharray:none;stroke-opacity:1"
             id="path16193" /></g><g
           id="g16195"
           transform="translate(127.1689,8.6357)"><path
             d="M 0,0 C -19.573,-3.621 -40.438,1.417 -56.44,15.115"
             style="fill:none;stroke:#000000;stroke-width:15;stroke-linecap:round;stroke-linejoin:round;stroke-miterlimit:10;stroke-dasharray:none;stroke-opacity:1"
             id="path16197" /></g><g
           id="g16199"
           transform="translate(25.2539,69.3027)"><path
             d="m 0,0 v 0.01 c -22.462,26.622 -21.127,66.455 3.952,91.533 l 35.464,35.46 0.09,0.09 c 2.679,-8.637 5.969,-17.154 9.861,-25.439 2.689,-5.788 5.678,-11.445 8.959,-17.003 l -0.04,-0.04 -18.951,-18.948 c -8.176,-8.166 -8.176,-21.427 0,-29.601 L 53.5,21.897 67.415,7.994 67.485,7.924 81.972,-6.561 c 8.175,-8.175 21.427,-8.175 29.603,0 L 131.058,12.92 163.4,45.26 c 8.468,8.456 22.181,8.456 30.638,0 4.233,-4.224 6.341,-9.771 6.341,-15.318 0,-5.537 -2.108,-11.074 -6.341,-15.307 L 174.005,-5.397 137.448,-41.95 c -2.258,-2.258 -4.635,-4.323 -7.111,-6.196"
             style="fill:none;stroke:#000000;stroke-width:15;stroke-linecap:round;stroke-linejoin:round;stroke-miterlimit:10;stroke-dasharray:none;stroke-opacity:1"
             id="path16201" /></g><g
           id="g16203"
           transform="translate(106.8691,103.6279)"><path
             d="M 0,0 9.092,9.092"
             style="fill:none;stroke:#000000;stroke-width:15;stroke-linecap:round;stroke-linejoin:round;stroke-miterlimit:10;stroke-dasharray:none;stroke-opacity:1"
             id="path16205" /></g><g
           id="g16207"
           transform="translate(78.7578,91.2041)"><path
             d="m 0,0 13.908,-13.908 c 8.731,-8.73 8.731,-22.883 0,-31.613 l -27.286,-27.284 c -8.729,-8.728 -22.881,-8.728 -31.61,0 l -13.908,13.908 c -8.731,8.729 -8.731,22.883 0,31.613 L -31.61,0 C -22.881,8.728 -8.729,8.728 0,0 Z"
             style="fill:none;stroke:#000000;stroke-width:15;stroke-linecap:round;stroke-linejoin:round;stroke-miterlimit:10;stroke-dasharray:none;stroke-opacity:1"
             id="path16209" /></g><g
           id="g16211"
           transform="translate(488.2695,70.7471)"><path
             d="m 0,0 v 0.01 c 22.812,26.642 21.609,66.746 -3.602,91.954 l -36.566,36.573 -20.014,20.013 c -4.233,4.232 -9.781,6.339 -15.319,6.339 -5.547,0 -11.095,-2.107 -15.318,-6.339 -8.457,-8.467 -8.457,-22.179 0,-30.635 l 32.312,-32.301 19.523,-19.519 c 8.175,-8.176 8.175,-21.427 0,-29.602 L -53.34,22.139 -67.455,8.024 -81.62,-6.14 c -8.176,-8.174 -21.429,-8.174 -29.605,0 l -18.99,18.99 C -135.772,9.569 -141.431,6.58 -147.209,3.882 -155.506,0 -164.022,-3.29 -172.66,-5.969 l 35.553,-35.559 c 25.08,-25.078 64.917,-26.403 91.542,-3.943"
             style="fill:none;stroke:#000000;stroke-width:15;stroke-linecap:round;stroke-linejoin:round;stroke-miterlimit:10;stroke-dasharray:none;stroke-opacity:1"
             id="path16213" /></g><g
           id="g16215"
           transform="translate(408.3877,106.8818)"><path
             d="M 0,0 -9.093,9.091"
             style="fill:none;stroke:#000000;stroke-width:15;stroke-linecap:round;stroke-linejoin:round;stroke-miterlimit:10;stroke-dasharray:none;stroke-opacity:1"
             id="path16217" /></g><g
           id="g16219"
           transform="translate(420.8164,78.7754)"><path
             d="m 0,0 13.908,13.907 c 8.73,8.729 22.881,8.729 31.61,0 l 27.287,-27.284 c 8.73,-8.728 8.73,-22.883 0,-31.612 L 58.896,-58.896 c -8.729,-8.729 -22.88,-8.729 -31.61,0 L 0,-31.612 C -8.73,-22.883 -8.73,-8.729 0,0 Z"
             style="fill:none;stroke:#000000;stroke-width:15;stroke-linecap:round;stroke-linejoin:round;stroke-miterlimit:10;stroke-dasharray:none;stroke-opacity:1"
             id="path16221" /></g><g
           id="g16223"
           transform="translate(23.7393,441.2832)"><path
             d="m 0,0 c -22.823,-26.643 -21.619,-66.746 3.591,-91.954 l 36.436,-36.433 20.155,-20.152 c 4.233,-4.233 9.771,-6.34 15.308,-6.34 5.548,0 11.096,2.107 15.32,6.34 8.457,8.466 8.457,22.178 0,30.635 l -32.404,32.399 -0.03,0.03 -19.392,19.391 c -8.176,8.175 -8.176,21.426 0,29.602 L 53.54,-21.928 81.62,6.149 c 8.176,8.175 21.428,8.175 29.605,0 l 18.899,-18.898 0.091,-0.091 c 5.548,3.28 11.206,6.27 16.994,8.968 8.286,3.882 16.804,7.172 25.441,9.851 l -0.121,0.12 -35.432,35.439 C 112.017,66.616 72.18,67.94 45.555,45.48"
             style="fill:none;stroke:#000000;stroke-width:15;stroke-linecap:round;stroke-linejoin:round;stroke-miterlimit:10;stroke-dasharray:none;stroke-opacity:1"
             id="path16225" /></g><g
           id="g16227"
           transform="translate(103.6152,405.1582)"><path
             d="M 0,0 9.092,-9.092"
             style="fill:none;stroke:#000000;stroke-width:15;stroke-linecap:round;stroke-linejoin:round;stroke-miterlimit:10;stroke-dasharray:none;stroke-opacity:1"
             id="path16229" /></g><g
           id="g16231"
           transform="translate(91.1865,433.2637)"><path
             d="m 0,0 -13.908,-13.907 c -8.73,-8.729 -22.881,-8.729 -31.611,0 l -27.286,27.284 c -8.73,8.729 -8.73,22.884 0,31.612 l 13.909,13.908 c 8.729,8.728 22.88,8.728 31.61,0 L 0,31.613 C 8.73,22.884 8.73,8.729 0,0 Z"
             style="fill:none;stroke:#000000;stroke-width:15;stroke-linecap:round;stroke-linejoin:round;stroke-miterlimit:10;stroke-dasharray:none;stroke-opacity:1"
             id="path16233" /></g><g
           id="g16235"
           transform="translate(162.4014,137.0918)"><path
             d="m 0,0 -39.853,44.954 c -2.409,2.719 -2.159,6.876 0.56,9.285 L -2.479,86.87 c 2.719,2.409 6.875,2.159 9.285,-0.558 L 46.658,41.357 c 2.409,-2.718 2.159,-6.876 -0.559,-9.285 L 9.284,-0.559 C 6.566,-2.968 2.409,-2.718 0,0 Z"
             style="fill:none;stroke:#000000;stroke-width:15;stroke-linecap:round;stroke-linejoin:round;stroke-miterlimit:10;stroke-dasharray:none;stroke-opacity:1"
             id="path16237" /></g><g
           id="g16239"
           transform="translate(391.748,318.0479)"><path
             d="m 0,0 -52.805,-46.804 c -3.192,-2.83 -8.074,-2.536 -10.904,0.657 l -38.329,43.236 c -2.831,3.192 -2.537,8.075 0.656,10.905 l 52.805,46.804 c 3.192,2.829 8.074,2.535 10.904,-0.656 L 0.656,10.905 C 3.487,7.713 3.193,2.83 0,0 Z"
             style="fill:none;stroke:#000000;stroke-width:15;stroke-linecap:round;stroke-linejoin:round;stroke-miterlimit:10;stroke-dasharray:none;stroke-opacity:1"
             id="path16241" /></g><g
           id="g16243"
           transform="translate(189.2168,200.8242)"><path
             d="M 0,0 -46.357,-41.696"
             style="fill:none;stroke:#000000;stroke-width:15;stroke-linecap:round;stroke-linejoin:round;stroke-miterlimit:10;stroke-dasharray:none;stroke-opacity:1"
             id="path16245" /></g></g></g></g></svg>
