<svg fill="none" height="512" viewBox="0 0 20 20" width="512" xmlns="http://www.w3.org/2000/svg" xmlns:xlink="http://www.w3.org/1999/xlink"><linearGradient id="paint0_linear_3139_255" gradientUnits="userSpaceOnUse" x1="10" x2="10" y1="0" y2="20"><stop offset="0" stop-color="#ee9ae5"/><stop offset="1" stop-color="#5961f9"/></linearGradient><path clip-rule="evenodd" d="m0 10c0-5.514 4.486-10 10-10s10 4.486 10 10-4.486 10-10 10-10-4.486-10-10zm8.414-1.00003 1.293-1.293c.09284-.09284.16649-.20307.21674-.32437.05025-.12131.07611-.25133.07611-.38263s-.02586-.26132-.07611-.38262c-.05025-.12131-.1239-.23153-.21674-.32438-.09285-.09284-.20307-.16649-.32437-.21674-.12131-.05025-.25133-.07611-.38263-.07611s-.26132.02586-.38263.07611c-.1213.05025-.23153.1239-.32437.21674l-3 3c-.09319.09265-.16713.20281-.2176.32415-.05046.12133-.07643.25144-.07643.38285 0 .13143.02597.26153.07643.38283.05047.1214.12441.2315.2176.3242l3 3c.09284.0928.20307.1665.32437.2167.12131.0503.25133.0761.38263.0761s.26132-.0258.38263-.0761c.1213-.0502.23152-.1239.32437-.2167.09284-.0929.16649-.2031.21674-.3244s.07611-.2513.07611-.3826-.02586-.2613-.07611-.3827c-.05025-.1213-.1239-.2315-.21674-.3243l-1.293-1.293h5.586c.2652 0 .5196-.1054.7071-.2929.1875-.1876.2929-.4419.2929-.70713 0-.26522-.1054-.51957-.2929-.70711-.1875-.18753-.4419-.29289-.7071-.29289z" fill="url(#paint0_linear_3139_255)" fill-rule="evenodd"/></svg>