<svg width="16" height="17" viewBox="0 0 16 17" fill="none" xmlns="http://www.w3.org/2000/svg">
<g clip-path="url(#clip0_175_448)">
<path d="M14.0002 14.3258L11.0095 11.3298L14.0002 14.3258ZM12.6668 7.32585C12.6668 8.82874 12.0698 10.2701 11.0071 11.3328C9.9444 12.3955 8.50306 12.9925 7.00016 12.9925C5.49727 12.9925 4.05593 12.3955 2.99322 11.3328C1.93052 10.2701 1.3335 8.82874 1.3335 7.32585C1.3335 5.82295 1.93052 4.38161 2.99322 3.31891C4.05593 2.2562 5.49727 1.65918 7.00016 1.65918C8.50306 1.65918 9.9444 2.2562 11.0071 3.31891C12.0698 4.38161 12.6668 5.82295 12.6668 7.32585V7.32585Z" stroke="black" stroke-width="1.5" stroke-linecap="round" stroke-linejoin="round"/>
</g>
<defs>
<clipPath id="clip0_175_448">
<rect width="16" height="16" fill="white" transform="translate(0 0.325684)"/>
</clipPath>
</defs>
</svg>
