<svg width="25" height="25" viewBox="0 0 25 25" fill="none" xmlns="http://www.w3.org/2000/svg">
<path d="M11.4165 4.65137H4.4165C3.88607 4.65137 3.37736 4.86208 3.00229 5.23715C2.62722 5.61223 2.4165 6.12093 2.4165 6.65137V20.6514C2.4165 21.1818 2.62722 21.6905 3.00229 22.0656C3.37736 22.4407 3.88607 22.6514 4.4165 22.6514H18.4165C18.9469 22.6514 19.4556 22.4407 19.8307 22.0656C20.2058 21.6905 20.4165 21.1818 20.4165 20.6514V13.6514" stroke="#624DE3" stroke-width="2" stroke-linecap="round" stroke-linejoin="round"/>
<path d="M18.9165 3.15159C19.3143 2.75377 19.8539 2.53027 20.4165 2.53027C20.9791 2.53027 21.5187 2.75377 21.9165 3.15159C22.3143 3.54942 22.5378 4.08898 22.5378 4.65159C22.5378 5.2142 22.3143 5.75377 21.9165 6.15159L12.4165 15.6516L8.4165 16.6516L9.4165 12.6516L18.9165 3.15159Z" stroke="#624DE3" stroke-width="2" stroke-linecap="round" stroke-linejoin="round"/>
</svg>
