<?xml version="1.0" encoding="UTF-8"?>
<svg version="1.1" viewBox="0 0 2048 2048" width="1280" height="1280" xmlns="http://www.w3.org/2000/svg">
<path transform="translate(1191)" d="m0 0h49l28 5 20 5 21 7 20 9 17 9 18 12 13 10 14 12 13 13 9 11 8 10 12 18 10 18 9 19 10 30 6 28 3 30 3 3 36 16 82 36 27 12 10 5 4 8 9 43 40 188 7 34 9 56 11 81 6 51 5 49v7l5 2 23 13 23 15 19 13 14 11 16 13 14 12 15 14 27 27 7 8 12 14 11 14 14 18 16 23 12 19 13 22 15 28 15 32 11 27 10 28 8 25 8 30 6 27 6 34 6 48 2 20v75l-5 49-6 40-6 31-10 39-11 35-13 34-11 25-12 25-12 23-13 22-14 22-20 28-11 14-9 11-12 14-11 12-16 17-3 1v2l-8 7-9 9-11 9-10 9-17 13-16 12-12 8-22 14-23 13-21 11-29 13-26 10-29 9-32 8-38 7-38 5h-68l-22-3-40-6-36-8-39-12-22-8-25-3-128-11-485-42-472-41-8-2-3-5 1-6 10-14 10-13 13-17 14-18 12-16 16-21 3-4-2-1-119-11-9-2-4-7 2-5 7-8 10-9 8-8h2l1-3 8-7 12-12 8-7 14-14 8-7 13-13 8-7 10-10 8-7 8-8 6-5 1-2-168-19-68-8-6-3-1-1v-9l13-10 18-13 11-9 14-11 10-9 11-9 17-16 9-9h2l2-4h2l2-4 21-21 7-8 13-15 9-11 11-13 20-26 10-14 12-17 10-15 11-17 13-21 10-17 9-16 13-24 10-19 11-22 13-28 15-34 11-27 11-29 11-30 12-36 11-35 14-50 10-40 14-63 8-43 8-50 4-33 2-42 4-134v-28l-13-19-10-17-11-23-8-23-6-24-3-18-2-24v-13l2-26 4-23 6-23 9-24 9-19 10-17 14-20 12-14 12-13 11-10 17-13 18-12 18-10 17-8 20-7 22-6 24-4 12-1h35l25 3 23 5 20 6 24 10 21 11 18 12 13 10 14 12 16 16 9 11 11 15 11 18 10 19 9 23 6 20 26-5 37-8 3-1-3-36v-20l2-21 4-23 7-25 8-21 8-17 10-17 11-16 9-11 12-14 11-11 22-18 18-12 16-9 21-10 20-7 22-6 22-4zm15 105-21 3-21 6-16 7-18 11-10 8-10 9-11 12-7 10-9 15-8 18-4 13-4 22v32l1 6 9-1 282-60 1-3-8-21-8-15-11-16-12-13-12-11-15-10-17-9-19-7-16-4-17-2zm-562 122-18 2-17 4-17 6-19 10-14 10-14 12-9 10-11 15-12 23-6 18-4 18-1 8v27l1 8 8-1 103-22 173-37 8-3-7-19-10-19-10-14-9-10-10-10-15-11-16-9-13-6-15-5-20-4-11-1z" fill="#040307"/>
<path transform="translate(1374,229)" d="m0 0h3l4 15 25 110 20 89 14 61v7l-248 53-108 23-375 80-59 13-7 3-1 8 2 4h10l115-24 107-23 539-115 24-5 5 1 7 49 6 57 3 44 1 21 1 40v34l-3 1-36 3-29 4-35 7-29 8-33 11-29 12-33 16-18 10-26 16-16 11-19 14-16 13-13 11-12 11-8 7-23 23-7 8-9 10-9 11-13 16-8 11-10 14-12 18-13 21-14 25-9 17-13 28-13 32-12 34-10 34-8 34-7 38-5 40-2 26-1 27v34l2 36 3 31 5 34 7 36 9 35 9 29 7 20 11 29 11 24 1 5h-10l-134-15-459-52-333-38-4-1 1-3 9-6 14-11 11-9 15-13 10-9 12-11 35-35 7-8 13-14 9-11 12-14 10-13 16-21 13-18 13-19 15-23 15-24 16-28 12-22 11-20 11-23 15-31 21-49 14-35 16-44 19-58 12-42 10-37 13-56 13-65 8-48 5-39 1-10 2-57 2-81 1-29 1-12h3l11 11 11 9 16 12 13 8 16 9 19 9 27 9 21 5 7 1 1 3-11 9-14 10-5 5 1 7 5 3 6-1 12-8 10-8 10-9 11-14 8-16 4-13 2-11v-20l-5-25-8-21-10-19-8-12-10-13-5-5-6-1-4 4-1 6 10 14 9 13 6 10 2 4v4l-8-1-20-7-16-8-14-9-10-8-10-9-7-8-11-15-9-16-8-20-1-8 10-3 394-84 52-11 5-1 2 1 7 23 10 24 11 21 9 14 12 16 12 14 15 15 11 9 13 10 15 10 29 15 24 9 26 7 14 3-1 4-11 9-13 9-5 5 1 7 3 3h6l14-9 11-9 10-9 9-12 7-12 6-18 2-14v-15l-3-18-5-16-6-15-10-19-11-16-9-11-2-2h-8l-3 4 1 7 8 11 14 21 4 8v2l-8-1-21-7-16-8-16-10-10-9-8-7-9-10-11-16-10-19-6-16 1-5 16-4 239-51 43-9z" fill="#FBFBFB"/>
<path transform="translate(1386,888)" d="m0 0h15l29 2 26 4 32 8 20 7 26 11 19 10 18 11 12 8 16 12 10 8 13 11 15 14 13 13 7 8 9 10 8 10 10 13 12 17 11 17 12 20 13 24 13 28 12 30 12 36 9 32 8 38 5 32 4 39 1 17v69l-3 38-6 42-7 35-8 31-9 29-11 30-13 30-15 30-14 24-12 19-10 14-9 12-8 10-9 11-10 11-7 8-17 17-8 7-13 11-20 15-21 14-16 9-21 11-25 10-24 8-27 6-27 4-12 1h-37l-29-3-26-5-25-7-27-10-24-11-23-13-15-10-14-10-16-13-8-7-13-12-6-5-7-8-11-11-7-8-14-17-14-19-16-24-13-22-13-24-12-26-13-33-12-36-7-26-8-36-6-36-4-38-1-15v-74l3-37 5-37 7-36 9-36 11-35 10-26 11-26 15-30 12-21 12-19 14-20 12-16 11-13 9-10 7-8 24-24 11-9 13-11 18-13 17-11 18-10 15-8 21-9 20-7 21-6 30-6 19-2z" fill="#BAEAFD"/>
<path transform="translate(1456,792)" d="m0 0h42l36 3 28 4 34 7 32 9 26 9 29 12 31 15 24 14 18 11 19 13 21 16 11 9 14 12 16 15 25 25 7 8 10 11 9 11 14 18 12 17 14 21 11 18 13 23 11 21 15 33 13 34 12 37 8 30 6 27 5 28 4 29 3 35 1 20v53l-3 43-5 39-7 37-9 36-11 35-10 28-14 33-16 33-10 18-10 17-14 22-11 16-12 16-10 13-11 13-7 8-9 10-14 15-11 11-8 7-14 13-14 11-16 13-19 13-18 12-15 9-24 13-24 12-24 10-25 9-25 8-30 7-28 5-34 4-11 1h-60l-44-5-27-5-25-6-24-7-29-10-26-11-25-12-20-11-20-12-21-14-19-14-14-11-14-12-11-10-8-7-27-27-7-8-12-14-11-14-13-17-14-20-11-17-15-25-17-33-13-28-13-33-12-36-7-24-7-28-6-31-5-35-3-31-2-38v-27l2-39 4-38 6-37 6-28 9-35 14-43 11-28 15-33 14-28 16-27 12-19 13-19 14-18 10-13 10-11 9-11 12-12 7-8 7-7 8-7 8-8 8-7 13-11 18-14 14-10 18-12 21-13 22-12 24-12 24-10 25-9 25-8 28-7 32-6 23-3zm-70 96-29 2-24 4-25 6-22 7-15 6-24 11-25 14-12 8-14 10-13 10-14 12-12 11-7 6-7 8-8 8-9 11-9 10-10 13-13 18-13 20-9 15-13 24-11 22-14 34-11 31-10 35-7 30-6 33-5 40-2 28v74l3 35 4 31 5 29 9 38 9 31 9 26 13 32 12 26 12 22 16 27 11 16 11 15 11 14 11 13 12 13 24 24 8 7 13 11 16 12 15 10 15 9 18 10 25 11 28 10 28 7 24 4 22 2h37l28-3 29-6 15-4 29-10 24-11 24-13 24-16 17-13 11-9 11-10 8-7 17-17 7-8 11-13 11-14 14-19 11-17 12-20 12-22 12-24 13-31 12-34 9-31 8-34 6-33 4-30 3-38v-69l-2-29-5-41-7-38-7-29-9-31-10-29-14-34-8-17-10-19-10-18-14-22-11-16-12-16-14-17-11-12-9-10-15-15-8-7-14-12-16-12-13-9-19-12-24-13-26-11-24-8-28-7-26-4-29-2z" fill="#504F89"/>
<path transform="translate(1374,229)" d="m0 0h3l4 15 25 110 20 89 14 61v7l-248 53-108 23-375 80-59 13-7 3-2 7-14 3-29 7-42 9-81 17-11 2-2 1v-25l2-68 2-69 1-12h3l11 11 11 9 16 12 13 8 16 9 19 9 27 9 21 5 7 1 1 3-11 9-14 10-5 5 1 7 5 3 6-1 12-8 10-8 10-9 11-14 8-16 4-13 2-11v-20l-5-25-8-21-10-19-8-12-10-13-5-5-6-1-4 4-1 6 10 14 9 13 6 10 2 4v4l-8-1-20-7-16-8-14-9-10-8-10-9-7-8-11-15-9-16-8-20-1-8 10-3 394-84 52-11 5-1 2 1 7 23 10 24 11 21 9 14 12 16 12 14 15 15 11 9 13 10 15 10 29 15 24 9 26 7 14 3-1 4-11 9-13 9-5 5 1 7 3 3h6l14-9 11-9 10-9 9-12 7-12 6-18 2-14v-15l-3-18-5-16-6-15-10-19-11-16-9-11-2-2h-8l-3 4 1 7 8 11 14 21 4 8v2l-8-1-21-7-16-8-16-10-10-9-8-7-9-10-11-16-10-19-6-16 1-5 16-4 239-51 43-9z" fill="#F39CAE"/>
<path transform="translate(992,804)" d="m0 0h40l18 3 16 6 10 7 8 9 5 10 3 12v13l-4 15-6 11-10 14-12 14-9 10-16 17-12 13-7 7-7 8-7 7-7 8-9 9-7 8-14 15-7 8-11 13-9 11-14 18-14 19-10 14-12 17-14 22-15 26-8 14-17 33-17 35-13 30-11 29-9 27-12 44-17 69-9 32-8 23-11 26-10 17-10 13-9 10-14 11-17 9-20 6-13 2h-28l-18-4-12-5-11-7-11-10-7-10-6-12-5-19-1-7v-22l3-23 6-27 11-35 12-31 11-26 12-26 14-29 12-23 13-24 14-24 16-27 24-38 30-45 10-13 12-17 12-16 11-14 13-17 11-13 9-11 11-13 12-14 12-13 7-8 9-10 15-16 5-6 4-4-2 1-87 8-144 14-56 5h-35l-16-3-12-5-9-6-6-7-4-8-2-6v-22l4-15 6-11 9-10 10-7 16-7 17-5 20-4 30-4 212-24 153-17z" fill="#504F89"/>
<path transform="translate(266,1648)" d="m0 0 16 1 477 54 222 25 5 3 13 24 11 18 14 22 11 15 14 19 12 14 6 8 1 4-819-75-86-8-23-2 2-4 10-10 8-7 13-13 8-7 11-11 8-7 12-12 8-7 15-15 8-7 12-12 8-7z" fill="#E3DBDF"/>
<path transform="translate(265,1799)" d="m0 0 48 4 121 11 653 60 5 4 7 8 7 7 8 7 8 8 11 9 13 11 17 13 18 13 17 11 20 12 12 7 4 2-2 2-529-46-484-42-28-2 2-5 9-12 20-26 32-42z" fill="#E3DBDF"/>
<path transform="translate(1362,968)" d="m0 0 8 1 6 7 4 11 4 19 5 40 4 48 4 70 4 95 10 21 6 19 3 20v23l-3 21 1 7 13 16 8 11 11 14 14 18 12 16 16 21 14 19 16 21 13 18 14 19 12 17 14 20 12 17 21 32 11 18 9 16 4 11-1 8-4 5-4 2-8-1-14-7-19-13-18-14-14-11-10-9-11-9-15-13-14-12-12-11-8-7-10-9-2-1v-2l-4-2-15-14-8-7-24-22-7-7-8-7-16-15-13-12-17-16-7-6-9 3-16 4h-19l-10-2-11-4-12-7-12-11-9-11-8-14-5-12-5-18-2-15v-22l3-23 5-19 8-20 9-16 9-12 11-12 12-10 14-8 2-8 11-72 10-60 11-57 10-42 5-15 5-8z" fill="#050408"/>
<path transform="translate(1212,17)" d="m0 0 25 1 26 4 24 6 22 8 17 8 17 10 17 12 11 9 10 9 12 12 9 11 9 12 12 19 11 22 7 18 6 22 4 19 2 20-3 1-24-11-21-9-17-7-8-1-3-1-7-19-9-19-12-18-11-13-14-14-13-10-17-10-17-8-15-5-17-4-15-2h-31l-22 4-20 6-16 7-17 10-14 11-13 12-12 13-14 21-8 16-8 24-3 14-2 21v16l3 23 6 23 10 23 9 15 10 13 11 12 8 8 17 13 19 11 20 8 23 6 9 2 3 8 3 16v19l-4 16-5 11h-9l-25-5-26-8-18-8-23-12-16-11-11-9-10-9-7-6-7-8-10-11-10-14-7-11-9-16-8-18-7-20-5-18-4-24-1-11v-35l3-21 5-23 10-30 10-21 10-17 10-14 9-11 11-12 12-12 14-11 14-10 21-12 15-7 25-9 24-6 21-3z" fill="#504F89"/>
<path transform="translate(626,140)" d="m0 0h45l23 3 25 6 17 6 18 8 21 11 12 8 16 12 10 9 19 19 13 17 10 15 13 25 10 26 2 7v6l-6 2-56 12h-6l-8-21-12-23-12-16-12-14-10-9-15-11-16-9-15-7-18-6-21-4-8-1h-30l-18 3-19 5-15 6-19 10-15 11-10 9-8 7-9 10-12 17-10 18-8 21-4 16-3 24v17l3 23 5 19 6 16 8 17 10 15 7 9 9 10 8 8 14 11 14 9 21 10 22 7 18 4 3 9 3 19v10l-3 14-6 16-1 2h-10l-27-6-27-9-29-14-14-9-14-10-13-11-10-9-12-13-12-16-10-15-14-27-9-24-6-23-4-24-1-10v-32l3-22 5-23 10-30 12-25 11-18 11-15 9-10 7-8 11-11 14-11 14-10 15-9 15-8 25-10 25-7z" fill="#504F89"/>
<path transform="translate(1374,871)" d="m0 0h43l27 3 26 5 25 7 25 9 20 9 20 10 17 10 15 10 11 8 17 13 15 13 7 7 8 7 8 8 7 8 12 13 11 14 12 15 20 30 12 20 12 22 12 24 10 23 11 29 12 37 9 36 7 37 5 37 3 38 1 17v43l-2 35-3 29-6 40-9 41-7 24-5 17-9 26-13 32-16 33-9 17-13 22-16 24-12 16-13 17-11 12-7 8-16 17-24 22-26 20-15 10-20 12-23 12-23 10-33 11-26 6-25 4-20 2h-33l-24-2-29-5-21-5-22-7-16-6-20-9-23-12-22-14-14-10-13-10-11-9-13-12-8-7-19-19-7-8-12-14-11-14-13-18-15-23-15-26-14-27-11-24-11-28-13-38-10-38-7-35-5-33-4-41-1-25v-46l2-35 4-36 7-41 6-27 8-30 12-36 10-26 15-33 14-27 15-25 10-15 12-17 10-13 11-13 9-11 11-11 7-8 7-7 8-7 10-9 11-9 20-15 12-8 23-14 17-9 28-12 30-10 21-5 21-4zm12 17-29 2-24 4-25 6-22 7-15 6-24 11-25 14-12 8-14 10-13 10-14 12-12 11-7 6-7 8-8 8-9 11-9 10-10 13-13 18-13 20-9 15-13 24-11 22-14 34-11 31-10 35-7 30-6 33-5 40-2 28v74l3 35 4 31 5 29 9 38 9 31 9 26 13 32 12 26 12 22 16 27 11 16 11 15 11 14 11 13 12 13 24 24 8 7 13 11 16 12 15 10 15 9 18 10 25 11 28 10 28 7 24 4 22 2h37l28-3 29-6 15-4 29-10 24-11 24-13 24-16 17-13 11-9 11-10 8-7 17-17 7-8 11-13 11-14 14-19 11-17 12-20 12-22 12-24 13-31 12-34 9-31 8-34 6-33 4-30 3-38v-69l-2-29-5-41-7-38-7-29-9-31-10-29-14-34-8-17-10-19-10-18-14-22-11-16-12-16-14-17-11-12-9-10-15-15-8-7-14-12-16-12-13-9-19-12-24-13-26-11-24-8-28-7-26-4-29-2z" fill="#050408"/>
<path transform="translate(1396,235)" d="m0 0 5 1 82 36 36 16 41 18 43 19 12 6 4 13 25 118 18 84 6 27v3l-7-1-34-11-108-34-44-14-16-5-2-2-11-49-18-80-31-136z" fill="#F78290"/>
<path transform="translate(992,804)" d="m0 0h40l18 3 16 6 10 7 8 9 5 10 3 12v13l-4 15-6 11-10 14-12 14-9 10-16 17-12 13-7 7-7 8-7 7-7 8-9 9-7 8-14 15-7 8-11 13-9 11-14 18-14 19-10 14-12 17-14 22-15 26-8 14-17 33-17 35-13 30-11 29-9 27-12 44-17 69-9 32-8 23-11 26-10 17-10 13-9 10-14 11-17 9-20 6-13 2h-28l-18-4-12-5-11-7-11-10-7-10-6-12-5-19-1-7v-22l3-23 6-27 11-35 12-31 11-26 12-26 14-29 12-23 13-24 14-24 16-27 24-38 30-45 10-13 12-17 12-16 11-14 13-17 11-13 9-11 11-13 12-14 12-13 7-8 9-10 15-16 5-6 4-4-2 1-87 8-144 14-56 5h-35l-16-3-12-5-9-6-6-7-4-8-2-6v-22l4-15 6-11 9-10 10-7 16-7 17-5 20-4 30-4 212-24 153-17zm13 17-27 2-103 11-42 5-89 10-82 9-68 8-29 5-19 5-15 6-8 6-7 8-4 8-2 8v17l4 8 8 7 11 4 12 2h29l281-27 24-2h16l3 5-2 6-9 11-24 24-7 8-15 16-7 8-10 11-9 11-8 9-9 11-11 13-22 28-10 13-28 38-19 28-12 18-15 24-13 21-13 23-9 16-10 18-14 27-19 38-13 29-11 27-9 24-8 26-6 24-4 25v21l3 16 6 14 7 9 7 7 14 8 13 4 6 1h24l17-3 16-6 11-6 13-11 9-11 10-15 11-23 12-35 14-54 16-63 12-40 9-25 13-31 13-29 17-35 15-28 16-27 11-18 19-28 13-18 9-12 14-18 13-16 12-14 18-20 14-15 9-9 7-8 8-8 7-8 16-17 12-13 11-12 9-11 11-16 5-11 1-3v-13l-4-10-5-7-11-7-13-4-20-2z" fill="#040306"/>
<path transform="translate(1327,1242)" d="m0 0h21l14 5 13 9 9 10 8 13 6 15 4 17 1 7v26l-5 26-7 20-10 19-9 12-10 11-12 9-16 8-12 3h-16l-11-3-12-6-10-9-7-8-8-14-6-16-3-14-1-9v-21l3-20 6-21 8-18 9-14 8-10 10-10 15-10 16-6z" fill="#F29CAE"/>
<path transform="translate(1610,577)" d="m0 0 6 1 25 8 29 9 2 2 6 36 9 63 8 65 7 64-9-3-26-11-21-8-18-6-2-1-2-31-4-65-5-62-5-51z" fill="#E3DBDF"/>
<path transform="translate(1409,1389)" d="m0 0 3 1 7 10 12 15 10 13 13 17 10 13 12 16 14 19 10 13 14 19 11 15 26 36 13 19 10 14 13 20 12 19 8 14-2 1-11-8-10-8-14-11-13-11-10-8-14-12-11-9-15-14-11-9-15-14-8-7-12-11-8-7-13-12-15-14-52-48-5-4-3-4v-3l9-7 8-8 9-12 8-12z" fill="#504F89"/>
<path transform="translate(1526,550)" d="m0 0 39 12 25 8 1 1 5 48 6 71 5 78 1 23-11-2-27-6-18-3-1-2-4-50-4-41-7-63-9-63z" fill="#E3DBDF"/>
<path transform="translate(1462,530)" d="m0 0 11 3 32 10 2 2 7 46 7 53 7 64 6 69h-11l-14-1-29-1-2-73-2-41-4-49-5-42-5-36z" fill="#E3DBDF"/>
<path transform="translate(1363 1e3)" d="m0 0 2 1 3 17 4 36 4 50 4 74 2 45v15l-6-2-14-7-9-3-7-1h-24l3-22 10-65 9-52 12-60 6-25z" fill="#504F89"/>
<path transform="translate(1610,577)" d="m0 0 6 1 25 8 29 9 2 2 6 36 9 63 8 65 7 64-9-3-26-11-21-8-18-6-2-1-2-31-4-65-5-62-5-51zm16 13-5 2-1 7 1 24 3 30 2 44 3 32v14l1 10 2 22v7l3 7 5 5h4v2l14 5 9 4h4v2l7 1v2l5 2h6l2-2v-13l-9-72-7-47-2-14-5-30-3-19-3-8-2-4-4-1v-2l-20-7-9-3z" fill="#F9F9F9"/>
<path transform="translate(266,1648)" d="m0 0 16 1 1 2-11 1-5 5-8 9-8 10-5 5h-2l-2 4-20 20h-2l-1 3-5 4-7 8-6 5-19 19-5 4h-2l-1 3-7 6-1 3h-2l1 5 9 3 5 1 9 1 1 2h-13l-27-1-9-1 2-4 10-10 8-7 13-13 8-7 11-11 8-7 12-12 8-7 15-15 8-7 12-12 8-7z" fill="#FAFAFA"/>
<path transform="translate(1462,530)" d="m0 0 11 3 32 10 2 2 7 46 5 36 1 25h-3l-1-6-1-9v-12l-3-6-1-9 1-13h-2l-3-8-3-21-2-10-3-6v-2h-3v-2l-15-5h-6l-3 1v8l1 9 1 7 1 10 2 12v29h2l1 24 1 3v14l-1 7-2-1v-5h-2l-4-49-5-42-5-36z" fill="#F8F7F7"/>
<path transform="translate(692,1697)" d="m0 0h14l44 5 2 1v2l-7 1-31-3-32-4v-1z" fill="#F8F7F7"/>
<path transform="translate(479,1673)" d="m0 0h15l44 5 2 1v2l-7 1-31-3-16-2-12-2v-1z" fill="#F8F7F8"/>
<path transform="translate(468,554)" d="m0 0 2 2h-2v8h2l2 4-1 7-2 8-1 32-2 19h-1v-38l1-29 1-12z" fill="#BD708E"/>
<path transform="translate(613,508)" d="m0 0 3 3 5 9v4l-8-1-9-3v-1l5-1-3-3-1-4z" fill="#DA7A90"/>
<path transform="translate(1178,386)" d="m0 0 4 4 5 10v2l-8-1-10-3v-1h8l-7-4 3-5z" fill="#D77990"/>
<path transform="translate(692,1697)" d="m0 0h14l12 2 1 2 7 1v1h-12l-32-4v-1z" fill="#F9F8F8"/>
<path transform="translate(479,1673)" d="m0 0h15l12 2 1 2 7 1v1h-12l-16-2-12-2v-1z" fill="#F9F8F8"/>
<path transform="translate(1250,1337)" d="m0 0h1v51h-1l-2-15v-21z" fill="#AB6A8D"/>
<path transform="translate(551,1681)" d="m0 0h13l10 1 2 2-4 2-16-1-14-2v-1z" fill="#F8F7F8"/>
<path transform="translate(467,593)" d="m0 0h1v22l-2 19h-1v-38z" fill="#B36D8D"/>
<path transform="translate(659,1693)" d="m0 0h11l10 1 2 2-2 2-16-1-13-2v-1z" fill="#F8F7F7"/>
<path transform="translate(445,1669)" d="m0 0h13l12 2-1 2-6 1-21-2-1-2z" fill="#F8F7F7"/>
<path transform="translate(623,1689)" d="m0 0h12l9 1 2 2-3 2-13-1-14-2v-1z" fill="#F8F6F7"/>
<path transform="translate(411,1665)" d="m0 0h12l9 1 2 2-5 1h-13l-11-2v-1z" fill="#F7F6F7"/>
<path transform="translate(588,1685)" d="m0 0h11l9 1 2 2-7 2-21-3v-1z" fill="#F7F6F6"/>
<path transform="translate(763,1705)" d="m0 0h12l9 1 2 2-6 1h-12l-10-2v-1z" fill="#F7F5F6"/>
<path transform="translate(376,1661)" d="m0 0h11l9 1 2 2-2 1h-13l-13-2v-1z" fill="#F7F5F6"/>
<path transform="translate(1480,759)" d="m0 0 5 1 1 9-1 5-5-1z" fill="#FCFCFC"/>
<path transform="translate(1516,625)" d="m0 0 2 4 2 18v5h-3l-1-6-1-9z" fill="#FCFCFC"/>
<path transform="translate(800,1709)" d="m0 0h10l9 1 1 2-7 1-16-1-3-2z" fill="#F6F4F5"/>
<path transform="translate(557,1806)" d="m0 0h24l5 2v1h-20l-1-1-8-1z" fill="#F7F6F6"/>
<path transform="translate(602,1810)" d="m0 0h23l5 2v1h-20v-2h-8z" fill="#F7F5F6"/>
<path transform="translate(470,1798)" d="m0 0h24l4 3h-19l-1-1-8-1z" fill="#F7F5F6"/>
<path transform="translate(777,1826)" d="m0 0h22l5 2v1h-19l-8-2z" fill="#F8F6F7"/>
<path transform="translate(646,1814)" d="m0 0h22l5 2v1h-19l-1-1-7-1z" fill="#F7F6F7"/>
<path transform="translate(1521,667)" d="m0 0 2 4 1 10v7l-2 1-2-3v-18z" fill="#FCFCFC"/>
<path transform="translate(690,1818)" d="m0 0h22l4 3h-18l-1-1-7-1z" fill="#F7F5F6"/>
<path transform="translate(733,1822)" d="m0 0h22l5 2v1h-19v-2h-8z" fill="#F7F6F7"/>
<path transform="translate(515,1802)" d="m0 0h21l5 2v1h-19v-2h-7z" fill="#F7F6F6"/>
<path transform="translate(830,1714)" d="m0 0h25l1 2-13 1-13-2z" fill="#F8F6F7"/>
<path transform="translate(1297,1449)" d="m0 0h13l17 1v1l-5 1h-16l-9-2z" fill="#9E668C"/>
<path transform="translate(342,1658)" d="m0 0h20l1 2-13 1-8-2z" fill="#F8F6F7"/>
<path transform="translate(866,1718)" d="m0 0h25l1 2-12 1-14-2z" fill="#F7F6F6"/>
<path transform="translate(140,1768)" d="m0 0h11l10 2v1h-12l-9-1z" fill="#E3D9DD"/>
<path transform="translate(718,1699)" d="m0 0 14 1-4 2h-12z" fill="#E3DBDF"/>
<path transform="translate(506,1675)" d="m0 0 14 1v1l-5 1h-12z" fill="#E3DCDF"/>
<path transform="translate(433,1794)" d="m0 0h15l2 2-4 1-13-2z" fill="#FCFCFC"/>
<path transform="translate(967,316)" d="m0 0v3l-3 2-10-1v-1z" fill="#BA708F"/>
</svg>
