<svg xmlns="http://www.w3.org/2000/svg" enable-background="new 0 0 512 512" viewBox="0 0 512 512" id="menu"><polygon fill="#FFD466" points="376 72 376 24 104 72 104 488 408 488 408 72"></polygon><polygon fill="#856E35" points="104 72 376 72 376 24"></polygon><path fill="#295966" d="M127.993,256.001c-1.357,0-2.733-0.346-3.993-1.073c-3.826-2.209-5.137-7.102-2.928-10.928l48-83.139
		c2.209-3.827,7.102-5.138,10.928-2.928c3.826,2.209,5.137,7.102,2.928,10.928l-48,83.139
		C133.446,254.566,130.757,256.001,127.993,256.001z"></path><ellipse cx="188" cy="144.077" fill="#E8775D" rx="32" ry="24" transform="rotate(-60 188.002 144.083)"></ellipse><path fill="#295966" d="M384.007,256.001c-2.765,0-5.454-1.435-6.936-4.001l-48-83.139c-2.209-3.826-0.898-8.719,2.928-10.928
		c3.827-2.209,8.719-0.898,10.928,2.928l48,83.139c2.209,3.826,0.898,8.719-2.928,10.928
		C386.74,255.655,385.365,256.001,384.007,256.001z"></path><path fill="#E8775D" d="M324.052,176.091c-2.78,0-5.578-0.365-8.334-1.104c-8.256-2.212-15.157-7.507-19.431-14.909l-12-20.785
		c-2.209-3.826-0.898-8.719,2.928-10.929c3.826-2.206,8.719-0.897,10.928,2.929l12,20.785c2.137,3.701,5.587,6.349,9.715,7.455
		c4.128,1.104,8.439,0.537,12.141-1.599c3.702-2.138,6.349-5.588,7.456-9.716c1.106-4.128,0.538-8.439-1.599-12.141l-12-20.785
		c-2.209-3.826-0.898-8.719,2.928-10.929c3.826-2.206,8.719-0.897,10.928,2.929l12,20.785c4.274,7.402,5.409,16.025,3.197,24.282
		c-2.212,8.256-7.507,15.157-14.91,19.431C335.069,174.637,329.597,176.091,324.052,176.091z"></path><path fill="#E8775D" d="M336.007 172.862c-2.765 0-5.454-1.435-6.936-4.001l-24-41.569c-2.209-3.826-.898-8.719 2.928-10.928 3.827-2.209 8.719-.898 10.928 2.928l24 41.569c2.209 3.826.898 8.719-2.928 10.928C338.74 172.517 337.365 172.862 336.007 172.862zM256 192L256 192c-30.928 0-56 25.072-56 56v8h112v-8C312 217.072 286.928 192 256 192z"></path><path fill="#9C503E" d="M312,248H200c-8.837,0-16,7.163-16,16v0c0,8.837,7.163,16,16,16h112c8.837,0,16-7.163,16-16v0
	C328,255.163,320.837,248,312,248z"></path><circle cx="256" cy="176" r="16" fill="#9C503E"></circle><rect width="192" height="32" x="160" y="312" fill="#E8775D"></rect><path fill="#295966" d="M320 384H192c-4.418 0-8-3.582-8-8s3.582-8 8-8h128c4.418 0 8 3.582 8 8S324.418 384 320 384zM312 416H200c-4.418 0-8-3.582-8-8s3.582-8 8-8h112c4.418 0 8 3.582 8 8S316.418 416 312 416zM336 448H176c-4.418 0-8-3.582-8-8s3.582-8 8-8h160c4.418 0 8 3.582 8 8S340.418 448 336 448z"></path><path fill="#E8775D" d="M120.069 112H104V72h40v16.069C144 101.286 133.286 112 120.069 112zM391.931 112H408V72h-40v16.069C368 101.286 378.714 112 391.931 112zM144 488h-40v-40h16.069C133.286 448 144 458.714 144 471.931V488zM368 488h40v-40h-16.069C378.714 448 368 458.714 368 471.931V488z"></path></svg>