<svg id="&#x5716;&#x5C64;_1" enable-background="new 0 0 512 512" viewBox="0 0 512 512" xmlns="http://www.w3.org/2000/svg"><path id="_x35__00000150803479245714371970000010498395325685629328_" d="m256 278.252c8.008 0 15.885-.131 23.631-.525v108.308c-1.05 13.653-2.626 56.451-2.626 61.046 0 21.005-4.857 33.608-21.005 37.547-16.016-3.938-21.005-16.542-21.005-37.547 0-4.595-1.444-47.393-2.494-61.046l.131-108.308c7.614.394 15.491.525 23.368.525z" fill="#f4a435"/><path id="_x34__00000163047941362184610740000000132111991689551504_" d="m205.719 276.021c-113.559-10.634-199.155-56.058-199.155-110.671v-25.206c0 62.359 111.721 112.903 249.436 112.903 137.846 0 249.436-50.544 249.436-112.903v25.206c0 54.482-85.333 100.037-198.892 110.671-8.796.788-42.535 2.232-50.544 2.232-7.877-.001-41.485-1.445-50.281-2.232z" fill="#f8be86"/><path id="_x33__00000083773891008602716940000014757900479520550546_" d="m256 27.372c137.846 0 249.436 50.544 249.436 112.771 0 62.359-111.59 112.903-249.436 112.903-137.715 0-249.436-50.544-249.436-112.903 0-62.227 111.721-112.771 249.436-112.771z" fill="#fbebdc"/><path id="_x32__00000107589162915732666850000010401102543650474678_" d="m387.281 379.602c-24.155-9.583-80.737-37.022-80.737-37.022v-66.56c-8.796.788-17.724 1.313-26.913 1.707v107.651c28.881 1.575 68.397 7.615 104.763 11.684 15.097 1.707 16.804-11.946 2.887-17.46zm-181.694-35.578s-56.582 26.651-80.87 35.972c-13.784 5.382-12.077 18.773 3.019 17.066 36.365-3.938 75.881-9.846 104.764-11.421l.13-107.914c-9.189-.393-18.115-.919-26.912-1.707z" fill="#ec6619"/><path id="_x31__00000145049074400162874530000013105722986745628072_" d="m256 20.83c-143.551 0-256 52.43-256 119.366v25.224c0 57.777 83.861 104.667 199.109 116.44-.019.199-.115 58.028-.115 58.028-13.032 6.103-56.487 26.301-76.635 34.045-11.359 4.365-14.859 12.833-13.288 19.295 1.231 5.09 6.173 10.564 16.071 10.564 1.032 0 2.115-.064 3.256-.186 12.026-1.327 24.404-2.859 36.628-4.372 22.333-2.764 43.369-5.312 61.263-6.565 1.029 17.401 2.128 50.837 2.128 54.417 0 17.519 2.962 38.333 26.045 43.897.506.128 1.019.186 1.538.186s1.032-.058 1.538-.186c23.09-5.564 26.051-26.385 26.051-43.897 0-3.58 1.099-37.017 2.128-54.417 17.894 1.252 38.929 3.8 61.263 6.565 12.224 1.513 24.603 3.045 36.628 4.372 1.141.122 2.224.186 3.256.186 9.897 0 14.84-5.474 16.07-10.564 1.571-6.462-1.929-14.93-13.288-19.295-20.154-7.744-63.603-27.942-76.635-34.045 0 0-.096-57.83-.115-58.029 115.248-11.774 199.104-58.663 199.104-116.439v-25.224c0-66.936-112.449-119.366-256-119.366zm-30.141 358.641c-18.308 1.269-39.814 3.929-62.442 6.737-12.173 1.506-24.487 3.032-36.455 4.346-.679.077-1.288.103-1.821.103-2.179 0-3.244-.603-3.301-.397.038-.57 1.346-2.583 5.224-4.07 24.192-9.301 78.974-35.096 81.295-36.192 2.295-1.083 3.763-3.397 3.763-5.936v-61.075c4.551.353 9.101.708 13.737.951zm44.603 67.616c0 21.513-5.487 28.07-14.462 30.724-8.968-2.654-14.455-9.212-14.455-30.724 0-5.014-1.476-47.768-2.564-61.405.006-.037.006-101.277.006-101.277 5.647.166 11.26.388 17.013.388 5.756 0 11.369-.222 17.019-.388v101.24c-1.081 13.673-2.557 56.428-2.557 61.442zm114.48-60.898c3.878 1.487 5.186 3.5 5.353 3.692-.224.244-1.737 1.058-5.25.673-11.968-1.314-24.282-2.84-36.455-4.346-22.628-2.808-44.135-5.468-62.442-6.737v-95.535c4.638-.244 9.186-.598 13.737-.951v61.076c0 2.538 1.468 4.853 3.763 5.936 2.32 1.096 57.096 26.891 81.294 36.192zm-128.942-114.526c-117.529 0-218.535-38.808-238.902-88.102 36.518 44.859 128.37 76.006 238.902 76.006s202.385-31.147 238.902-76.006c-20.367 49.294-121.373 88.102-238.902 88.102zm0-25.224c-131.647 0-242.872-48.654-242.872-106.244 0-57.583 111.225-106.237 242.872-106.237s242.872 48.654 242.872 106.237c0 57.59-111.225 106.244-242.872 106.244z"/></svg>