<svg viewBox="0 0 512 512" xmlns="http://www.w3.org/2000/svg"><g id="Layer_10" data-name="Layer 10"><g id="SUCCESS"><path d="m256.44 0c-141.39 0-256 114.62-256 256s114.61 256 256 256 256-114.62 256-256-114.62-256-256-256z" fill="#57b236"/><path d="m.44 256a254.85 254.85 0 0 0 30.49 121.26 278.76 278.76 0 0 0 78.73 11.29c153.9 0 278.66-124.76 278.66-278.66a278.75 278.75 0 0 0 -11.65-79.89 254.82 254.82 0 0 0 -120.23-30c-141.39 0-256 114.62-256 256z" fill="#6fba47"/><path d="m402.44 213.62-153.88 161.59a45.12 45.12 0 0 1 -32.47 14h-.21a45.09 45.09 0 0 1 -32.39-13.71l-81.65-84.12a45.14 45.14 0 1 1 64.78-62.87l48.94 50.42 121.49-127.57a45.14 45.14 0 1 1 65.39 62.26z" fill="#fff"/></g></g></svg>