<?xml version="1.0" encoding="UTF-8" standalone="no"?>
<!-- Created with Inkscape (http://www.inkscape.org/) -->

<svg
   version="1.1"
   id="svg3258"
   width="682.66669"
   height="682.66669"
   viewBox="0 0 682.66669 682.66669"
   xmlns="http://www.w3.org/2000/svg"
   xmlns:svg="http://www.w3.org/2000/svg">
  <defs
     id="defs3262">
    <clipPath
       clipPathUnits="userSpaceOnUse"
       id="clipPath3272">
      <path
         d="M 0,512 H 512 V 0 H 0 Z"
         id="path3270" />
    </clipPath>
  </defs>
  <g
     id="g3264"
     transform="matrix(1.3333333,0,0,-1.3333333,0,682.66667)">
    <g
       id="g3266">
      <g
         id="g3268"
         clip-path="url(#clipPath3272)">
        <g
           id="g3274"
           transform="translate(445.3403,158.1597)">
          <path
             d="m 0,0 h -376.69 c 17.26,0 27.02,9.03 32.56,24 26.8,72.28 -44.58,282.93 155.79,282.93 C 12.03,306.93 -59.36,96.28 -32.56,24 -27.01,9.03 -17.25,0 0,0"
             style="fill:#f7c421;fill-opacity:1;fill-rule:nonzero;stroke:none"
             id="path3276" />
        </g>
        <g
           id="g3278"
           transform="translate(481.8101,121.6895)">
          <path
             d="m 0,0 c 0,-20.14 -16.33,-36.47 -36.47,-36.47 h -376.69 c -10.07,0 -19.19,4.08 -25.79,10.68 -6.6,6.6 -10.68,15.72 -10.68,25.79 0,20.14 16.33,36.47 36.47,36.47 h 376.69 c 10.07,0 19.19,-4.08 25.79,-10.68 C -4.08,19.19 0,10.07 0,0"
             style="fill:#e5ae13;fill-opacity:1;fill-rule:nonzero;stroke:none"
             id="path3280" />
        </g>
        <g
           id="g3282"
           transform="translate(412.7803,182.1597)">
          <path
             d="m 0,0 h -195.785 c -21.108,0 -37.986,17.471 -37.334,38.569 2.762,89.261 -11.476,242.664 75.873,244.351 -239.77,-1.24 -86.5,-306.92 -186.88,-306.92 h 9.997 80.733 H 32.56 C 15.31,-24 5.55,-14.97 0,0"
             style="fill:#e5ae13;fill-opacity:1;fill-rule:nonzero;stroke:none"
             id="path3284" />
        </g>
        <g
           id="g3286"
           transform="translate(481.8101,121.6895)">
          <path
             d="m 0,0 c 0,-20.14 -16.33,-36.47 -36.47,-36.47 h -271.3 c -10.07,0 -19.19,4.08 -25.79,10.68 -6.6,6.6 -10.68,15.72 -10.68,25.79 0,20.14 16.33,36.47 36.47,36.47 h 271.3 c 10.07,0 19.19,-4.08 25.79,-10.68 C -4.08,19.19 0,10.07 0,0"
             style="fill:#f7c421;fill-opacity:1;fill-rule:nonzero;stroke:none"
             id="path3288" />
        </g>
        <g
           id="g3290"
           transform="translate(329.9404,85.2192)">
          <path
             d="m 0,0 c 0,-33.54 -22.63,-61.78 -53.44,-70.31 -6.21,-1.72 -12.75,-2.64 -19.5,-2.64 -40.29,0 -72.95,32.66 -72.95,72.95 z"
             style="fill:#e5ae13;fill-opacity:1;fill-rule:nonzero;stroke:none"
             id="path3292" />
        </g>
        <g
           id="g3294"
           transform="translate(326.4102,62.7192)">
          <path
             d="m 0,0 c -7.51,-23.18 -26.31,-41.28 -49.91,-47.81 -14.838,4.104 -27.776,12.777 -37.205,24.409 C -94.717,-14.023 -87.86,0 -75.789,0 Z"
             style="fill:#f7c421;fill-opacity:1;fill-rule:nonzero;stroke:none"
             id="path3296" />
        </g>
        <g
           id="g3298"
           transform="translate(294.0703,462.2993)">
          <path
             d="m 0,0 c 0.08,0.92 0.11,1.85 0.11,2.79 0,20.53 -16.65,37.18 -37.18,37.18 -20.54,0 -37.18,-16.65 -37.18,-37.18 0,-0.94 0.03,-1.87 0.11,-2.79"
             style="fill:#e5ae13;fill-opacity:1;fill-rule:nonzero;stroke:none"
             id="path3300" />
        </g>
        <g
           id="g3302"
           transform="translate(146.126,85.2153)">
          <path
             d="m 0,0 h 299.214 c 20.144,0 36.473,16.33 36.473,36.474 0,20.143 -16.329,36.473 -36.473,36.473 H -77.472 c -20.144,0 -36.473,-16.33 -36.473,-36.473 C -113.945,16.33 -97.616,0 -77.472,0 h 47.471"
             style="fill:none;stroke:#000000;stroke-width:15;stroke-linecap:round;stroke-linejoin:round;stroke-miterlimit:10;stroke-dasharray:none;stroke-opacity:1"
             id="path3304" />
        </g>
        <g
           id="g3306"
           transform="translate(387.5942,393.9033)">
          <path
             d="m 0,0 c -18.102,41.213 -55.016,71.187 -130.597,71.187 -241.861,0 -87.765,-306.928 -188.343,-306.928"
             style="fill:none;stroke:#000000;stroke-width:15;stroke-linecap:round;stroke-linejoin:round;stroke-miterlimit:10;stroke-dasharray:none;stroke-opacity:1"
             id="path3308" />
        </g>
        <g
           id="g3310"
           transform="translate(445.3398,158.1621)">
          <path
             d="M 0,0 C -62.534,0 -26.619,118.648 -48.632,208.407"
             style="fill:none;stroke:#000000;stroke-width:15;stroke-linecap:round;stroke-linejoin:round;stroke-miterlimit:10;stroke-dasharray:none;stroke-opacity:1"
             id="path3312" />
        </g>
        <g
           id="g3314"
           transform="translate(184.0503,85.2153)">
          <path
             d="m 0,0 c 0,-40.288 32.659,-72.947 72.947,-72.947 40.287,0 72.947,32.659 72.947,72.947"
             style="fill:none;stroke:#000000;stroke-width:15;stroke-linecap:round;stroke-linejoin:round;stroke-miterlimit:10;stroke-dasharray:none;stroke-opacity:1"
             id="path3316" />
        </g>
        <g
           id="g3318"
           transform="translate(294.0703,462.2993)">
          <path
             d="m 0,0 c 0.08,0.92 0.11,1.85 0.11,2.79 0,20.53 -16.65,37.18 -37.18,37.18 -20.54,0 -37.18,-16.65 -37.18,-37.18 0,-0.94 0.03,-1.87 0.11,-2.79"
             style="fill:none;stroke:#000000;stroke-width:15;stroke-linecap:round;stroke-linejoin:round;stroke-miterlimit:10;stroke-dasharray:none;stroke-opacity:1"
             id="path3320" />
        </g>
        <g
           id="g3322"
           transform="translate(381.0737,469.252)">
          <path
             d="M 0,0 C 0,0 56.997,-31.499 56.997,-119.994"
             style="fill:none;stroke:#000000;stroke-width:15;stroke-linecap:round;stroke-linejoin:round;stroke-miterlimit:10;stroke-dasharray:none;stroke-opacity:1"
             id="path3324" />
        </g>
        <g
           id="g3326"
           transform="translate(438.0708,466.2524)">
          <path
             d="M 0,0 C 0,0 32.998,-20.999 32.998,-73.997"
             style="fill:none;stroke:#000000;stroke-width:15;stroke-linecap:round;stroke-linejoin:round;stroke-miterlimit:10;stroke-dasharray:none;stroke-opacity:1"
             id="path3328" />
        </g>
        <g
           id="g3330"
           transform="translate(132.917,469.252)">
          <path
             d="M 0,0 C 0,0 -56.997,-31.499 -56.997,-119.994"
             style="fill:none;stroke:#000000;stroke-width:15;stroke-linecap:round;stroke-linejoin:round;stroke-miterlimit:10;stroke-dasharray:none;stroke-opacity:1"
             id="path3332" />
        </g>
        <g
           id="g3334"
           transform="translate(75.9199,466.2524)">
          <path
             d="M 0,0 C 0,0 -32.999,-20.999 -32.999,-73.997"
             style="fill:none;stroke:#000000;stroke-width:15;stroke-linecap:round;stroke-linejoin:round;stroke-miterlimit:10;stroke-dasharray:none;stroke-opacity:1"
             id="path3336" />
        </g>
      </g>
    </g>
  </g>
</svg>
