<svg xmlns="http://www.w3.org/2000/svg" width="512" height="512" viewBox="0 0 512 512" id="waitress"><g><path fill="#faa231" d="M188,24H132A60,60,0,0,0,72,84V246a10,10,0,0,0,10,10H238a10,10,0,0,0,10-10V84A60,60,0,0,0,188,24Z"></path><path fill="#f2f2f2" d="M24,468V339.2a30,30,0,0,1,17.428-27.239L128,272h64l104,48V488H44A20,20,0,0,1,24,468Z"></path><polygon fill="#804913" points="56 304 80 392 80 432 240 432 240 392 264 304 232 288 216 360 104 360 88 288 56 304"></polygon><rect width="32" height="16" x="184" y="384" fill="#faa231"></rect><path fill="#ffd4cf" d="M208,288l-5.574,5.574a60,60,0,0,1-84.852,0L112,288l24-64h48Z"></path><path fill="#fbb8b0" d="M190.865,242.305,184,224H136l-6.912,18.432,19.256,9.628a26.129,26.129,0,0,0,11.627,2.745h0a26.137,26.137,0,0,0,11.746-2.8Z"></path><path fill="#ffd4cf" d="M238,128H224l-8-24H176L128,72l-9,32H104l-8,24H82a10,10,0,0,0-10,10v20a10,10,0,0,0,10,10H96v21.459a30,30,0,0,0,16.583,26.833L155.5,237.75a10,10,0,0,0,8.99-.023l43.064-21.807A30,30,0,0,0,224,189.156V168h14a10,10,0,0,0,10-10V138A10,10,0,0,0,238,128Z"></path><rect width="16" height="16" x="184" y="144" fill="#ae7069"></rect><rect width="16" height="16" x="120" y="144" fill="#ae7069"></rect><path fill="#ae7069" d="M160,212c-13.458,0-24-8.785-24-20h16c0,1.41,3.037,4,8,4s8-2.59,8-4h16C184,203.215,173.458,212,160,212Z"></path><path fill="#994635" d="M468,488H284a20,20,0,0,1-20-20V456h24l8-8H448l8,8h32v12A20,20,0,0,1,468,488Z"></path><path fill="#ffd4cf" d="M240,432H200v56h96A56,56,0,0,0,240,432Z"></path><g><polygon fill="#fa5131" points="376 272 272 272 288 456 360 456 376 272"></polygon><path fill="#b03414" d="M336 264V224h24V208H328a8 8 0 0 0-8 8v48H256v16H392V264zM320 336h0a24 24 0 0 1-24 24H279.65l-4.17-48H296A24 24 0 0 1 320 336z"></path></g><g><rect width="16" height="64" x="424" y="280" fill="#b03414"></rect><path fill="#cc751f" d="M344,416H488a0,0,0,0,1,0,0v0a40,40,0,0,1-40,40H384a40,40,0,0,1-40-40v0A0,0,0,0,1,344,416Z"></path><rect width="128" height="32" x="352" y="384" fill="#804913"></rect><path fill="#cc751f" d="M384,336h64a40,40,0,0,1,40,40v8a0,0,0,0,1,0,0H344a0,0,0,0,1,0,0v-8A40,40,0,0,1,384,336Z"></path><polygon fill="#faa231" points="416 432 376 384 456 384 416 432"></polygon><path fill="#fa5131" d="M434,264h38a0,0,0,0,1,0,0v22a10,10,0,0,1-10,10H424a0,0,0,0,1,0,0V274A10,10,0,0,1,434,264Z"></path></g></g></svg>