<?xml version="1.0" encoding="UTF-8"?>
<svg version="1.1" viewBox="0 0 2048 2048" width="1280" height="1280" xmlns="http://www.w3.org/2000/svg">
<path transform="translate(488,14)" d="m0 0h25l13 4 10 5 9 7 9 9 8 13 4 11 2 16v70l213-1 1-76 4-16 9-16 8-9 11-8 12-6 11-3h25l13 4 13 7 12 11 7 9 6 12 3 11 1 11v70h214v-77l4-16 7-13 6-8h2l2-4 14-10 12-5 8-2h25l13 4 11 6 8 6 9 9 8 14 4 11 2 13v72h214v-77l4-16 7-13 10-12 12-9 11-5 11-3h25l13 4 11 6 9 7 7 7 7 11 5 11 2 8 1 9v72h141l14 2 15 5 14 8 13 11 9 11 8 14 4 10 3 14 1 19v653l-1 19-6 8-7 4-6 1 1 39 10 5 7 8 2 5v7l-5 8-7 6-8 2 1 39 10 5 5 5 3 4 1 5v529l-1 18-3 14-6 15-7 11-9 11-11 9-14 8-18 6-17 2h-165l-7-2-7-6-3-6-1-5-60-1-1 7-12 36-10 25-11 24-12 22-16 26-11 16-12 16-8 10-11 13-1 2h-2l-2 4-7 7-7 8-12 12h-2l-1 3-8 7-10 9-14 11-10 8-17 12-15 10-18 11-22 12-29 14-28 11-30 10-32 8-27 5-30 4-25 2h-50l-41-4-29-5-27-6-34-10-29-11-25-11-22-11-24-14-20-13-14-10-13-10-11-9-13-11-16-15-16-16-7-8-9-10-11-14-14-18-8-12-11-17-11-19-12-22-13-29-12-32-7-22-1-5h-75l-4 10-4 5-6 3-7 1h-165l-15-2-18-6-13-8-13-11-8-10-6-10-5-11-4-15-1-8v-1199l4-6 7-6 7-4 1-37-11-6-6-7-2-5v-7l3-7 7-7 8-3 1-10v-29l-9-3-6-5-4-9v-30l3-16 6-15 9-14 11-12 12-9 16-8 14-4 8-1h143v-77l3-13 8-16 9-10 7-7 14-8zm380 1230m-2 1m-270 424 3 9 11 31 11 25 12 24 13 22 14 21 14 19 11 13 9 11 11 11 7 8 4 2v2l8 7 13 12 14 11 18 14 23 15 24 14 30 15 32 13 31 10 33 8 32 5 32 3h53l30-3 30-5 30-7 29-9 24-9 18-8 23-11 21-12 19-12 17-12 14-11 11-9 10-9 8-7 25-25 7-8 12-14 9-12 10-14 10-15 9-15 7-12 8-16 11-24 10-27 6-17v-2h-114l-12 27-8 16-10 18-10 15-10 14-8 10-11 13-16 17-13 12-11 9-18 14-22 14-18 10-16 8-18 8-22 8-30 8-20 4-33 4-19 1h-17l-31-2-27-4-29-7-33-11-21-9-24-12-21-13-17-12-16-13-11-9-24-24-7-8-13-16-14-20-12-20-12-23-7-16-5-11z" fill="#F8F8F8"/>
<path transform="translate(488,14)" d="m0 0h25l13 4 10 5 9 7 9 9 8 13 4 11 2 16v70l213-1 1-76 4-16 9-16 8-9 11-8 12-6 11-3h25l13 4 13 7 12 11 7 9 6 12 3 11 1 11v70h214v-77l4-16 7-13 6-8h2l2-4 14-10 12-5 8-2h25l13 4 11 6 8 6 9 9 8 14 4 11 2 13v72h214v-77l4-16 7-13 10-12 12-9 11-5 11-3h25l13 4 11 6 9 7 7 7 7 11 5 11 2 8 1 9v72h141l14 2 15 5 14 8 13 11 9 11 8 14 4 10 3 14 1 19v653l-1 19-6 8-7 4-3 1h-7l-9-4-5-5-3-8v-420h-1544v1116l3 12 9 14 8 7 7 4 5 2 10 2 172 1 8 6 4 6 1 3v10l-6 10-7 4-7 1h-165l-15-2-18-6-13-8-13-11-8-10-6-10-5-11-4-15-1-8v-1199l4-6 7-6 7-4 1-37-11-6-6-7-2-5v-7l3-7 7-7 8-3 1-10v-29l-9-3-6-5-4-9v-30l3-16 6-15 9-14 11-12 12-9 16-8 14-4 8-1h143v-77l3-13 8-16 9-10 7-7 14-8z" fill="#020102"/>
<path transform="translate(1006,1188)" d="m0 0h25l28 2 32 5v2h8l9 2v2h7l7 2v2h7l9 3v2l11 2v2l10 2v2l6 1 19 10 7 3v2l7 2v2l7 2v2h3v2l4 1 4 2v2l5 2 5 3v2h3v2l4 1v2l4 1 3 3 2 1v2l5 2 3 3 8 7 12 11 13 13 3 5 5 5 1 3 3 1 1 4 3 1 4 5v3l3 1 3 5v2h2v3h2l7 11 1 4h2l1 5h2l7 14 5 8 5 10 3 8 4 8 3 8v4h2l6 21 5 16 3 17 1 1 2 17 1 1 2 16v66l-4 30-6 27-2 7h-2l-2 14-6 16-11 25-8 16-10 18-10 15-10 14-8 10-11 13-16 17-14 13-11 9-18 14-22 14-18 10-16 8-18 8-22 8-30 8-20 4-33 4-19 1h-17l-31-2-27-4-29-7-33-11-21-9-24-12-21-13-17-12-16-13-11-9-25-25-7-8-13-16-14-20-12-20-12-23-7-16-5-13-4-10-5-19-2-5-2-12-2-5-4-24-2-18v-58l2-20 4-23h2v-8l2-5 3-14 3-8 2-8 3-9h2l1-8h2v-5h2l1-7h2l2-9 1-2h2l1-6h2l2-5 4-9h2l2-7h2l2-7h2v-3h2v-3h2l2-6h2v-3h2l1-4h2v-3l4-4 2-4 3-3 4-6 7-6 18-1v2h7l7-8h2l2-4 4-4h3l2-4 6-4-2-6-1-2v-11l4-8 5-4 10-3 7 1 9 6v2l9-5 15-9 11-6v-16h2l1-4 7-6 15-6 7-3 14-4 8-3 19-4 6-2 5-1h11v-2l24-3z" fill="#ECBC30"/>
<path transform="translate(293,189)" d="m0 0h137l3 2 1 72 3 15 5 12 10 14 10 8 16 8 11 3h23l13-4 13-7 10-8 7-8 5-8 4-10 3-12 1-75 1-2h182l30 1 1 1 1 74 4 16 7 14 8 10 12 9 15 7 8 2 15 1 13-2 11-4 11-6 10-8 7-8 7-12 4-13 1-6 1-75 3-1h176l34 1 1 1 1 74 3 14 8 16 9 11 11 8 12 6 11 3 15 1 13-2 11-4 14-8 11-10 9-14 5-15 1-6 1-75 113-1h82l18 1 1 1 1 75 4 15 7 14 8 10 10 8 12 6 13 4h24l15-5 12-7 11-9 8-11 6-13 3-14 1-74 2-1h136l10 2 14 7 7 6 8 12 4 12 1 35v186l-1 1-130 1h-1414l-1-2v-36l-3-7-7-8-11-5v-37l-11-6-6-7-2-5v-7l3-7 7-7 8-3 1-10 1-29 8-3 8-7 3-6 1-6v-18l2-13 6-12 9-10 10-7 9-3z" fill="#FB5F3C"/>
<path transform="translate(1006,1188)" d="m0 0h25l28 2 32 5v2h8l9 2v2h7l7 2v2h7l9 3v2l11 2v2l10 2v2l6 1 19 10 7 3v2l7 2v2l7 2v2h3v2l4 1 4 2v2l5 2 5 3v2h3v2l4 1v2l4 1 3 3 2 1v2l5 2 3 3 8 7 12 11 13 13 3 5 5 5 1 3 3 1 1 4 3 1 4 5v3l3 1 3 5v2h2v3h2l7 11 1 4h2l1 5h2l7 14 5 8 5 10 3 8 4 8 3 8v4h2l6 21 5 16 3 17 1 1 2 17 1 1 2 16v66l-4 30-6 27-2 7h-2l-2 14-6 16-11 25-8 16-10 18-10 15-10 14-8 10-11 13-16 17-14 13-11 9-18 14-22 14-18 10-16 8-18 8-22 8-30 8-20 4-33 4-19 1h-17l-31-2-27-4-29-7-33-11-21-9-24-12-21-13-17-12-16-13-11-9-25-25-7-8-13-16-14-20-12-20-12-23-7-16-5-13-4-10-5-19-2-5-2-12-2-5-4-24-2-18v-58l2-20 4-23h2v-8l2-5 3-14 3-8 2-8 3-9h2l1-8h2v-5h2l1-7h2l2-9 1-2h2l1-6h2l2-5 4-9h2l2-7h2l2-7h2v-3h2v-3h2l2-6h2v-3h2l1-4h2v-3l4-4 2-4 3-3 4-6 7-6 18-1v2l5 2 4 5 2 4v11l-5 10-9 11-14 21-9 15-10 19-11 27-8 26-6 26-4 28-1 30 1 23 3 23 5 25 7 25 10 27 11 23 11 19 15 22 9 11 12 14 22 22 11 9 13 10 15 10 15 9 21 11 19 8 30 10 26 6 19 3 25 2h29l25-2 25-4 28-7 28-10 26-12 21-12 16-11 12-9 10-8 13-12 4-4h2l2-4 10-10 9-11 10-13 12-18 10-17 8-16 10-23 8-24 7-29 4-27 1-17v-24l-2-29-4-24-7-28-9-26-8-18-8-16-9-16-10-15-9-12-11-13-7-8-9-10-14-13-11-9-13-10-15-10-17-10-16-8-23-10-27-9-25-6-26-4-29-2h-17l-23 2-27 4-21 5-23 7-21 8h-7l-10-5-5-6-1-4v-13h2l1-4 7-6 15-6 7-3 14-4 8-3 19-4 6-2 5-1h11v-2l24-3z" fill="#020102"/>
<path transform="translate(552,1479)" d="m0 0h11l9 5 14 12 3 2v2l5 2 7 6v2l4 2 3 2v2l4 2 9 7v2l5 2 10 10 2 6v9l-5 10-7 4h-3v2h-7l-10-4-10-9-11-9-4-3v-2h-3l1 3 1 32 1 11 1 2 1 15 1 1 3 22 3 11 1 7 1 1 2 10 3 8v5l4 10 10 28 11 25 12 24 13 22 14 21 14 19 11 13 9 11 11 11 7 8 3 2v2l4 2 9 9 11 9 13 11 19 14 20 13 24 14 30 15 32 13 31 10 33 8 32 5 32 3h53l30-3 30-5 30-7 29-9 24-9 18-8 23-11 21-12 19-12 17-12 14-11 11-9 10-9 8-7 24-24 7-8 12-14 9-12 10-14 10-15 9-15 7-12 8-16 11-24 10-27 9-27 7-32 1-1 2-17 3-9 4-6 8-5h12l8 5 4 5v3h2v11l-3 20-2 10-1 1-4 20-2 7-12 36-8 21-9 20-8 16-10 19-13 21-8 12-13 18-11 14-12 14-1 2h-2l-2 4-7 7-7 8-12 12h-2l-1 3-8 7-10 9-14 11-10 8-17 12-15 10-18 11-22 12-29 14-28 11-30 10-32 8-27 5-30 4-25 2h-50l-41-4-29-5-27-6-34-10-29-11-25-11-22-11-24-14-20-13-14-10-13-10-11-9-13-11-16-15-16-16-7-8-9-10-11-14-14-18-8-12-11-17-11-19-12-22-13-29-12-32-7-22-5-22-4-16-3-20-2-10-3-28-1-23-2-1-2 5h-2l-2 5-4 2-2 4-4 4-3 2h-3v2h-10l-10-4-5-7-1-4v-9l2-5 4-6 12-14 9-11 12-14 9-11 9-10z" fill="#030203"/>
<path transform="translate(984,1047)" d="m0 0h62l12 1 2 1 26 2 7 2 17 2 5 2 17 3 12 3 7 2 11 4 11 3 26 10 12 5 9 4 19 9 15 8 12 7 10 6 16 10 13 9v2l5 2 3 2v2l4 1v2l5 2 4 3v2l5 2 2 4 5 2 2 4 5 2 4 4v2l4 2 13 12 12 13v2l4 2 4 5v2l4 2 18 22v3l3 1 6 9v2h2l7 10v3h2l7 11 4 7 2 3v3h2l20 38 4 10 4 8 4 11 4 9 2 10h2l2 9 3 7 3 12 2 7 3 9 5 26 1 2 1 10 2 8 2 19 2 1 2-4 11-14 9-8 5-2h8l8 4 7 8 1 4v10l-6 10-13 15-9 11-12 14-14 17-5 4-8 4-9-1-8-4-9-8-11-9-14-12-11-9-14-12-5-5-2-4v-12l3-7 7-6 8-2h7l11 7 11 10 4 3v2l5 2-2-19-4-26-2-6-3-15-3-9-4-16-4-12-3-8-5-13-4-8-5-13-8-16-10-18-2-6h-2l-1-5h-2l-3-6v-2h-2l-2-3v-3h-2v-3h-2v-3h-2l-3-5v-2h-2l-3-5v-2h-2l-4-6v-2l-3-1-2-5h-2l-1-4-4-2-2-5-4-2-9-10-7-8-3-3v-2l-4-2-8-8-2-1v-2l-4-2-11-10-14-11-17-13-21-14-15-9-7-4-8-5-19-9-8-4-11-4-25-10-12-4-28-7v-2h-8l-6-2-9-1-6-2-12-1-1-1-37-3-1-1h-55l-4 1-29 2-15 3-33 6-12 3-7 2-36 12-22 9-15 7-17 9-18 10h-2v2l-7 4-11 7h-2v2l-9 6-5 2v2l-4 1v2l-7 5h-2v2l-8 6h-2l-2 4-6 4-22 22h-2l-2 4-10 11h-2l-2 5-3 1-2 4-4 5-2 3h-2l-2 5h-2l-1 4h-2l-2 5-2 3h-2v3h-2l-2 5-1 2h-2l-1 4-1 2h-2l-2 5-5 9h-2l-2 5-13 23-9 19-3 7-2 7h-2l-2 10h-2l-3 13h-2v5l-3 7-2 9-2 4-5 21-4 10h-2l-2 4-8 4h-12l-6-4-2-4h-2l-3-6v-11l5-19 3-8 4-15 4-12h2l1-8h2l1-5 4-10 5-13 10-19 7-15h2l3-9 3-5h2l1-5h2l1-5h2l1-4 5-7 3-6h2l2-5 1-2h2l1-4 6-8h2l1-4h2l1-4h2l2-5 3-1 2-5 3-1 2-5 3-1 2-5 8-8 7-8 6-5 16-16 8-7 13-11 17-13 17-12 17-11 15-9 11-6 19-10 10-4 10-5 16-6 15-6 18-6 12-3 5-2 21-5 20-4 15-2 3-1 13-1 13-2z" fill="#020102"/>
<path transform="translate(1745,217)" d="m0 0h9l6 3 5 5 3 5 1 14v72l-1 89-4 10-6 6-4 1-1353 1-9-3-7-8-2-6v-8l6-10 10-5 1329-1 1-149 4-8 7-6z" fill="#FFC9C1"/>
<path transform="translate(1426,667)" d="m0 0h107l17 4 17 7 11 8 8 7 10 13 7 14 3 11 2 9v34l-4 17-5 13-3 4-1 3h-2l-2 5-9 10-9 7h-2v2l-11 6 6 8 9 13 26 36 5 8 2 4v10l-5 8-5 4-5 3h-9l-10-5-8-10-6-9v-2h-2l-13-19-5-6v-3h-2l-8-12v-2h-2l-6-8v-3l-3-1-3-5v-2h-66v70l-3 8-6 6-8 3h-9l-9-6-5-7-1-6v-227l3-12 4-5z" fill="#040304"/>
<path transform="translate(1259,667)" d="m0 0h17l13 2 13 4 16 8 11 7 13 12 11 15 8 17 4 12 2 14v161l-4 8-6 5-7 3h-9l-8-5-5-6-1-2v-73l-118-1v69l-2 7-5 6h-2v2l-6 3h-10l-8-4-5-6-2-3-1-5v-152l2-19 3-9 4-10 8-16 9-11 10-10 13-9 11-6 18-6z" fill="#030203"/>
<path transform="translate(1814,1047)" d="m0 0 7 1 8 5 5 5 2 3 1 5v529l-1 18-3 14-6 15-7 11-9 11-11 9-14 8-18 6-17 2h-165l-7-2-7-6-3-6-1-10 5-9 7-6 4-1 169-1 16-4 13-9 9-12 3-8 1-9 1-535 1-11 7-8z" fill="#050405"/>
<path transform="translate(1018,1344)" d="m0 0h7l7 3 5 5 3 4 1 4 1 35 15 6 12 7 9 7 8 8 7 10 8 16 4 14 1 7v12l-5 10-7 5-3 1h-9l-9-4-4-5-2-4-2-15-6-15-7-9-8-6-10-5-9-2h-11l-13 4-9 6-6 5-7 11-4 13v14l4 12 7 11 8 7 10 5 8 2 25 3 11 3 12 5 11 7 11 9 10 13 8 15 5 17 1 9v13l-2 13-5 14-6 12-7 9-7 8-13 10-16 8-8 3-1 36-4 7-7 6-10 2-9-3-6-5-3-6-1-35-1-2-12-4-14-7-11-9-10-10-9-14-5-11-4-14-1-17 3-9 7-6 4-2h12l7 4 5 6 2 7 2 13 4 10 5 8 5 6 10 6 7 3 5 1h16l12-4 9-6 5-5 7-10 4-11 1-12-3-12-7-13-8-8-14-7-7-2-16-1-18-4-16-7-14-10-8-8-9-13-6-12-5-17v-28l4-15 5-12 7-11 11-12 10-8 14-8 14-5 1-1 1-35 3-6 7-6z" fill="#010001"/>
<path transform="translate(1200,1341)" d="m0 0h8l7 4 12 11 6 7v2h2l10 13 11 16 8 13 8 15 8 19 7 20 7 29 4 30 1 14v25l-3 29-5 24-6 21-9 24-9 19-12 20-9 13-8 10-11 13-21 21-14 11-15 11-19 12-19 10-16 7-22 8-23 6-33 5-15 1h-23l-23-2-28-5-25-7-15-6-9-6-4-8v-7l4-10 6-5 3-2h10l29 9 22 5 20 3 12 1h23l18-2 19-3 20-5 21-7 11-5 17-8 24-16 9-7 14-12 11-11 9-11 10-13 11-17 10-18 7-16 9-27 5-25 2-16v-35l-3-27-4-19-8-26-8-18-10-19-12-18-10-13-13-14-6-9-1-8 4-10 6-5z" fill="#FBE0B1"/>
<path transform="translate(943,667)" d="m0 0h167l8 4 5 6 3 7v7l-5 10-9 6-5 1h-139v73h86l8 4 5 7 2 6-1 10-3 6-6 5-4 2h-87v74h144l8 6 4 5 2 5v7l-4 9-5 5-6 3h-170v-2l-6-2-3-3v-2h-2v-3h-2l-1-5v-234l5-10 8-6z" fill="#040304"/>
<path transform="translate(452,1058)" d="m0 0h10l9 5 5 8v3h2l6 24 5 12 7 14 7 9 9 9 11 7 15 6 13 5 5 4 3 5 1 4v10l-3 7-5 5-11 5-11 4-12 6-4 1v2l-4 1-1 3-8 7-6 9-8 17-3 10-3 8-5 17-5 8-9 5h-10l-4-1v-2l-5-1-4-4-4-9-6-22-2-9-8-16-1-4h-2l-7-8-8-7-14-8-10-5-9-3-9-5-4-5-2-6v-12l5-8 8-5 10-4 16-6 13-9 7-7 9-14 5-12 4-11 3-14 3-8 4-8 6-5z" fill="#020102"/>
<path transform="translate(1587,1058)" d="m0 0h10l9 5 5 7 3 8 2 7 4 16 7 17 6 9 8 10 4 3v2l4 1v2l4 1 9 5 23 8 6 5 4 7v13l-5 9-14 7-16 6-8 5h-3v2l-4 1v2l-5 4h-2l-2 4-7 10-8 18-8 26-3 10-4 5-10 5h-9l-9-4-3-3v-2h-2l-5-14-2-11-2-7-6-16-4-7v-2h-2v-3h-2l-7-8-10-8-14-8-14-5-11-6-6-9v-15h2l1-5 7-6 14-5 16-7 3-2h3v-2l9-7 9-12 8-16 5-14 2-7 4-16h2l1-5 7-6z" fill="#020101"/>
<path transform="translate(517,664)" d="m0 0h7l9 4 7 8 1 2v217h48l9 6 5 9v10l-6 10-4 1v2l-5 2h-135v-2l-5-1-4-4v-3h-2l-2-4v-11l4-8 6-5 4-2h47v-171l-6 4h-2v2l-5 3h-2v2l-14 9-6 4h-10l-9-4-6-8-1-2v-10l3-7 7-7 17-12 18-13 17-12 9-6z" fill="#020102"/>
<path transform="translate(700,665)" d="m0 0h11l7 3 7 7 20 30 36 53 4 6 2 1 2-5 32-48h2l1-4 17-25 7-10 8-7 2-1h12l8 5 5 6 1 2v13l-7 12-11 16-7 10-17 26h-2l-2 5-10 15-7 10-10 15-5 7-1 111-4 7-4 4-6 3h-12l-9-6-1-4h-2l-2-7-1-109-3-4v-3h-2v-3h-2l-7-11-4-6v-2h-2l-2-6h-2l-16-24-5-7v-3h-2l-12-18-1-4h-2v-3h-2l-8-12-6-12v-7l5-10 5-4z" fill="#030203"/>
<path transform="translate(495,53)" d="m0 0h10l9 4 8 6 5 9 1 4v184l-2 9-6 8-9 6-4 1h-14l-10-5-7-8-3-9v-187l4-9 5-6 10-6z" fill="#797876"/>
<path transform="translate(845,53)" d="m0 0h9l9 4 7 5 6 10 1 9v179l-3 10-6 8-8 5-4 1h-14l-9-4-7-8-4-9-1-19 1-169 4-9 6-7 9-5z" fill="#797876"/>
<path transform="translate(1194,53)" d="m0 0h8l9 3 7 5 6 9 1 3 1 12v176l-4 11-8 8-9 4h-14l-10-5-6-7-4-10-1-10 1-176 4-10 4-5 11-7z" fill="#797876"/>
<path transform="translate(1542,53)" d="m0 0h9l9 3 10 9 4 7 1 5v184l-3 9-9 10-9 4h-14l-10-5-7-8-3-10v-186l3-8 7-8z" fill="#797876"/>
<path transform="translate(1450,708)" d="m0 0h80l9 1 8 4 10 8 3 3v3h2l4 9 2 8v27l-3 12-8 11-9 8-8 4-8 2h-82z" fill="#F8F8F8"/>
<path transform="translate(1259,708)" d="m0 0h16l12 2 10 5 11 8 9 10 7 14 3 12v49h-117l-1-1v-49l2-10 7-14 9-10 8-7 9-5 4-2z" fill="#F7F7F7"/>
<path transform="translate(1542,53)" d="m0 0h9l9 3 10 9 2 3 2 11v18l-1 7-4 7-2-4v-11l1-12-2-10-6-7v-2l-5-2-2-2-10-1-6 3-5 6-3 14 2 8v23l-1 30-2 41v30l-1 18-1 9v16l4 11 4 5v3l5 2 2 1v2l2-1h8l5-2h3l1-3 7-2-2 4-8 5-3 1h-14l-10-5-7-8-3-10v-186l3-8 7-8z" fill="#818180"/>
<path transform="translate(302,382)" d="m0 0h18l10 2 6 4 5 6 2 6-1 9-4 6-7 6-7 2h-27l-8-3-5-4-4-7-1-8 3-9 5-5 8-4z" fill="#FFC9C1"/>
<path transform="translate(1194,53)" d="m0 0h8l9 3 7 5 6 9v87l-1 9-2-4v-6l-2-2-1-23v-43l-1-11-4-8-8-7-10-2h-4l-1 2-5 5-4 6-1 9v33l-1 16v16l-1 6-1 47-1 2-1 27v2 17l-1 3 4 13 2 6-1 4h-3l-4-8-2-14 1-176 4-10 4-5 11-7z" fill="#818180"/>
<path transform="translate(832,1709)" d="m0 0h9l10 6 13 12 7 8 2 5v10l-6 9-6 4-3 1h-8l-9-5-10-9-8-7-6-10v-10l5-8 5-4z" fill="#FBE1B1"/>
<path transform="translate(1590,1143)" d="m0 0h3l7 11 8 10 9 9 5 3-1 4-10 9-7 7-9 13-4 4-8-11-9-10-10-9-4-3 1-4 10-9 7-7 9-13z" fill="#E7B933"/>
<path transform="translate(455,1143)" d="m0 0 4 1 7 11 11 13 7 6 4 4-15 14-11 14-4 6-4-2-8-11-13-13-9-7 5-5 10-9 9-11z" fill="#E9B932"/>
<path transform="translate(845,53)" d="m0 0h9l9 4 7 5 6 10v64l-1 93-2-3-1-8v-7l-1-3-1-8 1-5 2-2-1-9-1-4-1-6-1-30v-49l1-8-4-14-3-5-2-4-4-2-8-2h-5l-4 2-2-1-3 6h-2l-2 9-2 6 1 9v18l-1 29v16l-1 9v26l-2 17v5l-3-2v-137l5-9 7-6z" fill="#828281"/>
<path transform="translate(1814,967)" d="m0 0 6 1 8 4 7 8 2 5v7l-5 8-7 6-6 2-10-1-8-6-4-8v-10l3-7 7-6z" fill="#040304"/>
<path transform="translate(230,313)" d="m0 0 6 1 6 4 7 8 3 8-3 9-6 7-8 5-5 1-11-6-6-7-2-5v-7l3-7 7-7z" fill="#030203"/>
<path transform="translate(820,1254)" d="m0 0 7 1 9 6 5 10-1 10-4 6-5 5-6 2h-7l-10-4-7-10v-11l4-8 5-4z" fill="#040304"/>
<path transform="translate(490,55)" d="m0 0 4 1-1 4-2-1v2h-2l-2 4-4 5-2 8 1 14v32l-1 23v56l-1 7v9l-1 5v6l-2 3h-2l-1-67v-94l3-6 5-6z" fill="#828281"/>
<path transform="translate(495,53)" d="m0 0h10l9 4 8 6 5 9v171l-2-1-1-6v-14l-2-13h2l-1-2v-27l-1-3v-22l-1-3 1-2-1-19v-10l-1-22v-15l-2-11-2-4-7-6-10-5v-3h-4z" fill="#828281"/>
<path transform="translate(823,253)" d="m0 0 3 1 2 8 3 7 2 5 3 4 8 2 2 1 3-1 3 1 9-3 4-1v3l-5 3-4 1h-14l-9-4-7-8-3-6z" fill="#818180"/>
<path transform="translate(1216,274)" d="m0 0h2l-2 4-8 5-3 1h-14l-7-3-1-4 6 1 4 2v2l4-2h7l10-4z" fill="#81807F"/>
<path transform="translate(481,272)" d="m0 0h3l5 6 9 3 9-1 5-2 3 1-6 3h-2v2h-14l-10-5z" fill="#80807F"/>
<path transform="translate(874,191)" d="m0 0h1v38l-2-3-1-8v-7l-1-3-1-8 1-5z" fill="#838382"/>
<path transform="translate(1172,251)" d="m0 0h2l4 13 2 6-1 4h-3l-4-8z" fill="#818180"/>
<path transform="translate(476,256)" d="m0 0 3 1 1 12-2 1-1-2h-2l-1-2v-8z" fill="#828180"/>
<path transform="translate(905,1782)" d="m0 0 2 1 2 7-1 6-3-1-2-5v-7z" fill="#FECEBD"/>
<path transform="translate(1183,277)" d="m0 0 6 1 4 2v2l12 1v1h-14l-7-3z" fill="#7F7E7D"/>
<path transform="translate(864,277)" d="m0 0 1 3-5 3-4 1h-14v-1l10-1 4-3z" fill="#7E7D7C"/>
<path transform="translate(1565,274)" d="m0 0h2l-2 4-8 5-3-1h2l1-3h2l1-3z" fill="#7F7E7D"/>
<path transform="translate(837,279)" d="m0 0 7 1 2 1 3-1 3 3h-13v-2h-2z" fill="#828281"/>
<path transform="translate(830,273)" d="m0 0 3 1 4 5v2l2 1-4-1-5-4z" fill="#7F7E7D"/>
</svg>
