<?xml version="1.0" encoding="UTF-8"?>
<svg version="1.1" viewBox="0 0 1600 1600" width="1280" height="1280" xmlns="http://www.w3.org/2000/svg">
<path transform="translate(1389,347)" d="m0 0h11v194l-2 264-1 255-1 137-4 13-12 29-18 44-7 16-21-2-280-32-141-16-334-38-218-25-218-25-17-2v-2l86-23 10-3v-77l-1-239v-104l23 1 9 2 6 4v-83l21 2 8 1 5 4 1-35 14 1 18 2 4 1-1-23v-145l28-3 120-11 177-16 512-46 101-9z" fill="#987B61"/>
<path transform="translate(221,711)" d="m0 0 23 1 9 2 5 5 13 10 13 9 49 36 18 13 19 14 14 10 15 11 34 25 14 10 17 12 3 3 5-2 16-9 15-9 12-7 28-17 29-17 28-17 14-8 50-30 29-17 15-9h6l7 3 2 5 14 10 36 26 15 11 19 14 18 13 14 10 38 28 18 13 19 14 14 10 18 13 38 28 17 12 4 2 13-1 168-21 81-10 66-8 35-5h7l1 28 2 23 1-51 3 3-1 9v20h2l3 8 1 9h3v-8l2-1 1 5 1 14v90l-1 94-1 62-2 8h-4v-146l-1 44-1 117-3 6-2-4v-8l-1 18-3 11h-2l-1 3-26-2-65-7-80-8-59-6-473-49-317-33-112-12-17-2v2l-35 9-37 10-15 4h-7l4-2 87-23 2-1v-77l-1-239z" fill="#4FA0C4"/>
<path transform="translate(221,711)" d="m0 0 23 1 9 2 5 5 13 10 13 9 49 36 18 13 19 14 14 10 15 11 34 25 6 4 1 3 2 1v2l5 2 11 10v2l3 1-2 1-7-6-16-12-15-11-11-8-16-12-17-12-9-6v-2l-5-2-12-9-13-9v-2l-5-2-19-14-11-8-13-9v-2l-4-1-15-11-11-8-7-5-8-1-9-1 9 6 15 12 16 12 18 13 21 16 14 10 19 14 14 10 9 7h-3l-12-9-8-2-8-5v-2l-3-1-2 2-11-5 1 5 4 2 4 4 1 7-1 7-4 2-1-3-2 1 2 6 2 5 1 9-1 3 2 7 1 5-1 8-2-1v-2l-2 1 2 4v3l3 1 4 8 1 5 4 16 2 6 5 3 4 9 3 4h-2l2 9 3 5v3h5l4 7 5 3v2l4 2 2 4h2l5 6 6 5 7 5 3 1v2l5 2 16 11 8 4 9 5 22 11 25 10 6 2 20 8 11 4 16 6 16 5 17 5 22 7 26 5 13 4 17 4 26 5 6 2 27 4 10 2 9 1 20 4 29 3 15 2 20 3 17 1 14 1 13 2 17 2 53 4h136l7-1h13l35-3 5-1 20-2 11-1 26-3 24-2 23-3 13-2 22-6 22-1 11-3 12-5 9-4 9-2 8-5h2l2-4 4-3h2l2-5 5-5 3-4 9 1 2 2 4 7 3 8 2 4 1 18v121l1 39-2 9-2 1-34-3-166-17-126-13-203-21-96-10-394-41-112-12-17-2v2l-35 9-37 10-15 4h-7l4-2 87-23 2-1v-77l-1-239z" fill="#3E819C"/>
<path transform="translate(294,607)" d="m0 0h1l1 36 5 5 17 12 11 8 12 8 16 12 19 13 14 10 16 11 15 11 19 13 16 11 18 13 17 12 6 5 6-1 21-13 44-27 24-15 19-12 23-14 26-16 16-10 42-26 16-10 11-6 26 2 52 5 18 2 22 2 31 3 46 5 29 8 41 12 43 12 76 22 48 14 26 7 89 26 77 22 12 3 1 1v111l-7 3-19 3-161 20-146 18-31 4h-6l-7 1-14-9-18-13-13-10-14-10-36-26-19-14-18-13-38-28-14-10-18-13-16-12-11-8-17-12-16-12-19-13-4-5-1-2-5-2h-6l-29 17-25 15-27 16-20 12-29 17-50 30-18 11-21 12-20 12-4-2-15-11-18-13-14-10-16-12-14-10-15-11-18-13-38-28-14-10-19-14-18-13-9-7 2-1v-83l21 2 8 1 5 4z" fill="#B9DE20"/>
<path transform="translate(1071,556)" d="m0 0 34 1 140 2 32 1 93 1 20 1 1 1v125l-1 93-1 3-8-1-19-5-87-25-52-15-41-12-25-7-52-15-46-13-41-12-25-7-41-12-12-3-25-3-52-5-100-10-18-1-13 7-14 9-39 24-16 10-21 13-23 14-21 13-19 12-24 15-18 11-23 14-13 8-5-1-9-7-17-12-11-8-19-13-20-14-14-10-16-11-18-13-16-11-15-11-15-10-12-9-17-12-2-3v-36l13 1 23 3v-2l8-1 83-3h11l1 32 29 7 39 9 9 2h11l26-10 23-8 75-28 39-15 23-8 34-13 25-9 18-2 103-2 30-1z" fill="#F41513"/>
<path transform="translate(708,730)" d="m0 0h6l7 3 2 5 14 10 36 26 15 11 19 14 18 13 14 10 38 28 18 13 19 14 14 10 18 13 38 28 17 12 4 2 13-1 168-21 33-4h14v2h-2v2l-17 3-5 2-40 7-12 2-11 2-4 2h-11l-9 3-6 3-12 1-11 4-15 3-6 4-1 1-10 2-3 3-19 7-6 2-6 1-1 2-13 1-4 2-21 2h-25l-20 2h-18l-6 1h-6l-6 1-6-1h-15-3l-2-1-16 1-9 1-11-1h-15l-7-1-13-3-2 1-14-4-9-2-7-2-3-2h-5l-8-3-13-3-5-2-9-2-8-4-11-4-7-4-14-7-8-3v-2l-5-2-13-6-6-3-3-4v-2h-2v-2l-6-1v-2h-2v-2l-6-3v-2l-5-2-4-4-5-3-1-5-3-1-1-6-1-2 1-2-3 1-5-5-1-5-5-7v-3l-4-2-2-5-6-5-5-5-3-2v-2l-4-2-1-5-15-2-13 2-4 2-7 1-54 27-7 3-1-3 4-4 17-10 9-5 28-17 29-17 28-17 14-8 50-30 29-17z" fill="#54B2DC"/>
<path transform="translate(223,1132)" d="m0 0 17 1 564 59 360 37 126 13 66 7 15 1 1 3-8 20-10 24h-20l-280-32-141-16-334-38-218-25-218-25-17-2v-2l15-2 35-10 38-10 9-1z" fill="#32373A"/>
<path transform="translate(1394,455)" d="m0 0h4v350l-1 255-1 137-4 13-12 29-18 44-7 16-11-1v-1h10l3-9 11-27 5-13h2l1-8 1-3 1-168h1l1 160 1 1 2-5 1-117 1-55h1l1 12v145h2l2-8 1-62 1-94v-90l-1-14-1-4-1 8h-3v6h-1l-1-15-2-5v-3h-2l-1-4v-16l1-9-1-1-1 49-2 2-2-25v-29l6-2 1-111 7 1 1-96v-125l-20-1-93-1-32-1-140-2-34-1-97 2h-40l-1-1v-66l1-5 19-2 118-8h7l1 38v34l1 3 1-75 21-2 118-8h12l1 58 1 17 1-75 1-1 69-5 76-5z" fill="#403634"/>
<path transform="translate(422,605)" d="m0 0h11l1 32 29 7 39 9 9 2h11l21-8 3 1-13 6-9 4h-12l-11-1-3 2 2 1 5 4v2l11 3 5 5 3 2 4-1h11v4l-1 5 7 1 3 2v2l10 1 2 1h6l7-2 13-1 13-2 8 1h6l2 1-2 5-6 12h4l1 2 3 1v-2l7-2 24-12 6-2 19-11h3v-2l5-3h4l1-3 5-1v-2l8-4h2v-2l6-2 1-2 9-5 15-10h3l2-4 4 2-18 11-24 15-18 11-16 10-21 13-23 14-21 13-19 12-24 15-18 11-23 14-13 8-5-1-9-7-17-12-11-8-19-13-20-14-14-10-16-11-18-13-16-11-15-11-15-10-12-9-17-12-2-3v-36l13 1 23 3v-2l8-1z" fill="#DB1413"/>
<path transform="translate(294,607)" d="m0 0h1l1 36 5 5 17 12 11 8 12 8 16 12 19 13 14 10 16 11 15 11 19 13 16 11 18 13 17 12 3 3h-2l2 5-4 4h-6l-17-12-23-16-12-8-10-7-17-12-18-13-24-16-11-8-16-11-14-10-3-1 5 4v2l4 2 8 7 5 5 5 4v3h2l5 5 12 13 13 12 13 13 4 5 8 7 11 10 13 10 7 8 2 1v2l4 2 8 6 8 7 6 3 7 5 10 2 19 2h7l7-1 9-3 10-4 13-4 8-3 11-1 5-3 2 1-3 1v3l7-3 7-4 5-2 4-1v-2l6-4 5-1 12-6 10-6 10-5h2v-2l16-8 7-5 12-6 10-7 6-3 3 1-20 12-22 13-40 24-29 17-50 30-18 11-21 12-20 12-4-2-15-11-18-13-14-10-16-12-14-10-15-11-18-13-38-28-14-10-19-14-18-13-9-7 2-1v-83l21 2 8 1 5 4z" fill="#90B520"/>
<path transform="translate(711,728)" d="m0 0 14 1 5 1 7-1 10 3 6 5 3 1v2l4 1v2l6 2 3 2v2l6 2 4 3v2l5 2 7 5v2l5 2 13 8 10 7 5 3v2l5 2 15 10 10 7 11 8 5 4 9 5 10 7 7 5 9 5 11 8 16 10v2l5 1 9 6 14 8 7 5 3 1v2l5 2 14 8 17 8 12 5 16 3h27l19-2 27-4 7-2 17-3 13-3 15-2 24-5 26-5 35-8 25-6 17-6 13-1 18-4 6-2 13-2h8v-2l14-3 7-3h3l1-2 5 5 3 13 1 8h2l1-77h1v101l-7 3-19 3-161 20-146 18-31 4h-6l-7 1-14-9-18-13-13-10-14-10-36-26-19-14-18-13-38-28-14-10-18-13-16-12-11-8-17-12-16-12-19-13-4-5-1-2-5-2-6-1z" fill="#90B61F"/>
<path transform="translate(1071,556)" d="m0 0 34 1 140 2 32 1 93 1 20 1 1 1v125l-1 93-1 3-8-1-19-5-87-25-52-15-2-2 14 2-6-2-11-4-10-3-9-3-9-2-5-2-9-3-9-2v-2l-9-1-7-3-9-3-17-4v-2l-10-1v-2l-10-2-9-3-16-5-7-1v-2l-5-1v-3h12l12 3 6 2 13 1 10 2 8 1h17l6 1 22 2 11 2h8l24 4 18 2 10 1 11-1h21l11-2h11l10-3 8-6 10-4 7-9 6-2 2-4 3-3v-6l3-7 2-4-1-5 1-9 1-1v-8l-1-7 2-3v-7l2-4 1-12-4-7v-5l3-1 2 1 2-5 18-8h2l1-2 4 4 2 6v5h3v-20l-116-1-36-2-114-1-36-1h-55l-35 1h-78v-1z" fill="#DC1413"/>
<path transform="translate(1384,349)" d="m0 0h15v45l-1 59-4 1-138 9h-21v-66l1-34 4-1 113-10z" fill="#3F3533"/>
<path transform="translate(1231,363)" d="m0 0h2v88l-1 13-4 1-139 9h-8v-97l30-3z" fill="#3F3534"/>
<path transform="translate(1064,378)" d="m0 0h14v96l-3 1-102 7-32 2h-7v-94z" fill="#3F3533"/>
<path transform="translate(920,391)" d="m0 0h11v93l-5 1-75 5-47 3h-8v-90l1-1z" fill="#3F3533"/>
<path transform="translate(787,403)" d="m0 0h6v90l-3 1-103 7h-20l-1-86 1-1 31-3z" fill="#3F3533"/>
<path transform="translate(653,505)" d="m0 0h10l1 1v86l-1 1-12 1-102 4-3-1v-84l1-1z" fill="#3F3533"/>
<path transform="translate(652,415)" d="m0 0h12v86l-2 2-107 7h-9v-85l18-2z" fill="#3F3533"/>
<path transform="translate(422,605)" d="m0 0h11v32l-14-2-43-10-17-4h-7l11 4 5 5 10 7v4l2 1v2l4 1 3 8 7 9 5 5 3 5 3 6 4 3v2l4 2 5 5v2h3l1 6 4 2 8 8 4 1 1 6 4 2 3 5v7l3 3 5 4 2 5 6 2 11 6 3 2v2l9 1 3 3 1 8-1 4-4 1-5-3-6-3-3-2v-2h-2v-2h-4v-2l-4-1v-2l-5-2v-2l-5-1-2-1v-2h-3v-2l-4-1-4-4-5-2-5-4-7-4-6-4v-2l-5-1v-2l-4-1v-2h-5l5 5-5-2-14-10-20-14-14-10-11-8-15-10-12-9-17-12-2-3v-36l13 1 23 3v-2l8-1z" fill="#CB1412"/>
<path transform="translate(787,496)" d="m0 0h6l1 28v37l-1 1-21 2-17 5-37 14-25 9h-26v-87l2-1 105-7z" fill="#403634"/>
<path transform="translate(922,487)" d="m0 0h8l1 1v71l-13 1-73 2h-49v-66l25-2z" fill="#403634"/>
<path transform="translate(532,513)" d="m0 0h11l1 73-1 11-1 1-29 2-69 3h-8l-1-1v-82l22-2z" fill="#403634"/>
<path transform="translate(542,425)" d="m0 0h1v85l-3 1-88 6h-17l-1-82 17-2z" fill="#3F3533"/>
<path transform="translate(711,728)" d="m0 0 14 1 5 1 7-1 10 3 6 5 3 1v2l4 1v2l6 2 3 2v2l6 2 4 3v2l5 2 7 5v2l5 2 13 8 10 7 5 3v2l5 2 15 10 10 7 11 8 5 4 9 5 10 7 7 5 9 5 11 8 16 10v2l5 1 9 6 14 8 7 5 3 1v2l5 2 14 8 17 8 12 5 16 3h27l19-2 27-4 7-2 17-3 13-3 15-2 24-5 26-5 35-8 25-6 17-6 13-1 18-4 6-2 13-2h8v-2l14-3 7-3h3l1-2 5 5 3 13 1 8h2l1 2v14l-3 1-3-9-2-3v-4l-2-1-3-3-10-2-19 2-23 4-35 8-36 9-32 6-33 7-25 5-13 2-5 2h-7l-16 3-14 2-17 3-9 1-7 2-13 1-5 1h-14l-20-2-5-1-10-4-7-3v-2l-7-1v-2l-4-1-7-3-5 1-4-2-22-16-14-10-17-12-16-12-11-8-17-12-19-14-14-10-18-13-15-11-36-26-12-9-14-10-11-7-8-1-3 1-5-2-6-1z" fill="#93C21A"/>
<path transform="translate(428,520)" d="m0 0h4l1 27v56l-31 2-42 2h-29v-80l5-1z" fill="#3F3533"/>
<path transform="translate(428,435)" d="m0 0h4v83l-23 2-74 5h-4l-1-40v-37l1-4 86-8z" fill="#3F3533"/>
<path transform="translate(299,666)" d="m0 0 4 2 9 5 5 4 5 5 2 4 4 2 8 7 5 5 5 4v3h2l5 5 12 13 13 12 13 13 4 5 8 7 11 10 13 10 7 8 2 1v2l4 2 8 6 8 7 6 3 7 5 10 2 19 2h7l7-1 9-3 10-4 13-4 8-3 11-1 5-3 2 1-3 1v3l7-3 7-4 5-2 4-1v-2l6-4 5-1 12-6 10-6 10-5h2v-2l16-8 7-5 12-6 10-7 6-3 3 1-20 12-22 13-40 24-29 17-50 30-18 11-16 9h-4l-1-3 3-1v-3l5-3 7-8 1-3-5-2-14-1-2-1-15-2-11-5-4-4-6-3-13-10-14-14-5-2-7-8-5-4-7-8-8-7-5-5v-2l-4-2-6-6v-2l-4-1-9-9-5-6-3-1-5-6h-2v-2h-2l-9-11-6-6v-2l-3-1-5-5-5-6-1-5-4-1v-2h-2l-3-6-9-10z" fill="#93C21A"/>
<path transform="translate(513,601)" d="m0 0h31l1 45-5 3-18 7h-11l-39-9-38-9 1-33 38-2z" fill="#403634"/>
<path transform="translate(1071,556)" d="m0 0 34 1 140 2 32 1 93 1 20 1 1 1v125l-1 93-1 3-8-1-19-5-31-9v-1l8 1 5 1v-2l-11-3-6-3-8-2-10-3-6-2-5-1v-2l-9-1-5-2-6-2-11-3-5-2-7-2-17-5-5-2-10-3-6-3v-1l14 1 22 4 21 4 14 3 14 1 5-1h14v2l2-2 8-1 8 2 11 1 9-3 4-1 11-5 6-1 6 12 1-4 1-39v-23l1-72v-38l-1-2-116-1-36-2-114-1-36-1h-55l-35 1h-78v-1z" fill="#CB1412"/>
<path transform="translate(1379,897)" d="m0 0 3 3-1 9v20h2l3 8 1 9h3v-8l2-1 1 5 1 14v90l-1 94-1 62-2 8h-4v-146l-1 44-1 117-3 6-2-4v-8l-1 18-3 11h-1v-38l1-2 1-75 1-181 1-4z" fill="#90B81F"/>
<path transform="translate(1390,781)" d="m0 0 2 1 2 5 2 26v384l-4 13-12 29-18 44-7 16-11-1v-1h10l3-9 11-27 5-13h2l1-8 1-3 1-168h1l1 160 1 1 2-5 1-117 1-55h1l1 12v145h2l2-8 1-62 1-94v-90l-1-14-1-4-1 8h-3v6h-1l-1-15-2-5v-3h-2l-1-4v-16l1-9-1-1-1 49-2 2-2-25v-29l6-2 1-111 7 1z" fill="#3F3533"/>
<path transform="translate(223,1132)" d="m0 0h6v2l18 1 24 3 3 2h-14l-14-1h-4l-10 2-5 3-3 6-2 13 10 3 12 2v2l519 59 218 25 237 27 50 6 38 4 37 5v1h-9l-280-32-141-16-334-38-218-25-218-25-17-2v-2l15-2 35-10 38-10 9-1z" fill="#5E665A"/>
<path transform="translate(657,595)" d="m0 0h7l1 7-9 4-58 22-46 17-6 1v-46l82-4z" fill="#3F3533"/>
<path transform="translate(236,719)" d="m0 0 9 1 8 1 8 6 11 8 14 10 4 2v2l5 2 13 10 17 12 11 8 2 1v2l4 2 10 7 14 10 2 1v2l5 2 18 13 19 14 8 6 18 13 16 12 5 4v2l5 2-2 4-8 1-14-9-11-8-12-9-19-14-20-15-14-10-18-13-38-28-20-15-11-8-21-16-10-8-9-5z" fill="#90B620"/>
<path transform="translate(1389,347)" d="m0 0h11v194l-1 145h-1v-231l-4 1-73 5h-13l-6-1v-1l92-6h4v-59l1-45-36 3-110 10-17 1-1 33h-1l-1-32-145 13h-7v91l-3 1v-91l-144 13-1 84h-1l-1-22v-62l-32 3h-10v-2l433-39z" fill="#987E5E"/>
<path transform="translate(436,607)" d="m0 0h12v2l5 2 1 3h4l3 3 6 2 6 4 7 6 11 1 11 2h17l3 1h4l4 4 1 3 1 2 6-2h4l-1 7-7 1-2 1-1-1v2l-4 1-7 2h-7l-4-2-18-2v-2l-13-1-21-5-19-3-2-1z" fill="#322525"/>
<path transform="translate(422,605)" d="m0 0h11v32l-14-2-43-10-42-10-20-4-4-2 16 1 5 1v-2l8-1z" fill="#322525"/>
<path transform="translate(1384,936)" d="m0 0 2 1 1 9h3v-8l2-1 1 5 1 14v90l-1 94-1 62-2 8h-4v-146l-1-11z" fill="#987A61"/>
<path transform="translate(722,731)" d="m0 0 8 1 11 7 14 10 17 13 17 12 18 13 11 8 36 26 19 14 17 12 16 12 17 12 18 13 15 11 18 13 15 11 17 12 8 6v3l-5-1-12-8-14-10-15-11-19-14-17-12-12-9-14-10-11-8-19-14-17-12-15-11-19-14-14-10-18-13-12-9-10-7-16-12-17-12-9-6-8-4z" fill="#53AED7"/>
<path transform="translate(721,733)" d="m0 0 10 4 17 12 16 12 10 7 19 14 18 13 11 8 15 11 36 26 19 14 5 6 11 7 10 8 13 9 5 5v2l-7-2-12-9-15-11-18-13-19-14-18-13-16-12-17-12-34-25-54-39-5-4-1-3z" fill="#ACD11F"/>
<path transform="translate(787,401)" d="m0 0h8v71h-1l-1-68-17 1-89 8-20 2-1 47-2-1v-46l-112 10h-6l-1 81h-2l-1-80-103 9h-5v52h-2v-53l1-1 221-20 91-8z" fill="#A3965B"/>
<path transform="translate(1394,563)" d="m0 0h3v136l-1 114h-1l-2-26-2-5 1-218z" fill="#322525"/>
<path transform="translate(1133,370)" d="m0 0h12l-2 2-55 5h-7v91l-3 1v-91l-144 13-1 84h-1l-1-22v-62l-32 3h-10v-2l234-21z" fill="#A89373"/>
<path transform="translate(332,582)" d="m0 0h1l1 11 4 2 14-3 4-2h8l10 2 2 1 14 2 16 2 14 3v3l-66 3h-22z" fill="#322525"/>
<path transform="translate(1383,963)" d="m0 0h1l1 13v132l-1 103-1 9-2-3-1-84 1-148z" fill="#B7DC20"/>
<path transform="translate(223,1133)" d="m0 0 1 2-5 6-13 3-12 1-22 7-2 2v3l9 2h10l16 3 12 2 2 3h-25l-68-8v-2l15-2 35-10 38-10z" fill="#393231"/>
<path transform="translate(1385,1053)" d="m0 0h1l1 12v145h2l4-4-3 9-15 36-13 32-7 16-11-1v-1h10l3-9 11-27 5-13h2l1-8 1-3 1-168h1l1 160 1 1 2-5 1-117z" fill="#57423B"/>
<path transform="translate(1378,948)" d="m0 0h1l1 51v69l-1 1-1 168-3 11h-1v-38l1-2 1-75 1-181z" fill="#968B4F"/>
<path transform="translate(1071,556)" d="m0 0 34 1 140 2 31 1v2h73v1h-77l-36-2-114-1-36-1h-55l-35 1h-78v-1z" fill="#CE1412"/>
<path transform="translate(1389,347)" d="m0 0 3 1-1 1-38 4-113 10h-4l-1 33h-1l-1-32-68 6-10 1h-10l-1-2 100-9z" fill="#98805B"/>
<path transform="translate(892,855)" d="m0 0 4 2 14 10 17 12 12 9 14 10 9 7 5 5 16 12 4 4 9 5 7 6-2 2-9-4-16-12-19-14-18-13-7-5 3-2-9-8-16-11-16-12z" fill="#92BE1C"/>
<path transform="translate(422,434)" d="m0 0h10l-4 2-87 8h-10v81l4-1 33-2-1 3-36 2v23l-1 38h-1v-145l28-3z" fill="#978259"/>
<path transform="translate(1393,1046)" d="m0 0h1l1 48h1v103l-3 9-2 1 1-67z" fill="#4D403A"/>
<path transform="translate(422,605)" d="m0 0h11v32l-14-2-22-5v-1l10 1 25 5v-28l-49 2-35 1-11 1 7 1v3l17 4 11 3v1l-9-1-29-7-20-4-4-2 16 1 5 1v-2l8-1z" fill="#403634"/>
<path transform="translate(1163,558)" d="m0 0 82 1 31 1v2h73v1h-77l-36-2-114-1v-1z" fill="#D41413"/>
<path transform="translate(523,425)" d="m0 0 3 1-7 2-80 7h-5v52h-2v-53l1-1z" fill="#9E934F"/>
<path transform="translate(945,387)" d="m0 0 4 1-5 2-10 1-1 84h-1l-1-22v-62l-32 3h-10v-2z" fill="#B7AB84"/>
<path transform="translate(1379,1080)" d="m0 0h1l2 137 1-6h1v14l-3 6-2-4z" fill="#92B027"/>
<path transform="translate(1378,948)" d="m0 0h1l1 51v50l-2 6h-1v-103z" fill="#959346"/>
<path transform="translate(721,733)" d="m0 0 10 4 17 12 16 12 10 7 19 14 8 6-3 1-10-8-10-7-16-11-13-10-10-7-1 1 2 3-4-2-14-10-2-4z" fill="#90B620"/>
<path transform="translate(574,740)" d="m0 0 3 1-14 9-23 14-16 10-23 14h-3v-2l5-3 3-1v-2l4-2 3-2 11-8 14-7 4-1 1-2h4v-3l5-1 1-2 6-1v-2l5-1v-2l3-1 1-2z" fill="#CB1412"/>
<path transform="translate(1235,361)" d="m0 0h9l-4 2h-4l-1 33h-1l-1-32-68 6-10 1h-10l-1-2z" fill="#98815A"/>
<path transform="translate(1382,893)" d="m0 0h1v12h-1l-2-6-1 49-2 2-2-25v-29z" fill="#403634"/>
<path transform="translate(787,401)" d="m0 0h8v71h-1l-1-68-17 1-32 3h-10l-1-2z" fill="#B8B86D"/>
<path transform="translate(1377,1198)" d="m0 0h1v39l-3 11h-1v-38l1-2 1-9z" fill="#949643"/>
<path transform="translate(686,741)" d="m0 0 3 1-20 12-22 13-20 12-8 4 2-4 8-5 6-2v-2l16-8 7-5 12-6 10-7z" fill="#92BF1B"/>
<path transform="translate(657,595)" d="m0 0h7l1 7-9 4-8 1v-2l2-1 1-4h-8l-4-2h7v-2z" fill="#3F3634"/>
<path transform="translate(223,711)" d="m0 0 21 1 9 2-1 2-4 1-1 2-4 1-2-3h-5v3l-4-1-1-3-7-1-2-1z" fill="#62A696"/>
<path transform="translate(735,639)" d="m0 0 4 2-18 11-24 15-18 11-2-1 3-3h3l1-3 5-1v-2l8-4h2v-2l6-2 1-2 9-5 15-10h3z" fill="#DF1514"/>
<path transform="translate(721,407)" d="m0 0h13l-1 2-59 5h-6l-1-2z" fill="#98845A"/>
<path transform="translate(1e3 382)" d="m0 0h12l-1 2-56 5h-7l1-2 29-3z" fill="#98815A"/>
<path transform="translate(310,609)" d="m0 0 16 1 5 2h13v3l17 4 11 3v1l-9-1-29-7-20-4z" fill="#3F3634"/>
<path transform="translate(1373,1248)" d="m0 0 2 3-13 32-7 16-11-1v-1h10l3-9 11-27z" fill="#897F67"/>
<path transform="translate(657,413)" d="m0 0h11l-1 2-1 47-2-1v-46h-8z" fill="#A6A347"/>
<path transform="translate(1332,457)" d="m0 0h23l-4 2-30 2h-13l-6-1v-1z" fill="#97815B"/>
<path transform="translate(372,607)" d="m0 0h24v1l-13 1-35 1-11 1-1 2h-5l-1-2 1-2 8-1z" fill="#403634"/>
<path transform="translate(683,586)" d="m0 0h4v2l6-1 2-1h6l-1 2-4 1v2l-5 1h-14l-1-1h-7l-1-3h8z" fill="#35393B"/>
<path transform="translate(1375,896)" d="m0 0h3v31l-2 3-1-5z" fill="#322A2B"/>
<path transform="translate(892,855)" d="m0 0 4 2 14 10 17 12 12 9-2 1-5-3-12-9-11-8-10-7-7-6z" fill="#90B71F"/>
<path transform="translate(1396,527)" d="m0 0h1v34l-4-2v-11l2-18z" fill="#322525"/>
<path transform="translate(543,647)" d="m0 0 3 1-13 6-9 4h-12l-6-1v-2l-9-1v-1l10 1 4 1h11z" fill="#D01412"/>
<path transform="translate(1235,361)" d="m0 0h9l-4 2h-4l-1 33h-1l-1-32-20 1 1-2z" fill="#A19F46"/>
<path transform="translate(987,927)" d="m0 0 4 1 9 6 3 4-2 1-9-4-5-6z" fill="#93C11A"/>
<path transform="translate(987,923)" d="m0 0 6 2 9 6 5 3v2l5-1 2 2v3l-5-1-12-8-10-7z" fill="#4B99BB"/>
<path transform="translate(223,711)" d="m0 0 14 2 1 2-2 2v3l-4-1-1-3-7-1-2-1z" fill="#50A1C5"/>
<path transform="translate(1338,1250)" d="m0 0h14l18 1 2 2-2 6-2-1v-3h-2v-2l-22-1-6-1z" fill="#403634"/>
<path transform="translate(668,594)" d="m0 0h15l-3 3-12 4-1-1v-5z" fill="#373839"/>
<path transform="translate(344,447)" d="m0 0 6 1-1 3-9 2-3 9h-2l-1-4 4-8z" fill="#32383B"/>
<path transform="translate(966,385)" d="m0 0h13l-1 2-23 2h-7l1-2z" fill="#9A8061"/>
<path transform="translate(683,591)" d="m0 0h8v2l-8 2-15-1 1-2z" fill="#4A8094"/>
<path transform="translate(1382,1228)" d="m0 0 1 4-7 17-2 1 3-13 1-8 3 1z" fill="#4B3F3B"/>
<path transform="translate(646,597)" d="m0 0h17v5l-7-2h-13l-4-2z" fill="#322525"/>
<path transform="translate(419,439)" d="m0 0 11 2v4h-6l-3-2-11-1-1-2z" fill="#32383B"/>
<path transform="translate(683,586)" d="m0 0h4l-2 4-16 1-1-3h8z" fill="#322525"/>
<path transform="translate(800,551)" d="m0 0 4 1 4 3v2l-6 2h-5v-3l3-2z" fill="#32383B"/>
<path transform="translate(1378,927)" d="m0 0h1v21l-2 2-1-20z" fill="#3D3635"/>
<path transform="translate(310,609)" d="m0 0 16 1 10 3 1 2-13-2-14-3z" fill="#5E4D43"/>
<path transform="translate(339,608)" d="m0 0h14l-1 2-15 1-1 2h-5l-1-2 1-2z" fill="#3A3636"/>
<path transform="translate(711,728)" d="m0 0 14 1 4 1v2h-7l-3 1-5-2-6-1z" fill="#91BB1D"/>
<path transform="translate(787,401)" d="m0 0h8l-1 3-24 1 1-2z" fill="#9C8661"/>
<path transform="translate(721,407)" d="m0 0h13l-1 2-19 1 1-2z" fill="#9B8162"/>
<path transform="translate(262,635)" d="m0 0 8 1-1 3-9 3 1-5z" fill="#99C61B"/>
<path transform="translate(651,601)" d="m0 0h7v3h-2v2l-8 1v-2l2-1z" fill="#33373A"/>
<path transform="translate(136,1156)" d="m0 0h5l-1 4-14-1v-2z" fill="#4F4E43"/>
<path transform="translate(945,387)" d="m0 0 4 1-5 2-12 1v-3z" fill="#978556"/>
<path transform="translate(679,674)" d="m0 0m-1 1m-1 1m-3 1h3l-1 3-9 5v-3l4-3h3z" fill="#DC1514"/>
<path transform="translate(1373,1248)" d="m0 0 2 3-5 13-2-1 3-10z" fill="#8F7E5D"/>
<path transform="translate(589,730)" d="m0 0 4 1-12 8-3-1 10-7z" fill="#CD1412"/>
<path transform="translate(223,711)" d="m0 0 14 2 1 2-16-1z" fill="#54B1DA"/>
<path transform="translate(528,428)" d="m0 0h10l4 3-6 1-8-3z" fill="#32383B"/>
<path transform="translate(1176,366)" d="m0 0 4 1-3 2h-11v-2z" fill="#978556"/>
<path transform="translate(1367,1251)" d="m0 0 5 1-2 7-2-1v-3h-2z" fill="#3E3533"/>
</svg>
