<svg width="25" height="25" viewBox="0 0 25 25" fill="none" xmlns="http://www.w3.org/2000/svg">
<path d="M3.4165 6.65137H5.4165H21.4165" stroke="#A30D11" stroke-width="2" stroke-linecap="round" stroke-linejoin="round"/>
<path d="M8.4165 6.65137V4.65137C8.4165 4.12093 8.62722 3.61223 9.00229 3.23715C9.37736 2.86208 9.88607 2.65137 10.4165 2.65137H14.4165C14.9469 2.65137 15.4556 2.86208 15.8307 3.23715C16.2058 3.61223 16.4165 4.12093 16.4165 4.65137V6.65137M19.4165 6.65137V20.6514C19.4165 21.1818 19.2058 21.6905 18.8307 22.0656C18.4556 22.4407 17.9469 22.6514 17.4165 22.6514H7.4165C6.88607 22.6514 6.37736 22.4407 6.00229 22.0656C5.62722 21.6905 5.4165 21.1818 5.4165 20.6514V6.65137H19.4165Z" stroke="#A30D11" stroke-width="2" stroke-linecap="round" stroke-linejoin="round"/>
<path d="M10.4165 11.6514V17.6514" stroke="#A30D11" stroke-width="2" stroke-linecap="round" stroke-linejoin="round"/>
<path d="M14.4165 11.6514V17.6514" stroke="#A30D11" stroke-width="2" stroke-linecap="round" stroke-linejoin="round"/>
</svg>
