<?xml version="1.0" encoding="UTF-8"?>
<svg version="1.1" xmlns="http://www.w3.org/2000/svg" width="512" height="512">
<path d="M0 0 C6.21663169 2.83318568 11.82384027 4.64467431 18.68945312 4.54785156 C19.70523438 4.54140625 20.72101563 4.53496094 21.76757812 4.52832031 C24.54216651 4.46838198 24.54216651 4.46838198 27.43945312 3.36035156 C33.71662704 2.78969939 33.71662704 2.78969939 36.81445312 5.23535156 C42.05949023 12.09424624 39.97677234 24.13390111 39.43945312 32.36035156 C38.5920445 38.59736978 37.44338566 45.70488285 34.39404297 51.26733398 C33.28350211 53.70228713 33.15594558 55.48056965 33.09570312 58.14941406 C33.06766602 59.08156738 33.03962891 60.0137207 33.01074219 60.97412109 C32.9872168 61.96782715 32.96369141 62.9615332 32.93945312 63.98535156 C31.84410811 94.99912483 26.5178953 125.62168874 6.68164062 150.57128906 C5.19236403 152.36547191 5.19236403 152.36547191 5.37695312 155.04785156 C8.30902025 164.18900201 15.33338432 172.09018255 23.76342773 176.60498047 C30.56261062 179.88565805 37.26551785 181.69318977 44.62695312 183.23535156 C68.73619756 188.67621678 89.768145 200.03826445 103.53710938 221.10253906 C106.40361788 226.01150846 108.7046365 230.94696391 110.43945312 236.36035156 C110.80910187 237.4383905 110.80910187 237.4383905 111.18621826 238.53820801 C114.31524648 248.98943605 113.87427553 259.55653815 113.83789062 270.35644531 C113.8399147 272.47966105 113.84282892 274.6028761 113.84658813 276.72608948 C113.85098901 281.15299162 113.84464832 285.57971103 113.83056641 290.0065918 C113.81340239 295.67817537 113.82337545 301.34933522 113.8412838 307.02090359 C113.85211969 311.39521994 113.84867742 315.76943559 113.84090042 320.14375496 C113.83890168 322.2357291 113.84134622 324.32771242 113.84833908 326.41967583 C113.85595832 329.33691606 113.84434579 332.25346554 113.82763672 335.1706543 C113.83370941 336.03149628 113.8397821 336.89233826 113.84603882 337.77926636 C113.77843311 344.15098379 112.41236071 347.18089447 108.08529472 351.96097374 C103.44015866 355.73328471 97.96888671 355.04696971 92.25524902 354.98854065 C90.39793474 354.99918223 90.39793474 354.99918223 88.50309896 355.01003879 C85.07306721 355.02458617 81.64441803 355.01673314 78.21448779 354.99931586 C74.51297426 354.98594064 70.81156508 355.00137945 67.11006165 355.01313782 C59.86166355 355.03151772 52.61353502 355.02299987 45.36514533 355.00504959 C39.47430177 354.99102439 33.58353138 354.98713062 27.69267273 354.99049187 C26.85428355 354.99096931 26.01589437 354.99144675 25.15209946 354.99193866 C23.44893203 354.99296499 21.74576462 354.99402035 20.04259723 354.99510442 C4.9819575 355.00367219 -10.07855209 354.98699403 -25.13916016 354.95727539 C-39.75347358 354.9284378 -54.36759952 354.92135433 -68.98193359 354.93676758 C-84.8956688 354.95352827 -100.80931498 354.9575653 -116.7230525 354.94005722 C-118.41995715 354.93821283 -120.11686181 354.9363781 -121.81376648 354.93455315 C-122.64867769 354.93364106 -123.4835889 354.93272897 -124.34380046 354.93178924 C-130.2276134 354.92618302 -136.11138289 354.92949182 -141.99519348 354.9360981 C-149.16555776 354.94382927 -156.33573746 354.93708658 -163.50606453 354.91192306 C-167.16457309 354.89942287 -170.82279423 354.89328756 -174.48131371 354.90446472 C-178.44650102 354.91635006 -182.41119202 354.89725711 -186.37634277 354.87501526 C-187.53373034 354.88325603 -188.69111791 354.89149679 -189.88357782 354.89998728 C-196.08382677 354.83559182 -199.86079886 354.55045301 -204.56054688 350.36035156 C-208.66175859 345.69345547 -208.71300056 341.34015379 -208.72167969 335.36328125 C-208.72664459 334.54813049 -208.7316095 333.73297974 -208.73672485 332.89312744 C-208.7513544 330.18948522 -208.75815412 327.48590192 -208.76367188 324.78222656 C-208.76942805 322.89430745 -208.77518573 321.00638834 -208.78094482 319.11846924 C-208.79146075 315.15059131 -208.79729777 311.18273365 -208.80078125 307.21484375 C-208.80623009 302.16841199 -208.8301774 297.12225496 -208.8587532 292.07590866 C-208.87753599 288.16871406 -208.88259369 284.26158313 -208.88411713 280.35434723 C-208.88711526 278.49670174 -208.89504584 276.6390566 -208.90830231 274.78145599 C-209.06442756 251.19649626 -204.46261842 230.38496846 -187.83007812 212.54394531 C-174.35198826 199.57621341 -157.10325211 191.69236343 -138.92089844 187.97167969 C-126.66908633 185.44730963 -115.33868938 181.83491681 -107.56054688 171.36035156 C-105.32523831 167.45575677 -103.37198901 163.47726551 -101.56054688 159.36035156 C-102.36492187 158.47347656 -103.16929687 157.58660156 -103.99804688 156.67285156 C-127.61322639 128.93615487 -136.32516899 93.19672747 -134.56054688 57.36035156 C-133.33110467 43.40466984 -129.65288176 28.76037668 -119.02148438 18.93847656 C-117.55524122 17.72036687 -116.05833315 16.53945991 -114.56054688 15.36035156 C-112.88287947 13.70475873 -111.2173226 12.03685081 -109.56054688 10.36035156 C-77.96469217 -21.1327524 -37.79097739 -17.37012129 0 0 Z " fill="#2B3164" transform="translate(307.560546875,157.6396484375)"/>
<path d="M0 0 C19.1523665 3.00340687 39.1372319 7.75862479 54 21 C54.6496875 21.5465625 55.299375 22.093125 55.96875 22.65625 C65.11727177 30.96029284 69.50006331 41.33354436 73 53 C73 82.7 73 112.4 73 143 C-22.7 143 -118.4 143 -217 143 C-217 45.89772727 -217 45.89772727 -200.9375 28.375 C-189.51119953 17.71728476 -175.00435739 11.59291088 -160 8 C-159.2059375 7.80535156 -158.411875 7.61070312 -157.59375 7.41015625 C-155.39675516 6.89476534 -153.22055272 6.40373686 -151 6 C-150.37810791 5.84789062 -149.75621582 5.69578125 -149.11547852 5.5390625 C-146.98916204 5.11027561 -145.16644593 4.85731481 -143 5 C-140.48828125 7.078125 -140.48828125 7.078125 -138.3125 10.25 C-137.90515625 10.8262915 -137.4978125 11.40258301 -137.078125 11.99633789 C-135.68879645 13.9784639 -134.34532186 15.98778222 -133 18 C-131.94357448 19.53664913 -130.88489444 21.07175022 -129.82421875 22.60546875 C-127.60070093 25.83144057 -125.39071174 29.06606978 -123.19140625 32.30859375 C-120.30364117 36.56062988 -117.39555997 40.79652956 -114.4375 45 C-114.04433594 45.56904053 -113.65117187 46.13808105 -113.24609375 46.72436523 C-110.21177999 51.01627872 -110.21177999 51.01627872 -106 54 C-102.93441805 54.14978897 -102.93441805 54.14978897 -100 53 C-97.89054786 50.85142956 -97.89054786 50.85142956 -96.3125 48.125 C-94.38212363 45.08077427 -92.59294107 42.49657108 -90 40 C-89.78866598 47.23111437 -90.59614583 53.98995489 -91.75 61.12109375 C-91.92756836 62.26103287 -92.10513672 63.40097198 -92.28808594 64.57545471 C-93.04231543 69.41728248 -93.8121263 74.25659084 -94.58203125 79.09594727 C-95.14426485 82.64504683 -95.69738546 86.19548576 -96.25 89.74609375 C-96.51248535 91.36528969 -96.51248535 91.36528969 -96.78027344 93.01719666 C-98.29554096 102.47289017 -98.29554096 102.47289017 -98 112 C-95.94023799 114.92435453 -95.94023799 114.92435453 -93 117 C-92.12601562 117.825 -91.25203125 118.65 -90.3515625 119.5 C-82.11523142 127.92701553 -82.11523142 127.92701553 -71.73046875 132.46484375 C-66.75164658 131.84444601 -64.62203063 129.79577279 -61.0625 126.4375 C-60.45639893 125.8904541 -59.85029785 125.3434082 -59.22583008 124.77978516 C-58.02314896 123.69327484 -56.82625855 122.60031434 -55.63574219 121.50048828 C-53.53212303 119.57081018 -51.36217195 117.7238637 -49.1875 115.875 C-46.69872949 113.74795451 -46.69872949 113.74795451 -45 111 C-45.03783517 108.99764659 -45.15475853 106.996489 -45.3125 105 C-45.39113281 103.9275 -45.46976563 102.855 -45.55078125 101.75 C-45.88850781 98.93071744 -46.33014748 96.29706137 -46.91796875 93.53125 C-48.49965088 85.91035241 -49.30865539 78.16983601 -50.25 70.44970703 C-51.12814091 63.28565514 -52.01659051 56.1738575 -53.6328125 49.13085938 C-54.04787415 46.72217713 -54.0598654 44.43951517 -54 42 C-51.92046932 44.50977841 -50.03535439 46.94016949 -48.375 49.75 C-47.1987496 52.12145809 -47.1987496 52.12145809 -45 53 C-40.25736331 53.56531636 -40.25736331 53.56531636 -36.171875 51.54296875 C-33.04524913 47.88211724 -30.35216296 43.96371447 -27.625 40 C-26.3777579 38.20171628 -25.13035735 36.40354245 -23.8828125 34.60546875 C-23.24375977 33.68169434 -22.60470703 32.75791992 -21.94628906 31.80615234 C-20.03319634 29.04786236 -18.10897791 26.29776114 -16.1796875 23.55078125 C-15.25422119 22.23303711 -15.25422119 22.23303711 -14.31005859 20.88867188 C-13.13885953 19.22175894 -11.96733191 17.5550768 -10.79541016 15.88867188 C-7.11795268 10.64361189 -3.53014026 5.34530022 0 0 Z " fill="#52BD9D" transform="translate(332,353)"/>
<path d="M0 0 C0.65073486 -0.00241196 1.30146973 -0.00482391 1.97192383 -0.00730896 C3.34364942 -0.00633227 4.71541528 0.00701973 6.08691406 0.03198242 C8.18170591 0.0663113 10.2722796 0.05263686 12.3671875 0.03320312 C13.70314288 0.04010198 15.03908741 0.04977476 16.375 0.0625 C18.19064453 0.0788147 18.19064453 0.0788147 20.04296875 0.09545898 C23.75090554 0.72448397 24.91619404 1.69394242 27.1875 4.62890625 C28.015625 6.8125 28.015625 6.8125 28.4375 9.06640625 C28.58445312 9.84757813 28.73140625 10.62875 28.8828125 11.43359375 C29.21931072 13.85810654 29.3451984 16.18458103 29.1875 18.62890625 C32.83290557 19.60994922 34.55135081 19.95680899 37.96875 18.1953125 C38.8659375 17.53402344 39.763125 16.87273438 40.6875 16.19140625 C44.7198087 13.23090374 47.13175785 11.93699574 52.1875 12.62890625 C54.1015625 13.73828125 54.1015625 13.73828125 55.8125 15.37890625 C56.47636719 16.01054687 57.14023438 16.6421875 57.82421875 17.29296875 C58.60410156 18.06382813 59.38398438 18.8346875 60.1875 19.62890625 C61.23465651 20.61696815 62.28290556 21.60387298 63.33203125 22.58984375 C64.43113166 23.64302619 65.52878874 24.69771695 66.625 25.75390625 C67.15754395 26.25631836 67.69008789 26.75873047 68.23876953 27.27636719 C70.44339427 29.44885454 72.0524047 31.27968757 73.17578125 34.18359375 C73.19045809 37.24616112 72.39600789 38.94659288 70.9375 41.62890625 C70.47601563 42.49644531 70.01453125 43.36398438 69.5390625 44.2578125 C68.51360078 46.05681616 67.42663436 47.82092908 66.3125 49.56640625 C65.755625 50.58734375 65.755625 50.58734375 65.1875 51.62890625 C65.5175 52.61890625 65.8475 53.60890625 66.1875 54.62890625 C68.66821992 55.43410412 71.02596492 56.07256584 73.5625 56.62890625 C81.90776836 58.47992442 81.90776836 58.47992442 84.1875 61.62890625 C86.41127264 66.07645153 85.50703162 72.05766715 85.5625 76.94140625 C85.61857422 78.79668945 85.61857422 78.79668945 85.67578125 80.68945312 C85.76364654 89.72493342 85.76364654 89.72493342 83.12109375 93.87109375 C79.68602609 95.92938995 76.81425801 96.74191184 72.875 97.44140625 C71.62074219 97.67472656 70.36648437 97.90804687 69.07421875 98.1484375 C68.12160156 98.30699219 67.16898438 98.46554688 66.1875 98.62890625 C65.35878327 100.35154884 65.35878327 100.35154884 65.1875 102.62890625 C66.57144832 105.35066691 66.57144832 105.35066691 68.5625 108.06640625 C73.04297477 114.48365996 73.04297477 114.48365996 73.1875 118.62890625 C70.32922171 124.04674591 66.24075923 128.09125512 62 132.44140625 C60.90461914 133.62379883 60.90461914 133.62379883 59.78710938 134.83007812 C53.62077584 141.13841757 53.62077584 141.13841757 48.92578125 141.33203125 C45.19763233 140.63081202 43.44724134 139.93794454 40.5625 137.56640625 C37.61294912 135.14865172 36.80718749 134.56900806 32.9140625 134.9453125 C31.56441406 135.28369141 31.56441406 135.28369141 30.1875 135.62890625 C29.82398438 137.20091797 29.82398438 137.20091797 29.453125 138.8046875 C29.1153855 140.18379045 28.77679932 141.56268624 28.4375 142.94140625 C28.28023438 143.63169922 28.12296875 144.32199219 27.9609375 145.03320312 C27.22880737 147.94764424 26.64618995 150.17028231 24.4909668 152.32519531 C19.78768093 154.98715043 14.01836675 154.09673175 8.75 154.06640625 C7.52216797 154.08638672 6.29433594 154.10636719 5.02929688 154.12695312 C3.25329102 154.12598633 3.25329102 154.12598633 1.44140625 154.125 C-0.17785767 154.12777954 -0.17785767 154.12777954 -1.82983398 154.13061523 C-5.5177343 153.51028003 -7.17241573 152.23293025 -9.8125 149.62890625 C-10.95703125 146.71875 -10.95703125 146.71875 -11.625 143.56640625 C-11.97498047 142.00212891 -11.97498047 142.00212891 -12.33203125 140.40625 C-12.8125 137.62890625 -12.8125 137.62890625 -12.8125 134.62890625 C-16.03094979 134.13376013 -18.14768752 134.21018458 -20.93359375 135.96484375 C-21.67738281 136.51398438 -22.42117187 137.063125 -23.1875 137.62890625 C-26.7973255 140.16243537 -29.38980242 141.66644383 -33.859375 141.26171875 C-38.05911231 139.90100386 -40.79500463 136.72051554 -43.8125 133.62890625 C-44.78191206 132.67900353 -45.75339127 131.73120735 -46.7265625 130.78515625 C-55.6689483 122.02706048 -55.6689483 122.02706048 -56.09765625 117.8515625 C-55.66794542 112.99524142 -53.05202898 110.16860982 -50.24609375 106.3125 C-48.53769888 103.71388207 -48.53769888 103.71388207 -49.09765625 100.7890625 C-49.45150391 99.71978516 -49.45150391 99.71978516 -49.8125 98.62890625 C-50.77671875 98.45875 -51.7409375 98.28859375 -52.734375 98.11328125 C-54.62929687 97.74976562 -54.62929687 97.74976562 -56.5625 97.37890625 C-57.81546875 97.146875 -59.0684375 96.91484375 -60.359375 96.67578125 C-64.1599694 95.52356485 -65.40846316 94.72644627 -67.8125 91.62890625 C-68.53717956 87.50337348 -68.42924146 83.39581715 -68.38891602 79.21166992 C-68.37505901 77.19997326 -68.40911216 75.19294368 -68.44726562 73.18164062 C-68.44533203 71.90740234 -68.44339844 70.63316406 -68.44140625 69.3203125 C-68.44213135 68.15701416 -68.44285645 66.99371582 -68.44360352 65.79516602 C-67.62919486 61.70926047 -65.99481997 60.22863148 -62.8125 57.62890625 C-60.27734375 56.703125 -60.27734375 56.703125 -57.75 56.31640625 C-56.91339844 56.17589844 -56.07679687 56.03539062 -55.21484375 55.890625 C-52.8125 55.62890625 -52.8125 55.62890625 -48.8125 55.62890625 C-48.40857395 50.65917325 -49.18130629 48.52463346 -52.3125 44.69140625 C-54.49826556 41.68597861 -55.7820663 39.73542421 -56.8125 36.12890625 C-55.16103727 30.34878668 -51.00471086 26.78866966 -46.8125 22.62890625 C-46.06226562 21.85417969 -45.31203125 21.07945313 -44.5390625 20.28125 C-37.3414694 12.90973736 -37.3414694 12.90973736 -32.75 12.06640625 C-27.721695 12.78473554 -25.18603625 14.99742473 -21.33984375 18.1953125 C-18.08227417 20.04311472 -16.35393036 19.56951838 -12.8125 18.62890625 C-12.71453125 17.74847656 -12.6165625 16.86804688 -12.515625 15.9609375 C-12.36609375 14.79949219 -12.2165625 13.63804688 -12.0625 12.44140625 C-11.92328125 11.29285156 -11.7840625 10.14429688 -11.640625 8.9609375 C-9.92223104 2.04683351 -6.99375594 -0.00418955 0 0 Z M-6.75 63.31640625 C-10.29255131 69.00595836 -12.38660246 73.90167327 -11.4375 80.69140625 C-10.03158105 86.22882936 -7.13311222 89.96692394 -2.8125 93.62890625 C2.1401246 96.51043329 6.56729911 97.44921171 12.1875 96.62890625 C18.48330525 94.49473498 23.18109224 91.79011083 26.5 85.94140625 C28.85728367 80.75538219 29.21368343 75.95034018 27.52734375 70.4921875 C25.26163336 65.3428457 21.92884952 61.64432519 17.1875 58.62890625 C8.21584965 55.2835451 0.31300425 56.85450875 -6.75 63.31640625 Z " fill="#2B3063" transform="translate(158.8125,-0.62890625)"/>
<path d="M0 0 C0.83660156 0.51949219 1.67320312 1.03898438 2.53515625 1.57421875 C16.57319394 10.06840394 31.63190692 15.43058421 48.1875 15.25 C49.10805176 15.24178223 50.02860352 15.23356445 50.97705078 15.22509766 C67.83971598 14.95088401 81.19834281 10.85394055 96 3 C97.36636972 26.88616693 88.04262256 53.49826786 72.32421875 71.51171875 C71.55722656 72.33285156 70.79023438 73.15398437 70 74 C69.26394531 74.79019531 68.52789062 75.58039063 67.76953125 76.39453125 C56.10699374 87.86171637 42.65868245 92.29099377 26.66064453 92.31689453 C19.75520851 92.2154361 14.16696447 91.25648289 8 88 C7.17757812 87.5875 6.35515625 87.175 5.5078125 86.75 C-11.81149507 77.25405566 -21.54000816 61.61173332 -29 44 C-29.45890625 42.98421875 -29.9178125 41.9684375 -30.390625 40.921875 C-32.53050726 35.81468933 -33.66298537 31.93320587 -32.04296875 26.54296875 C-25.5826087 10.79130435 -25.5826087 10.79130435 -22 9 C-21.28714844 9.5775 -20.57429687 10.155 -19.83984375 10.75 C-14.04958791 15.65819766 -14.04958791 15.65819766 -7 17.6875 C-3.72491452 16.93695958 -2.90605417 16.68056034 -1 14 C-0.41781668 10.5776116 -0.41781668 10.5776116 -0.3125 6.8125 C-0.24675781 5.54019531 -0.18101562 4.26789063 -0.11328125 2.95703125 C-0.07589844 1.98121094 -0.03851563 1.00539062 0 0 Z " fill="#FDE2A9" transform="translate(227,230)"/>
<path d="M0 0 C9.52783796 4.26455519 17.99209691 5.51990217 28.375 6.1875 C29.18405558 19.73168963 25.38915888 32.26366935 16.875 42.875 C7.97907108 52.34053642 -5.0660009 57.07892617 -17.859375 57.62109375 C-20.03112425 57.64450084 -22.20321902 57.64525046 -24.375 57.625 C-25.51590088 57.61742676 -26.65680176 57.60985352 -27.83227539 57.60205078 C-41.28386267 57.34026124 -55.68762277 54.87683419 -65.75 45.12890625 C-67.45138712 43.19712295 -69.03661888 41.21182268 -70.625 39.1875 C-72.95741868 36.47768732 -73.29357975 36.22968076 -77.0625 35.75 C-81.30602599 36.27113477 -81.94274963 36.98678703 -84.625 40.1875 C-85.77973445 42.23212154 -86.86187038 44.31913807 -87.875 46.4375 C-88.65617187 48.05398437 -88.65617187 48.05398437 -89.453125 49.703125 C-90.03320312 50.93289062 -90.03320312 50.93289062 -90.625 52.1875 C-91.65625 51.506875 -92.6875 50.82625 -93.75 50.125 C-96.30876893 48.70174901 -97.63969287 48.18627559 -100.625 47.9375 C-104.51790832 49.55954513 -106.40377874 51.9302542 -109.01171875 55.1796875 C-110.46015824 56.98234585 -111.97817552 58.56969825 -113.625 60.1875 C-114.07396208 43.80383776 -114.48704752 28.37885464 -103.125 15.3125 C-100.625 13.1875 -100.625 13.1875 -98.25 11.875 C-95.66692544 10.21445207 -94.22008443 8.69688523 -92.25 6.375 C-83.53546113 -3.80744627 -72.28475746 -10.96761911 -58.75 -12.60546875 C-36.91932432 -14.05175101 -19.62605816 -8.8143218 0 0 Z " fill="#4DBBE4" transform="translate(302.625,172.8125)"/>
<path d="M0 0 C3.3 0 6.6 0 10 0 C10.18433594 0.89203125 10.36867188 1.7840625 10.55859375 2.703125 C11.99099114 9.42706604 11.99099114 9.42706604 16.05859375 14.6484375 C18.34744596 15.61338362 20.61167806 16.32476762 23 17 C24.051875 17.5775 25.10375 18.155 26.1875 18.75 C29.62367886 20.2771906 31.27333535 20.6576467 35 20 C38.16131653 18.2091064 41.09046631 16.17245182 44 14 C49.18010355 16.50961538 49.18010355 16.50961538 51 19 C50.43295571 22.96931003 48.3394158 25.61282888 46.05859375 28.8046875 C44.03369693 33.00392003 44.75176948 36.26414512 46.20703125 40.578125 C46.73086633 41.80697121 47.26625251 43.03095123 47.8125 44.25 C48.07353516 44.87390625 48.33457031 45.4978125 48.60351562 46.140625 C50.07036915 49.50171161 50.87415394 50.91610263 54 53 C56.04869074 53.44429438 58.11454293 53.81294195 60.1875 54.125 C61.81751953 54.37636719 61.81751953 54.37636719 63.48046875 54.6328125 C64.31191406 54.75398438 65.14335937 54.87515625 66 55 C66 58.3 66 61.6 66 65 C65.09636719 65.18175781 64.19273437 65.36351563 63.26171875 65.55078125 C62.08222656 65.80214844 60.90273437 66.05351563 59.6875 66.3125 C58.51574219 66.55613281 57.34398437 66.79976563 56.13671875 67.05078125 C52.989865 68.003067 51.86190185 68.38170052 50 71 C48.55328678 73.73889972 48.55328678 73.73889972 47.3125 76.8125 C46.87550781 77.82957031 46.43851562 78.84664063 45.98828125 79.89453125 C44.9273074 83.2284214 44.59772442 85.52748325 45 89 C46.43142894 91.725376 48.11744414 94.11422031 49.8828125 96.6328125 C51 99 51 99 50.28125 101.1953125 C48.99415733 103.00822962 47.64366897 104.50575548 46 106 C42.2946866 104.65261331 39.2538417 102.94787488 36.0390625 100.70703125 C30.65533902 98.84026123 25.07051528 101.56710881 20.1875 103.8125 C19.06730469 104.31394531 17.94710937 104.81539063 16.79296875 105.33203125 C13.83849796 107.09644947 13.02893491 107.79560271 12 111 C11.57336714 112.73813388 11.19923141 114.48988665 10.875 116.25 C10.70742187 117.14203125 10.53984375 118.0340625 10.3671875 118.953125 C10.24601562 119.62859375 10.12484375 120.3040625 10 121 C7.03 121 4.06 121 1 121 C-0.10192955 117.7729206 -1.07765015 114.64758776 -1.8125 111.3125 C-3.25945628 107.27625353 -4.30931493 106.95757695 -8 105 C-8.87398437 104.53078125 -9.74796875 104.0615625 -10.6484375 103.578125 C-14.83064269 101.54094769 -18.05765814 100.0314114 -22.75 99.875 C-26.8743122 101.30264653 -29.58909757 103.28520011 -33 106 C-35.84574968 104.72431911 -38.18089981 103.58503711 -40 101 C-40 96.56792138 -37.50275223 93.57966943 -34.9609375 90.16015625 C-33.22395398 86.25547379 -34.74525013 82.80687708 -35.98046875 78.89453125 C-38.30818297 72.63697436 -38.30818297 72.63697436 -42.75 67.875 C-46.82012446 66.77919726 -50.86290408 65.81488253 -55 65 C-55 61.7 -55 58.4 -55 55 C-54.09636719 54.82984375 -53.19273438 54.6596875 -52.26171875 54.484375 C-51.08222656 54.24203125 -49.90273437 53.9996875 -48.6875 53.75 C-46.92986328 53.40195313 -46.92986328 53.40195313 -45.13671875 53.046875 C-40.77450875 51.5909942 -39.84023629 49.65237104 -37.83203125 45.703125 C-34.61697086 38.07043059 -34.61697086 38.07043059 -35 30 C-36.74814634 26.48349753 -38.77446889 23.23231899 -41 20 C-38.69 18.02 -36.38 16.04 -34 14 C-33.43152344 14.433125 -32.86304688 14.86625 -32.27734375 15.3125 C-28.64014983 17.93565154 -25.90257412 19.84165366 -21.4375 20.625 C-17.78650774 19.96118322 -15.22001055 18.79695893 -12 17.0234375 C-9.08877534 15.53370925 -6.16549486 14.79137371 -3 14 C-2.01 9.38 -1.02 4.76 0 0 Z M-9.9375 46.6875 C-13.48005131 52.37705211 -15.57410246 57.27276702 -14.625 64.0625 C-13.21908105 69.59992311 -10.32061222 73.33801769 -6 77 C-1.0473754 79.88152704 3.37979911 80.82030546 9 80 C15.29580525 77.86582873 19.99359224 75.16120458 23.3125 69.3125 C25.66978367 64.12647594 26.02618343 59.32143393 24.33984375 53.86328125 C22.07413336 48.71393945 18.74134952 45.01541894 14 42 C5.02834965 38.65463885 -2.87449575 40.2256025 -9.9375 46.6875 Z " fill="#FAD77B" transform="translate(162,16)"/>
<path d="M0 0 C7.9817257 5.70341703 14.72033629 13.80840563 16.6015625 23.64453125 C17.37226951 34.58264229 16.44428561 44.08951786 9.328125 52.765625 C2.27826729 60.43752898 -5.62143459 65.88843374 -16.2109375 66.91796875 C-26.7688863 67.25437398 -34.98073573 64.7245131 -43.2734375 58.08203125 C-50.07053418 51.60625187 -54.41098502 42.30069153 -54.79321289 32.9453125 C-55.01622912 21.26181062 -52.15773628 13.32863532 -44.0234375 4.64453125 C-31.46706036 -7.00593277 -14.90779185 -8.42508758 0 0 Z M-34.3359375 17.33203125 C-37.87848881 23.02158336 -39.97253996 27.91729827 -39.0234375 34.70703125 C-37.61751855 40.24445436 -34.71904972 43.98254894 -30.3984375 47.64453125 C-25.4458129 50.52605829 -21.01863839 51.46483671 -15.3984375 50.64453125 C-9.10263225 48.51035998 -4.40484526 45.80573583 -1.0859375 39.95703125 C1.27134617 34.77100719 1.62774593 29.96596518 -0.05859375 24.5078125 C-2.32430414 19.3584707 -5.65708798 15.65995019 -10.3984375 12.64453125 C-19.37008785 9.2991701 -27.27293325 10.87013375 -34.3359375 17.33203125 Z " fill="#2C3063" transform="translate(186.3984375,45.35546875)"/>
<path d="M0 0 C0.99 0.99 1.98 1.98 3 3 C1.49775154 6.73892951 -0.60165298 8.54093605 -3.75 11 C-8.24886362 14.58024749 -12.65089373 18.23936893 -17 22 C-22.26259686 26.5381674 -27.58864557 30.98058145 -32.98828125 35.35546875 C-34.87626649 36.84295825 -34.87626649 36.84295825 -36 38 C-39.78107122 38.46926276 -41.4689402 38.38137578 -44.60546875 36.12890625 C-45.88357422 34.85853516 -45.88357422 34.85853516 -47.1875 33.5625 C-48.15006606 32.63305202 -49.11497022 31.7060202 -50.08203125 30.78125 C-50.56752441 30.31203125 -51.05301758 29.8428125 -51.55322266 29.359375 C-53.7343033 27.31005725 -56.04543029 25.43975909 -58.375 23.5625 C-63.24212414 19.63649366 -68.01752123 15.61479566 -72.76123047 11.54125977 C-75.6979202 9.00556186 -75.6979202 9.00556186 -79 7 C-78.67 6.01 -78.34 5.02 -78 4 C-77.16597656 4.39832031 -76.33195313 4.79664063 -75.47265625 5.20703125 C-57.89002837 13.48476327 -40.44633509 17.55984712 -21.3984375 11.34375 C-13.9125761 8.3838232 -6.31083378 5.0640593 0 0 Z " fill="#F9DEA8" transform="translate(298,323)"/>
<path d="M0 0 C2.31 0 4.62 0 7 0 C7.67626239 4.4432371 8.35167351 8.88660261 9.02636719 13.33007812 C9.25498642 14.83499467 9.48382007 16.33987865 9.71289062 17.84472656 C10.04616769 20.03441535 10.37873195 22.2242109 10.7109375 24.4140625 C10.8206337 25.13610367 10.9303299 25.85814484 11.04335022 26.60206604 C11.92053378 32.40469954 12.73733934 38.21424048 13.52661133 44.02954102 C13.97540375 46.8456614 14.60821509 49.5512338 15.3125 52.3125 C15.578125 54.66796875 15.578125 54.66796875 15 57 C11.71700029 60.5887693 8.04484791 63.32069275 4 66 C0.72474072 64.78945512 -2.05407354 63.52645245 -4.8125 61.375 C-5.71935547 60.70597656 -5.71935547 60.70597656 -6.64453125 60.0234375 C-10.50362428 54.26260122 -7.23494424 44.1929021 -6.1875 37.8125 C-5.8192463 35.50537826 -5.45207514 33.1980835 -5.0859375 30.890625 C-4.90256836 29.74013672 -4.71919922 28.58964844 -4.53027344 27.40429688 C-3.59767548 21.41712102 -2.76854132 15.41534542 -1.9519043 9.41137695 C-1.84015869 8.60659912 -1.72841309 7.80182129 -1.61328125 6.97265625 C-1.51829346 6.27406494 -1.42330566 5.57547363 -1.32543945 4.85571289 C-1 3 -1 3 0 0 Z " fill="#E7E6E9" transform="translate(257,402)"/>
<path d="M0 0 C3.83200444 2.36801683 3.83200444 2.36801683 5.21875 4.37109375 C4.751808 7.55258111 3.51595678 9.70379246 1.69921875 12.3203125 C1.17674561 13.07852295 0.65427246 13.8367334 0.1159668 14.61791992 C-0.44823975 15.42334229 -1.01244629 16.22876465 -1.59375 17.05859375 C-2.16891357 17.88915283 -2.74407715 18.71971191 -3.33666992 19.57543945 C-5.14382348 22.17946755 -6.96069792 24.77641803 -8.78125 27.37109375 C-9.37164062 28.21285156 -9.96203125 29.05460937 -10.5703125 29.921875 C-13.9601125 34.74815975 -17.36489531 39.56357481 -20.78125 44.37109375 C-25.30060713 42.86464137 -26.64072388 39.48000473 -29.09375 35.55859375 C-29.57392578 34.83349609 -30.05410156 34.10839844 -30.54882812 33.36132812 C-30.99291016 32.65685547 -31.43699219 31.95238281 -31.89453125 31.2265625 C-32.30485596 30.58356201 -32.71518066 29.94056152 -33.13793945 29.27807617 C-33.78125 27.37109375 -33.78125 27.37109375 -33.08569336 25.30810547 C-31.78959238 23.38348163 -30.55354886 22.0304196 -28.796875 20.5234375 C-28.19794434 20.00531494 -27.59901367 19.48719238 -26.98193359 18.95336914 C-26.33820801 18.41059326 -25.69448242 17.86781738 -25.03125 17.30859375 C-24.36818848 16.7458374 -23.70512695 16.18308105 -23.02197266 15.60327148 C-21.63882089 14.43557158 -20.25220864 13.27195932 -18.86230469 12.11230469 C-17.49688815 10.9698656 -16.13789712 9.81969341 -14.78613281 8.66113281 C-12.92447526 7.06636609 -11.04417523 5.49711134 -9.15625 3.93359375 C-8.58938477 3.4430249 -8.02251953 2.95245605 -7.43847656 2.44702148 C-3.45022039 -0.78017624 -3.45022039 -0.78017624 0 0 Z " fill="#E8E7E9" transform="translate(312.78125,340.62890625)"/>
<path d="M0 0 C5.62079609 4.07783246 10.91739394 8.43673216 16.19091797 12.94580078 C20.33878114 16.47799403 24.58854182 19.79953034 29 23 C28.05003199 27.45612422 25.94073518 30.87334205 23.625 34.75 C23.22539062 35.44738281 22.82578125 36.14476562 22.4140625 36.86328125 C21.36291209 38.6301821 20.18905872 40.32280139 19 42 C18.01 42 17.02 42 16 42 C14.22925853 39.93619156 12.67874241 37.90796961 11.125 35.6875 C10.65537842 35.03193115 10.18575684 34.3763623 9.7019043 33.70092773 C3.66841285 25.22763148 -2.172113 16.6154409 -8 8 C-5.33333333 5.33333333 -2.66666667 2.66666667 0 0 Z " fill="#E9E8EA" transform="translate(210,342)"/>
<path d="M0 0 C4.62 0 9.24 0 14 0 C13.125 7.625 13.125 7.625 12 11 C9.03 11 6.06 11 3 11 C0 3.375 0 3.375 0 0 Z " fill="#E3E2E6" transform="translate(253,376)"/>
</svg>
