<svg xmlns="http://www.w3.org/2000/svg" enable-background="new 0 0 256 256" viewBox="0 0 256 256" id="dashboard"><path fill="#fff" d="M220.477,62.436v162.595c0,8.578-6.948,15.526-15.526,15.526h-153.9
			c-8.578,0-15.526-6.948-15.526-15.526V62.436H220.477z"></path><path fill="#fdc140" d="M51.052,226.03c-0.553,0-1.004-0.45-1.004-1V76.96h155.903V225.03c0,0.56-0.44,1-1,1H51.052z"></path><path fill="#fff" d="M220.473,62.436V30.953c0-8.575-6.951-15.526-15.526-15.526H51.053
			c-8.575,0-15.526,6.951-15.526,15.526v31.484H220.473z"></path><path fill="#fff" d="M63.734 38.931c0 3.149-2.551 5.701-5.701 5.701-3.149 0-5.74-2.551-5.74-5.701 0-3.149 2.591-5.7 5.74-5.7C61.182 33.231 63.734 35.782 63.734 38.931zM87.201 38.931c0 3.149-2.551 5.701-5.701 5.701-3.149 0-5.74-2.551-5.74-5.701 0-3.149 2.591-5.7 5.74-5.7C84.65 33.231 87.201 35.782 87.201 38.931zM110.669 38.931c0 3.149-2.551 5.701-5.701 5.701-3.149 0-5.74-2.551-5.74-5.701 0-3.149 2.591-5.7 5.74-5.7C108.117 33.231 110.669 35.782 110.669 38.931zM119.018 124.548c-19.844 0-35.931 16.086-35.931 35.93 0 19.844 16.086 35.931 35.931 35.931s35.93-16.087 35.93-35.931h-35.93V124.548z"></path><path fill="#fff" d="M136.983,106.583v35.93h35.93C172.914,122.669,156.828,106.583,136.983,106.583z"></path><path d="M51.052,243.289h153.899c10.064,0,18.248-8.185,18.248-18.248c0-14.173-0.003-154.742-0.004-194.081
			c0-10.064-8.185-18.248-18.248-18.248H51.052c-10.064,0-18.248,8.185-18.248,18.248C32.803,70.314,32.8,210.898,32.8,225.04
			C32.8,235.104,40.988,243.289,51.052,243.289z M38.25,30.96c0-7.06,5.741-12.802,12.802-12.802h153.896
			c7.06,0,12.802,5.741,12.802,12.802v28.763H38.25V30.96z M38.247,65.169h179.506V225.04c0,7.06-5.741,12.802-12.802,12.802H51.052
			c-7.06,0-12.805-5.741-12.805-12.802V65.169z"></path><path d="M58.034 30.516c-4.667 0-8.465 3.777-8.465 8.422s3.798 8.426 8.465 8.426c4.645 0 8.422-3.78 8.422-8.426S62.68 30.516 58.034 30.516zM58.034 41.917c-1.663 0-3.018-1.337-3.018-2.979 0-1.642 1.355-2.975 3.018-2.975 1.642 0 2.975 1.333 2.975 2.975C61.01 40.58 59.676 41.917 58.034 41.917zM81.499 30.516c-4.667 0-8.461 3.777-8.461 8.422s3.794 8.426 8.461 8.426c4.645 0 8.426-3.78 8.426-8.426S86.145 30.516 81.499 30.516zM81.499 41.917c-1.663 0-3.014-1.337-3.014-2.979 0-1.642 1.351-2.975 3.014-2.975 1.642 0 2.979 1.333 2.979 2.975C84.478 40.58 83.141 41.917 81.499 41.917zM104.968 30.516c-4.667 0-8.465 3.777-8.465 8.422s3.798 8.426 8.465 8.426c4.645 0 8.426-3.78 8.426-8.426S109.613 30.516 104.968 30.516zM104.968 41.917c-1.663 0-3.018-1.337-3.018-2.979 0-1.642 1.355-2.975 3.018-2.975 1.642 0 2.979 1.333 2.979 2.975C107.947 40.58 106.61 41.917 104.968 41.917zM203.707 36.215h-46.933c-1.504 0-2.723 1.22-2.723 2.723s1.22 2.723 2.723 2.723h46.933c1.504 0 2.723-1.22 2.723-2.723S205.21 36.215 203.707 36.215zM119.018 199.132c21.312 0 38.653-17.341 38.653-38.653 0-1.504-1.22-2.723-2.723-2.723h-33.206V124.55c0-1.504-1.22-2.723-2.723-2.723-21.312 0-38.653 17.341-38.653 38.653S97.705 199.132 119.018 199.132zM116.294 127.383v33.096c0 1.504 1.22 2.723 2.723 2.723h33.096c-1.39 17.043-15.702 30.483-33.096 30.483-18.309 0-33.206-14.897-33.206-33.206C85.811 143.085 99.251 128.773 116.294 127.383z"></path><path d="M136.982,145.238h35.93c1.504,0,2.723-1.22,2.723-2.723c0-21.312-17.341-38.653-38.653-38.653
			c-1.504,0-2.723,1.22-2.723,2.723v35.93C134.259,144.018,135.479,145.238,136.982,145.238z M139.706,109.418
			c16.142,1.316,29.057,14.231,30.373,30.373h-30.373V109.418z"></path></svg>