<svg xmlns="http://www.w3.org/2000/svg" width="110" height="110" version="1.0" id="cashier"><circle cx="55" cy="55" r="55" fill="#25B7D3"></circle><path fill="#CFD3D4" d="M79 39a4 4 0 0 0-4-4H35a4 4 0 0 0-4 4v12h48V39z"></path><path fill="#F0F1F1" d="M75 35H35a4 4 0 0 0-4 4v12h29.744L76.46 35.284A3.983 3.983 0 0 0 75 35z"></path><path fill="#818284" d="M23 75h64v12H23z"></path><path fill="#F0F1F1" d="M31 51h48l8 20H23z"></path><path fill="#FFF" d="m31 51-8 20h17.744l20-20zM35 43V27l4 4 4-4 4 4 4-4v16z"></path><path fill="#CFD3D4" d="M23 71h64v4H23z"></path><path fill="#17B198" d="M55 39h20v8H55z"></path><path fill="#4AC3AF" d="M72.744 39H55v8h9.744z"></path><path fill="#818284" d="M69 32h4v3h-4z"></path><path fill="#3E3E3F" d="M83 24a1 1 0 0 0-1-1H60a1 1 0 0 0-1 1v7a1 1 0 0 0 1 1h22a1 1 0 0 0 1-1v-7z"></path><path fill="#CFD3D4" d="M34 43h18v2H34zM47 35.5c0 .275-.225.5-.5.5h-7a.501.501 0 0 1-.5-.5c0-.275.225-.5.5-.5h7c.275 0 .5.225.5.5zM47 39.5c0 .275-.225.5-.5.5h-7a.501.501 0 0 1-.5-.5c0-.275.225-.5.5-.5h7c.275 0 .5.225.5.5z"></path><circle cx="55" cy="81" r="2" fill="#CFD3D4"></circle><circle cx="35" cy="57" r="2" fill="#CFD3D4"></circle><circle cx="43" cy="57" r="2" fill="#CFD3D4"></circle><circle cx="51" cy="57" r="2" fill="#CFD3D4"></circle><circle cx="33" cy="65" r="2" fill="#CFD3D4"></circle><circle cx="41" cy="65" r="2" fill="#CFD3D4"></circle><circle cx="49" cy="65" r="2" fill="#B6BCBD"></circle><circle cx="61" cy="65" r="2" fill="#B6BCBD"></circle><circle cx="69" cy="65" r="2" fill="#B6BCBD"></circle><circle cx="77" cy="65" r="2" fill="#17B198"></circle><circle cx="59" cy="57" r="2" fill="#B6BCBD"></circle><circle cx="67" cy="57" r="2" fill="#B6BCBD"></circle><circle cx="75" cy="57" r="2" fill="#FA5655"></circle><path fill="#5B5C5F" d="M74.272 23H60a1 1 0 0 0-1 1v7a1 1 0 0 0 1 1h5.272l9-9z"></path></svg>