<?xml version="1.0" encoding="UTF-8"?>
<svg version="1.1" viewBox="0 0 1600 1600" width="1280" height="1280" xmlns="http://www.w3.org/2000/svg">
<path transform="translate(956,214)" d="m0 0h23l13 4 8 6 5 6 3 8 2 14-1 11-2 6 5 13 5 26 1 9v10l-3 10-5 10-1 3v12l4 12 2 4 5 3 3 3 3 11 2 13 7 19 4 16 2 13v15l-3 14-7 14-7 9-2 16-5 6-2 1v10l-2 13 5 38 2 27v11l5 2 25 14 24 14 78 45 24 14 52 30 24 14 78 45 24 14 26 15 17 10v365l-13 8-26 15-28 16-24 14-52 30-28 16-24 14-52 30-24 14-5-1-25-14-17-10-26-15-24-14-104-60-24-14-52-30-24-14-78-45-24-14-78-45-24-14-26-15-19-11 1 49v40l-2 31-3 13-5 5-8 3-1 6v19l16-5h11l7 6 2 4-1 7-5 7-12 9-8 4h-19l-4 9-2 1h-9l-13-3-5-4v-13l3-10 8-6h2l1-35-3-6-4-26-5-48-4-49-2-46-5-2-14-8-2 11-4 20-6 46-8 42-8 32-4 10-3 3-9 2v18l1 2 16-4h8l7 5 3 5-1 7-6 8-12 9-9 4-17-1-4 9-1 1h-12l-11-3-5-4v-13l3-9 5-5 5-2 1-3 1-18 1-5-6-2-2-3 2-23 14-153 1-11v-11l-28-16-12-7v-365l13-8 28-16 26-15 24-14 21-12 2-48 3-3 26-15 22-13 29-17 27-16 5-3 4 1 16 9 1 13v14l24-14 6 1 24 14 26 15 2 1-1-13v-10l15-9 15 8 24 14 27 15 23 13 6-1 15-10 11-9 10-14 14-25 6-13-1-5 3-12 7-13 5-5 8-6 16-7 8-2h15l-8-20-6-24-1-8-5-1-3-4-2-4-8-4-5-8v-6l5-6 15-9h2l-3-5v-11l2-10 4-7 9-6 9-3zm-54 198-13 23-12 18-7 9-9 9-18 13 4 4 27 15 24 14 7 4h3l2-23v-23l-2-46-1-17z" fill="#456064"/>
<path transform="translate(956,214)" d="m0 0h23l13 4 8 6 5 6 3 8 2 14-1 11-2 6 5 13 5 26 1 9v10l-3 10-5 10-1 3v12l4 12 2 4 5 3 3 3 3 11 2 13 7 19 4 16 2 13v15l-3 14-7 14-7 9-2 16-5 6-2 1v10l-2 13 5 38 2 27v11l5 2 25 14 24 14 78 45 24 14 52 30 24 14 78 45 24 14 26 15 16 9-1 3-10 5-5 3h-2v2l-14 7-10 6h-2v2l-7 2v2l-12 6-5 3h-2v2l-6 3-11 6-7 4h-2v2l-7 2v2l-12 6-5 3h-2v2l-14 7-10 6h-2v2l-7 2v2l-6 3-11 6h-2v2l-6 3-11 6-7 4h-2v2l-7 2v2l-12 6-5 3h-2v2l-14 7-10 6h-2v2l-7 2v2l-12 6-4-1-25-14-24-14-26-15-24-14-28-16-24-14-52-30-24-14-52-30-24-14-52-30-24-14-26-15-28-16-27-16-23-13-24-14-52-30-4-2-6 5h-9l-5-3-4-3-2 10 4 2 10 9 13 8 15 8 9 9 8 16 10 40 3 11-1 2 8 41v3l5-3 8-8 11-14 9-12 1-2v-10l-2-10v-6h4l3 5v2h7l8-7 7-11 3-1 1 2v7l-3 12-7 14-6 10-12 26-12 25-11 18-9 9-7 1-8-6-7-10-10-18-6-13-1 10-2 76-5 2-28 5-22 2h-30l-18-2-19-5-10-4-10-7-1-1 1-23 3-49v-12l-9-10-8-14-3-11v-21l-2-4v-9l5-19 8-18 9-14 10-9 13-6 19-7 10-7 2-1h9l1-5 14-1 8-4 7-7 4-7 6-17 4-6 4-1 3 7 1 14 2 1 3-16 6-15 10-12v-14l-5-5-9-6-14-7-15-5h-16l-9 4-8 6-5 7h-2l-1 5-3 6-2 7v19l1 8-12-6-24-14-52-30-4-4 104-60 7-4 2-48 3-3 26-15 22-13 29-17 27-16 5-3 4 1 16 9 1 13v14l24-14 6 1 24 14 26 15 2 1-1-13v-10l15-9 15 8 24 14 27 15 23 13 6-1 15-10 11-9 10-14 14-25 6-13-1-5 3-12 7-13 5-5 8-6 16-7 8-2h15l-8-20-6-24-1-8-5-1-3-4-2-4-8-4-5-8v-6l5-6 15-9h2l-3-5v-11l2-10 4-7 9-6 9-3zm-54 198-13 23-12 18-7 9-9 9-18 13 4 4 27 15 24 14 7 4h3l2-23v-23l-2-46-1-17z" fill="#C7D5D7"/>
<path transform="translate(1396,847)" d="m0 0h1v320l-9 5-10 6-11 6-12 7-14 8-8 5-11 6-8 5-11 6-14 8-8 5-11 6-14 8-8 5-11 6-8 5-11 6-8 5-11 6-14 8-8 5-11 6-12 7-10 6-11 6-6 4h-3v-318l3-3 7-4h3v-2l4-2h3v-2l23-13h3v-2l16-9h3v-2l7-2v-2l6-3 10-6 7-4h3v-2l13-7 3-2h3v-2l4-2h3v-2l23-13h3v-2l16-9h3v-2l7-2v-2l6-3 10-6 7-4h3v-2l16-9h3v-2l4-2h3v-2l23-13h3v-2l14-8z" fill="#274043"/>
<path transform="translate(956,214)" d="m0 0h23l13 4 8 6 5 6 3 8 2 14-1 11-2 6 5 13 5 26 1 9v10l-3 10-5 10-1 3v12l4 12 2 4 5 3 3 3 3 11 2 13 7 19 4 16 2 13v15l-3 14-7 14-6 7h-1v-60l-2 1h-12l-7-2v23l1 4 1 18v13l-2 13-5 5-19 10-27 14-14 9-10 8-5 11-1 3 15 118v5l-15 10-6-2-22-13-4 1-18 10-24 14-28 16-5 3h-2l-1-134-28-16-25-14-49-28-26-15v-2l22-13 20-12-1-12-6-50v-10l15-9 15 8 24 14 27 15 23 13 6-1 15-10 11-9 10-14 14-25 6-13-1-5 3-12 7-13 5-5 8-6 16-7 8-2h15l-8-20-6-24-1-8-5-1-3-4-2-4-8-4-5-8v-6l5-6 15-9h2l-3-5v-11l2-10 4-7 9-6 9-3zm-54 198-13 23-12 18-7 9-9 9-18 13 4 4 27 15 24 14 7 4h3l2-23v-23l-2-46-1-17z" fill="#FE9024"/>
<path transform="translate(513,571)" d="m0 0h16l15 5 16 8 10 7 3 4v14l-10 12-6 15-2 12-2 4-3-1-1-14-2-6-4 1-3 5-4 11-4 9-4 6-7 7-7 3h-14v5l-2 1h-8l-11 7-8 4-17 6-9 5-9 8-9 15-8 19-4 16v9l2 4v21l4 13 7 12 9 10v12l-4 64v8l10 7 16 6 20 4 11 1h30l22-2 28-5h3l1 23 1 77 2 79v40l-2 31-3 13-5 5-8 3-1 6v19l16-5h11l7 6 2 4-1 7-5 7-12 9-8 4h-19l-4 9-2 1h-9l-13-3-5-4v-13l3-10 8-6h2l1-35-3-6-4-26-5-48-4-49-2-46-5-2-14-8-2 11-4 20-6 46-8 42-8 32-4 10-3 3-9 2v18l1 2 16-4h8l7 5 3 5-1 7-6 8-12 9-9 4-17-1-4 9-1 1h-12l-11-3-5-4v-13l3-9 5-5 5-2 1-3 1-18 1-5-6-2-2-3 2-23 14-153 1-11v-11l-28-16-12-7v-365l5 2 23 13 24 14 26 15 14 8-1-7v-19l4-12 3-6h2l2-4 6-7 8-5z" fill="#011C40"/>
<path transform="translate(490,678)" d="m0 0h10v2l9 3 14 3 11 1 7 7 14 10 19 10 9 9 8 16 10 40 3 11-1 2 8 41v3l5-3 8-8 11-14 9-12 1-2v-10l-2-10v-6h4l3 5v2h7l8-7 7-11 3-1 1 2v7l-3 12-7 14-6 10-12 26-12 25-11 18-9 9-7 1-8-6-7-10-10-18-6-13-1 10-2 76-5 2-28 5-22 2h-30l-18-2-19-5-10-4-10-7-1-1 1-23 3-49v-12l-9-10-8-14-3-11v-21l-2-4v-9l5-19 8-18 9-14 10-9 13-6 19-7 10-7z" fill="#88C800"/>
<path transform="translate(719,433)" d="m0 0 14 8 27 15 35 20 46 26 56 32 3 1 12-8 3 1 3 20 7 52 12 94v5l-15 10-6-2-22-13-4 1-18 10-24 14-28 16-5 3h-2l-1-134-28-16-25-14-49-28-26-15v-2l22-13 20-12-1-12-6-50z" fill="#5C5757"/>
<path transform="translate(617,401)" d="m0 0 4 1 16 9 1 13 3 105v14l-9 6-14 8-22 13-29 17-2 1-14-8-18-7-4-1h-16l-9 4-8 6-5 7h-2l-1 5-3 6-2 7v19l1 8-12-6-24-14-52-30-4-4 104-60 7-4 2-48 3-3 26-15 22-13 29-17 27-16z" fill="#3D84D7"/>
<path transform="translate(513,571)" d="m0 0h16l15 5 16 8 10 7 3 4v14l-10 12-6 15-2 12-2 4-3-1-1-14-2-6-4 1-3 5-4 11-4 9-4 6-7 7-7 3h-14v5l-2 1h-8l-11 7-8 4-17 6-9 5-9 8-9 15-8 19-4 16v9l2 4v21l4 13 7 12 9 10v12l-4 64v8l4 3-1 18-2 22-1 18-2-4-28-16-12-7v-365l5 2 23 13 24 14 26 15 14 8-1-7v-19l4-12 3-6h2l2-4 6-7 8-5z" fill="#466165"/>
<path transform="translate(574,1021)" d="m0 0 14 8 29 17 27 16 29 17 51 30 25 15 24 14 29 17 51 30 25 15 24 14 29 17 51 30 25 15 24 14 29 17 27 16 29 17 7 4 4-1 25-14 17-10 227-131h1v24l-13 8-26 15-28 16-24 14-52 30-28 16-24 14-52 30-24 14-5-1-25-14-17-10-26-15-24-14-104-60-24-14-52-30-24-14-78-45-24-14-78-45-24-14-26-15-20-12z" fill="#466165"/>
<path transform="translate(992,741)" d="m0 0 5 1 24 14 26 15 24 14 28 16 27 16 23 13 24 14 26 15 21 12-2 4-25 14-24 14-26 15-5 3-5-1-52-30-24-14-104-60-43-25 2-4 25-14 22-13 6-3v35l3 5 10 5 5 1h11l9-3 6-4 2-3 1-7 9-3 2-5 1-9-3-6-4-3-5-2-4-6-6-4-15-3 3-3z" fill="#FEFEFE"/>
<path transform="translate(664,541)" d="m0 0 15 8 24 14 27 15 24 14 27 15 14 8v134l-12-6-77-44-25-14-17-10z" fill="#5E5959"/>
<path transform="translate(574 1e3)" d="m0 0 5 1 25 15 26 15 15 9 51 30 73 43 27 16 29 17 73 43 27 16 29 17 95 56 73 43 5-1 8-5 9-5 7-4 11-7 11-6 14-8 12-7 11-6 15-9 16-9 7-4 11-7 22-12 11-7 22-12 15-9 16-9 7-4 11-7 22-12 10-6h2v21l-22 13-234 135-15 9-5-1-24-14-29-17-27-16-29-17-73-43-27-16-29-17-73-43-27-16-29-17-73-43-27-16-29-17-44-26-7-5z" fill="#FCFDFD"/>
<path transform="translate(747,492)" d="m0 0 12 6 24 14 27 15 49 28 19 11-5 4-44 26-14 8v134h-2l-1-134-28-16-25-14-49-28-26-15v-2l22-13 20-12 16-9z" fill="#8E8E8E"/>
<path transform="translate(876,567)" d="m0 0 3 1 15 116v9l-11 6-25 14-41 24h-3v-133l27-16 29-17z" fill="#707070"/>
<path transform="translate(909,790)" d="m0 0 10 5 24 14 78 45 24 14 78 45 12 7 5-1 24-14 52-30 5-2v24l-9 6-9 5-1 30-9 5-4 1-10-6-1-1-1-14-26 15-1 28-9 5-4 1-10-6-1-1v-25l-5-2-23-13-24-14-28-16-24-14-52-30-22-13v16l-10 6-4-1-9-5-1-30-14-8-1-1z" fill="#718F93"/>
<path transform="translate(956,214)" d="m0 0h23l13 4 8 6 5 6 3 8 2 14-1 11-2 6 5 13 5 26 1 9v10l-3 10-5 10-1 3v12l4 12 1 4-4-1-7-8-14-9-6-2-3-10 8-10 5-12-1-8-5-10-6-5-10-5-7-2h-20l-9 3h-8l-4-5-2-4-8-4-5-8v-6l5-6 15-9h2l-3-5v-11l2-10 4-7 9-6 9-3z" fill="#FE3701"/>
<path transform="translate(685,574)" d="m0 0 12 6 24 14 27 15 24 14 3 2v91l-5-2-27-15-24-14-34-19z" fill="#DDEFFD"/>
<path transform="translate(1396,1188)" d="m0 0h1v24l-13 8-26 15-28 16-24 14-52 30-28 16-24 14-52 30-24 14h-2v-23l5-4 28-16 24-14 28-16 24-14 28-16 24-14 28-16 24-14 28-16 24-14z" fill="#2A4346"/>
<path transform="translate(513,571)" d="m0 0h16l15 5 16 8 10 7 3 4v14l-10 12-6 15-2 12-2 4-3-1-1-14-2-6-4 1-3 5-4 11-4 9-4 6-7 7-7 3h-15l-3-4-4-18-7-14-3-11v-19l4-12 3-6h2l2-4 6-7 8-5z" fill="#11222F"/>
<path transform="translate(503,516)" d="m0 0h1l-2 61-7 6-4 6h-2l-1 5-3 6-2 7v19l1 8-12-6-24-14-52-30-4-4 104-60z" fill="#C7D4D6"/>
<path transform="translate(885,402)" d="m0 0 8 6 5 3 4 1-2 5-10 18-12 18-7 9-10 10-17 12 5 4 25 14 24 14 13 7 4 3-1 2-5 2-9 6-5-2-56-32-23-13-18-10-17-10-27-15-21-12-13-8-1-2 15-9 15 8 24 14 27 15 23 13 6-1 15-10 11-9 10-14 14-25z" fill="#8E8E8E"/>
<path transform="translate(673,759)" d="m0 0h2l1 2v7l-3 12-7 14-6 10-12 26-12 25-11 18-9 9-7 1-8-6-7-10-10-18-14-31-4-11v-3l35-13 2 1 8 41v3l5-3 8-8 11-14 9-12 1-2v-10l-2-10v-6h4l3 5v2h7l8-7 7-11z" fill="#FBCD8A"/>
<path transform="translate(1013,532)" d="m0 0 2 3-1 13-1 6 5 38 2 27v10l-5-2-78-45-3-2v-2l8-7 8-6 27-12 19-10 14-9z" fill="#FE3600"/>
<path transform="translate(676,560)" d="m0 0 6 2 56 32 24 14 21 12 1 1v110l-12-6-24-14-25-14-24-14-23-13zm9 14v92l22 12 24 14 25 14 17 10h2v-91l-17-10-23-13-49-28z" fill="#404444"/>
<path transform="translate(944,295)" d="m0 0h20l14 5 8 6 5 7 3 8-1 8-6 12-6 8 2 10-9 10-7 7-5 3h-5l-2-2-1-18-7-6-3-2h2l-8-20-6-24-1-8z" fill="#FBDBB1"/>
<path transform="translate(1e3 445)" d="m0 0 7 1h14v62l-2 16-5 6-16 11-22 12-24 11-8 4-10 9-3 1-1 2-10-6 1-6 5-8 13-10 25-14 30-15 5-5 2-13v-13l-1-18-1-5z" fill="#FBCD8B"/>
<path transform="translate(685,574)" d="m0 0 12 6 24 14 27 15 24 14 3 2v91l-5-2-27-15-24-14-34-19zm10 17v70l13 8 25 14 24 14 8 4v-71l-17-10-28-16-23-13z" fill="#A2D7FD"/>
<path transform="translate(1e3 268)" d="m0 0 3 3 4 11 5 26 1 9v10l-3 10-5 10-1 3v12l4 12 1 4-4-1-7-8-14-9-6-2-3-10 8-10 5-12-1-8-5-10-6-5-10-5-7-2h-20l-9 3h-8l-4-5-1-4h29l14-3 12-5 15-8 3-3z" fill="#360D57"/>
<path transform="translate(912,527)" d="m0 0 3 1 3 20 7 52 12 94v5l-15 10-2-1-3-21-2-19-6-44-2-18-5-38-2-19-1-13 10-7z" fill="#717171"/>
<path transform="translate(682,531)" d="m0 0 5 1 27 15 24 14 27 15 21 12 26 15 1 2-17 10-5-1-24-14-27-15-24-14-27-15-24-14 3-3z" fill="#FCFDFD"/>
<path transform="translate(982,745)" d="m0 0h12l10 3 7 6 1 4 7 2 5 6 1 9-4 8-5 3h-4v7l-5 6-8 4-5 1h-11l-10-3-7-5-2-4 1-37 4-5 8-4z" fill="#FCDBB1"/>
<path transform="translate(1127,830)" d="m0 0h16l10 4 5 6v3l6 1 7 8v10l-4 6-5 3h-3v6l-6 7-9 4h-18l-10-4-5-6v-37l6-7z" fill="#FBDBB1"/>
<path transform="translate(1057,787)" d="m0 0 13 1 10 5 4 6v2l6 1 6 7 1 2v7l-3 6-5 4-5 1v7l-5 5-8 4-3 1h-15l-11-4-5-6-1-7 1-31 6-7 8-3z" fill="#FCDBB1"/>
<path transform="translate(391,893)" d="m0 0 11 6 26 15 9 6-3 35-1 18-2-4-28-16-12-7z" fill="#476266"/>
<path transform="translate(466,1187)" d="m0 0h8l7 5 3 5-1 7-6 8-12 9-9 4-17-1-4 9-1 1h-12l-11-3-5-4v-13l3-9 5-5 5-2 7 2h12l9-5 3-4z" fill="#030303"/>
<path transform="translate(574,1214)" d="m0 0h11l7 6 2 4-1 7-5 7-12 9-8 4h-19l-4 9-2 1h-9l-13-3-5-4v-13l3-10 7-5h7l3 1h11l8-4 3-1 2-4z" fill="#030303"/>
<path transform="translate(568,614)" d="m0 0h1v10l-2 13-1 20-3 13-5 8-6 5h-9l-5-3-4-3-2 10h-9l-17-4-6-3v-7l14-1 8-4 7-7 4-7 6-17 4-6 4-1 3 7 1 14 2 1 3-16 6-15z" fill="#FADAB0"/>
<path transform="translate(885,402)" d="m0 0 8 6 5 3 4 1-2 5-10 18-12 18-7 9-10 10-18 13-11-6-8-4 3-2 16-10 12-10 10-14 14-25z" fill="#FBCE8B"/>
<path transform="translate(1028,410)" d="m0 0 2 3 7 21 4 22v15l-3 14-7 14-6 7h-1v-60l3-5 1-5z" fill="#381059"/>
<path transform="translate(531,1190)" d="m0 0 8 3 19 1v21l1 5-5 5-7 3h-11l-9-2 2-1 1-27z" fill="#F7CB8B"/>
<path transform="translate(391,893)" d="m0 0 11 6 26 15 9 6-2 19-12-6-27-16-5-3z" fill="#FCFDFD"/>
<path transform="translate(516,474)" d="m0 0 5 2 3 2 1 7 2 85h-11z" fill="#A2D8FE"/>
<path transform="translate(417,773)" d="m0 0 8 6 15 9-2 40-4-2-7-8-8-14-3-11v-15z" fill="#FBCD8A"/>
<path transform="translate(445,1172)" d="m0 0h4v22l-5 4-6 3h-12l-6-2 1-22 1-4z" fill="#F9CC8B"/>
<path transform="translate(925,824)" d="m0 0 22 12 1 1v17l-10 6-4-1-9-5z" fill="#466165"/>
<path transform="translate(1148,939)" d="m0 0h2v27l-9 5-4 1-10-6v-25l8 4 4-1z" fill="#466165"/>
<path transform="translate(504,960)" d="m0 0 5 2 2 15v13l1 25-5-2-14-8z" fill="#466165"/>
<path transform="translate(1200,909)" d="m0 0h2v29l-9 5-4 1-10-6v-16l9-6z" fill="#2A4447"/>
<path transform="translate(1013,532)" d="m0 0 2 3-1 13-4 7-4 3-11 2h-11l-16-2 3-2 25-13 14-9z" fill="#FE9125"/>
<path transform="translate(979,349)" d="m0 0h2l2 10-9 10-7 7-5 3h-5l-2-2v-18l12-2 11-7z" fill="#FACD8B"/>
<path transform="translate(983,753)" d="m0 0h11l7 3 5 4-1 4-8 5-3 1h-12l-8-4-4-3v-3l9-6z" fill="#424444"/>
<path transform="translate(1058,795)" d="m0 0 9 1 9 4 2 5-4 4-8 3h-13l-8-4-2-2 1-5 5-4z" fill="#414342"/>
<path transform="translate(1128,838)" d="m0 0h13l10 5 2 4-6 5-5 2h-16l-7-4-2-2v-4l8-5z" fill="#414342"/>
<path transform="translate(916,534)" d="m0 0 7 6 12 7 7 3-5 5-9 7-5 11-3-2-4-31z" fill="#FF3800"/>
<path transform="translate(1148,939)" d="m0 0h2v27l-9 5h-2v-27z" fill="#2A4447"/>
<path transform="translate(1190,915)" d="m0 0h1l1 29-5-1-8-5v-16l9-6z" fill="#476165"/>
<path transform="translate(608,452)" d="m0 0h1l-1 7-1 2-2 15-4 12-5 9-8 7-6 2-9-1-6-4-5-8-1-7 5-4 2-7h1v6l-4 5 2 8 4 5 4 2h9l8-5 6-9 4-13 2-10-4-1 3-1 4-7z" fill="#A2D8FE"/>
<path transform="translate(937,832)" d="m0 0 5 1 6 4v17l-9 5h-2z" fill="#284144"/>
<path transform="translate(719,629)" d="m0 0h6l4 5 1 6v4l1 7-1 2h-6l-6-6v-8h2l-2-5z" fill="#465E61"/>
<path transform="translate(704,620)" d="m0 0h5l5 6v6 3l1 2v6l-5 2-5-3-3-5v-6l3-1-2-3v-6z" fill="#425B5F"/>
<path transform="translate(504,960)" d="m0 0 5 2 1 10v11l-5-2-5-3z" fill="#F8F9FA"/>
<path transform="translate(744,643)" d="m0 0 5 1 5 5v6 3l1 2v6l-2 2-5-1-5-5v-6l2 3 4 5 3 1-2-7-4-3v-2l5 1-1-5-1-2h-5z" fill="#405A5D"/>
<path transform="translate(743,644)" d="m0 0 1 3 5-1 3 6-1 2-5-1v2l4 2 2 3v5l-4-1-4-5-2 1v-6l2-2-1-2z" fill="#4D676A"/>
<path transform="translate(721,637)" d="m0 0 4 2-1 2-3 1 1 5 3 3h2l1-6h2l1 7-1 2h-6l-6-6v-8h3z" fill="#415B5F"/>
<path transform="translate(1013,765)" d="m0 0 5 2 1 6-3 5-4 1v-13z" fill="#fff"/>
<path transform="translate(1084,808)" d="m0 0 5 1 2 3-1 6-3 3h-3z" fill="#fff"/>
<path transform="translate(1159,850)" d="m0 0 4 1 2 2v6l-5 5h-1z" fill="#fff"/>
<path transform="translate(704,620)" d="m0 0h5l5 6v6l-2-3-4 1-3-4z" fill="#486367"/>
<path transform="translate(703,621)" d="m0 0h2l2 6 1 2h3l2-2v8h-3v-2l-5-1v2h-2v-4h2l-2-3z" fill="#3D575B"/>
<path transform="translate(743,656)" d="m0 0 2 3 4 5 3 1v-7h2l1 2v6l-2 2-5-1-5-5z" fill="#486367"/>
<path transform="translate(992,741)" d="m0 0 5 1 9 6-2 1-10-3-7-1 3-3z" fill="#fff"/>
<path transform="translate(721,641)" d="m0 0 4 1 3 4-1 5-4-2-3-4z" fill="#D9ECF7"/>
<path transform="translate(705,632)" d="m0 0 5 1 2 3v6l-4-1-3-4z" fill="#DAECF8"/>
<path transform="translate(746,655)" d="m0 0 4 2 2 3v5l-4-1-3-3v-5z" fill="#DCEEFB"/>
<path transform="translate(507,948)" d="m0 0h1l1 14-5-2z" fill="#476165"/>
<path transform="translate(721,637)" d="m0 0 4 2-1 2-3 1-1 6-2-1v-8h3z" fill="#3C5558"/>
<path transform="translate(722,631)" d="m0 0 4 2 1 6-4-1-2-6z" fill="#D6E7F2"/>
<path transform="translate(746,646)" d="m0 0 4 1 2 5-1 2-4-2z" fill="#D8EAF5"/>
<path transform="translate(727,635)" d="m0 0 3 1-1 8-2 2-3-4 1-3h2z" fill="#466164"/>
<path transform="translate(702,631)" d="m0 0 1 3h2l4 8-3 1-4-6z" fill="#4E666A"/>
<path transform="translate(706,623)" d="m0 0 4 1 2 5-4 1-2-3z" fill="#D8EAF5"/>
<path transform="translate(743,656)" d="m0 0 2 3 4 5 3 2-4 1-5-5z" fill="#456064"/>
</svg>
